<?xml version="1.0" encoding="UTF-8" standalone="no"?>
<!-- Created with Inkscape (http://www.inkscape.org/) -->

<svg
   xmlns:dc="http://purl.org/dc/elements/1.1/"
   xmlns:cc="http://creativecommons.org/ns#"
   xmlns:rdf="http://www.w3.org/1999/02/22-rdf-syntax-ns#"
   xmlns:svg="http://www.w3.org/2000/svg"
   xmlns="http://www.w3.org/2000/svg"
   xmlns:sodipodi="http://sodipodi.sourceforge.net/DTD/sodipodi-0.dtd"
   xmlns:inkscape="http://www.inkscape.org/namespaces/inkscape"
   width="107.28488mm"
   height="96.382507mm"
   viewBox="0 0 380.14329 341.51282"
   id="svg6923"
   version="1.1"
   inkscape:version="0.91 r13725"
   sodipodi:docname="brand-lg.svg">
  <defs
     id="defs6925" />
  <sodipodi:namedview
     id="base"
     pagecolor="#ffffff"
     bordercolor="#666666"
     borderopacity="1.0"
     inkscape:pageopacity="0.0"
     inkscape:pageshadow="2"
     inkscape:zoom="0.61230469"
     inkscape:cx="308.32768"
     inkscape:cy="113.01074"
     inkscape:document-units="px"
     inkscape:current-layer="layer1"
     showgrid="false"
     fit-margin-top="0"
     fit-margin-left="0"
     fit-margin-right="0"
     fit-margin-bottom="0"
     inkscape:window-width="1301"
     inkscape:window-height="744"
     inkscape:window-x="65"
     inkscape:window-y="24"
     inkscape:window-maximized="1"
     inkscape:snap-bbox="true"
     inkscape:bbox-paths="true"
     inkscape:snap-bbox-edge-midpoints="true"
     inkscape:snap-bbox-midpoints="true"
     inkscape:object-paths="true"
     inkscape:snap-intersection-paths="true"
     inkscape:object-nodes="true"
     inkscape:snap-smooth-nodes="true"
     inkscape:snap-midpoints="true" />
  <metadata
     id="metadata6928">
    <rdf:RDF>
      <cc:Work
         rdf:about="">
        <dc:format>image/svg+xml</dc:format>
        <dc:type
           rdf:resource="http://purl.org/dc/dcmitype/StillImage" />
        <dc:title />
      </cc:Work>
    </rdf:RDF>
  </metadata>
  <g
     inkscape:label="Layer 1"
     inkscape:groupmode="layer"
     id="layer1"
     transform="translate(-44.214061,-375.93602)">
    <path
       style="fill:#ffffff;fill-opacity:1"
       d="m 316.46886,407.11637 -65.073,28.92252 0,43.3784 c 0,40.16336 27.72938,77.61608 65.073,86.76218 37.34363,-9.1461 65.06761,-46.59882 65.06761,-86.76218 l 0,-43.3784 -65.06761,-28.92252 z m 0,15.83542 0,63.62309 50.61175,0 c -3.83197,29.78813 -23.67952,56.32381 -50.61175,64.60232 l 0,-64.532 -50.61171,0 0,-41.20892 50.61171,-22.48449 z m 12.16198,4.11712 35.44173,22.95516 0,9.36493 -35.44173,22.95517 0,-12.21065 24.32933,-15.24575 0,-0.36788 -24.32933,-15.24034 0,-12.21064 z m -23.10125,64.85118 0,12.21607 -24.33474,15.24032 0,0.36788 24.33474,15.24574 0,12.21065 -35.44173,-22.95516 0,-9.36493 35.44173,-22.96057 z"
       id="path4"
       inkscape:connector-curvature="0" />
    <g
       id="g4871"
       transform="translate(40.081133,73.692632)">
      <g
         id="flowRoot4242"
         style="font-style:normal;font-weight:normal;font-size:40px;line-height:125%;font-family:sans-serif;letter-spacing:0px;word-spacing:0px;fill:#ffffff;fill-opacity:1;stroke:none;stroke-width:1px;stroke-linecap:butt;stroke-linejoin:miter;stroke-opacity:1"
         transform="matrix(1.9394448,0,0,1.9394448,-114.49185,425.15251)">
        <path
           id="path4251"
           style="font-style:normal;font-variant:normal;font-weight:bold;font-stretch:normal;font-family:Transformers;-inkscape-font-specification:'Transformers Bold';fill:#ffffff"
           d="m 61.164297,102.43458 0,-24.960005 6.76,0 0,9.88 6.2,0.04 0,-9.96 6.8,0 0,0.04 0.04,0 -0.04,0.12 0,13.8 -0.04,0 0,5.6 0.08,0 -0.08,0.24 0,5.200005 -6.76,0 0,-9.840005 -6.2,0 0,9.840005 -6.76,0 z"
           inkscape:connector-curvature="0" />
        <path
           id="path4253"
           style="font-style:normal;font-variant:normal;font-weight:bold;font-stretch:normal;font-family:Transformers;-inkscape-font-specification:'Transformers Bold';fill:#ffffff"
           d="m 82.212422,102.39458 9.12,-25.120005 7.28,0 8.599998,25.120005 -14.079998,0 0,-5.320005 5.48,0 -3.64,-11.28 -5.96,16.600005 -6.8,0 z"
           inkscape:connector-curvature="0" />
        <path
           id="path4255"
           style="font-style:normal;font-variant:normal;font-weight:bold;font-stretch:normal;font-family:Transformers;-inkscape-font-specification:'Transformers Bold';fill:#ffffff"
           d="m 128.10805,77.474575 -1.96,5.36 -11.04,0 0,14.2 13,-0.04 -1.92,5.440005 -15.96,0 q -0.56,-0.56 -1.08,-1 -0.52,-0.44 -0.84,-1.32 l 0,-20.680005 q 0.32,-0.88 0.84,-1.24 0.52,-0.4 1.08,-0.72 l 17.88,0 z"
           inkscape:connector-curvature="0" />
        <path
           id="path4257"
           style="font-style:normal;font-variant:normal;font-weight:bold;font-stretch:normal;font-family:Transformers;-inkscape-font-specification:'Transformers Bold';fill:#ffffff"
           d="m 139.88555,90.274575 10.32,12.160005 -7.96,0 -6.24,-6.760005 0,0.04 0,6.720005 -6.72,0 0,-7.960005 -0.04,-0.04 0.04,-0.04 0,-16.92 6.76,0 -0.04,7.12 4.92,-7.16 8.08,0 -0.2,0.24 0.12,0 -9.04,12.6 z"
           inkscape:connector-curvature="0" />
        <path
           id="path4259"
           style="font-style:normal;font-variant:normal;font-weight:bold;font-stretch:normal;font-family:Transformers;-inkscape-font-specification:'Transformers Bold';fill:#ffffff"
           d="m 151.1968,102.39458 9.12,-25.120005 7.28,0 8.6,25.120005 -14.08,0 0,-5.320005 5.48,0 -3.64,-11.28 -5.96,16.600005 -6.8,0 z"
           inkscape:connector-curvature="0" />
        <path
           id="path4261"
           style="font-style:normal;font-variant:normal;font-weight:bold;font-stretch:normal;font-family:Transformers;-inkscape-font-specification:'Transformers Bold';fill:#ffffff"
           d="m 190.49242,99.274575 0.04,11.000005 -6.8,2.44 -0.04,-10.16 0,-19.880005 -6.48,0 0,-5.24 17.04,0.12 0,5.12 -3.8,0 0,16.6 0.04,0 z"
           inkscape:connector-curvature="0" />
        <path
           id="path4263"
           style="font-style:normal;font-variant:normal;font-weight:bold;font-stretch:normal;font-family:Transformers;-inkscape-font-specification:'Transformers Bold';fill:#ffffff"
           d="m 202.1793,102.47458 -6.8,0 0,-12.040005 -0.04,-0.04 0.04,-0.04 0,-12.88 16.32,-0.04 q 1.48,0 2.36,0.68 0.88,0.68 1.2,2.24 0,2.56 0,4.08 0,1.48 0,2.32 0,0.84 0,1.24 0,0.36 0,0.64 -0.28,1.32 -0.96,2 -0.64,0.68 -1.72,0.88 l 0,0.12 -2.56,0 5.2,10.920005 -7,0 -5.08,-10.840005 0,-4.28 4.96,0 0,-4.64 -6.16,0 0.24,19.680005 z"
           inkscape:connector-curvature="0" />
        <path
           id="path4265"
           style="font-style:normal;font-variant:normal;font-weight:bold;font-stretch:normal;font-family:Transformers;-inkscape-font-specification:'Transformers Bold';fill:#ffffff"
           d="m 219.91492,102.47458 q -2.96,0 -3.56,-2.520005 0.04,-5.24 0.04,-10.04 0,-4.8 -0.04,-9.56 0.32,-1.56 1.2,-2.24 0.88,-0.68 2.36,-0.68 l 12.8,0 q 1.48,0 2.36,0.68 0.88,0.68 1.2,2.24 -0.04,4.76 -0.04,9.56 0,4.8 0.04,10.04 -0.6,2.520005 -3.56,2.520005 l -12.8,0 z m 3.6,-5.480005 5.6,0 0,-14.16 -5.6,0 0,14.16 z"
           inkscape:connector-curvature="0" />
        <path
           id="path4267"
           style="font-style:normal;font-variant:normal;font-weight:bold;font-stretch:normal;font-family:Transformers;-inkscape-font-specification:'Transformers Bold';fill:#ffffff"
           d="m 257.13055,102.43458 -6.76,0 0,-0.12 -0.12,0 0,-19.600005 -6.04,0 -0.08,19.720005 -6.76,0 0,-24.960005 19.8,0 -0.04,24.960005 z"
           inkscape:connector-curvature="0" />
      </g>
      <g
         transform="translate(19.434403,318.65969)"
         style="font-style:normal;font-weight:normal;font-size:40px;line-height:125%;font-family:sans-serif;letter-spacing:11.77000046px;word-spacing:0px;fill:#ffffff;fill-opacity:1;stroke:none;stroke-width:1px;stroke-linecap:butt;stroke-linejoin:miter;stroke-opacity:1"
         id="flowRoot4152">
        <path
           d="m -0.59179687,223.97588 q -4.70703123,0 -7.44140623,3.14453 -2.7148439,3.125 -2.7148439,8.57422 0,5.60547 2.6171876,8.67187 2.6367188,3.04688 7.50000003,3.04688 2.98828127,0 6.81640627,-1.07422 l 0,2.91016 q -2.96875,1.11328 -7.3242188,1.11328 -6.3085937,0 -9.7460941,-3.82813 -3.417968,-3.82812 -3.417968,-10.8789 0,-4.41407 1.640625,-7.73438 1.660156,-3.32031 4.7656246,-5.11719 3.125,-1.79687 7.34375003,-1.79687 4.49218747,0 7.85156247,1.64062 l -1.40625,2.85157 q -3.2421875,-1.52344 -6.48437497,-1.52344 z"
           style="font-style:normal;font-variant:normal;font-weight:normal;font-stretch:normal;font-family:'Open Sans';-inkscape-font-specification:'Open Sans';letter-spacing:0px;fill:#ffffff"
           id="path4161" />
        <path
           d="m 12.416016,249.97197 0,-28.55469 3.320312,0 0,28.55469 -3.320312,0 z"
           style="font-style:normal;font-variant:normal;font-weight:normal;font-stretch:normal;font-family:'Open Sans';-inkscape-font-specification:'Open Sans';letter-spacing:0px;fill:#ffffff"
           id="path4163" />
        <path
           d="m 35.814453,223.97588 q -4.707031,0 -7.441406,3.14453 -2.714844,3.125 -2.714844,8.57422 0,5.60547 2.617188,8.67187 2.636718,3.04688 7.5,3.04688 2.988281,0 6.816406,-1.07422 l 0,2.91016 q -2.96875,1.11328 -7.324219,1.11328 -6.308594,0 -9.746094,-3.82813 -3.417968,-3.82812 -3.417968,-10.8789 0,-4.41407 1.640625,-7.73438 1.660156,-3.32031 4.765625,-5.11719 3.125,-1.79687 7.34375,-1.79687 4.492187,0 7.851562,1.64062 l -1.40625,2.85157 q -3.242187,-1.52344 -6.484375,-1.52344 z"
           style="font-style:normal;font-variant:normal;font-weight:normal;font-stretch:normal;font-family:'Open Sans';-inkscape-font-specification:'Open Sans';letter-spacing:0px;fill:#ffffff"
           id="path4165" />
        <path
           d="m 57.611328,249.97197 -3.320312,0 0,-25.60547 -9.042969,0 0,-2.94922 21.40625,0 0,2.94922 -9.042969,0 0,25.60547 z"
           style="font-style:normal;font-variant:normal;font-weight:normal;font-stretch:normal;font-family:'Open Sans';-inkscape-font-specification:'Open Sans';letter-spacing:0px;fill:#ffffff"
           id="path4167" />
      </g>
    </g>
    <path
       style="fill:#ffffff"
       d="m 148.06617,565.57732 c -6.94444,-0.24739 -13.20459,-1.26432 -20.066,-3.25964 -6.1668,-1.79329 -13.16723,-4.91834 -18.69512,-8.3456 -3.852,-2.38821 -6.7494,-4.50166 -10.33168,-7.53624 -2.41675,-2.0472 -6.222495,-5.85471 -8.252615,-8.2564 -4.841815,-5.72797 -8.233956,-10.93076 -11.440564,-17.54727 -1.581703,-3.26367 -3.420854,-8.04831 -4.426363,-11.51531 -2.024568,-6.98098 -2.986638,-13.05415 -3.238238,-20.44218 -0.220114,-6.4634 0.620796,-14.3278 2.211615,-20.68374 1.098316,-4.38799 2.077526,-7.39066 3.756215,-11.51783 2.497841,-6.14108 6.30687,-12.73478 10.389151,-17.98437 2.483035,-3.19303 3.951912,-4.85745 6.800319,-7.70545 2.14709,-2.14681 2.8582,-2.81102 4.37967,-4.09079 3.63672,-3.05901 6.30067,-4.99737 10.15249,-7.38728 3.2546,-2.01934 7.54796,-4.20416 11.09313,-5.64507 6.81386,-2.76948 12.83933,-4.37125 20.11039,-5.34603 3.76911,-0.5053 8.56885,-0.75114 12.19076,-0.62443 7.36158,0.25758 13.43256,1.22987 20.4755,3.27927 3.48321,1.01358 8.18107,2.82693 11.45576,4.42196 6.66644,3.247 11.80475,6.60102 17.48995,11.4165 2.39755,2.03073 6.27741,5.91231 8.28666,8.29033 3.90623,4.62306 7.12995,9.30086 9.58964,13.91509 3.44751,6.46718 5.6842,12.32096 7.39902,19.36433 1.53138,6.28983 2.33349,13.99929 2.11596,20.33739 -0.25369,7.39221 -1.22602,13.47929 -3.27973,20.53203 -1.01686,3.49215 -2.81688,8.15686 -4.41826,11.44993 -3.23933,6.66132 -6.58737,11.78712 -11.45044,17.53029 -2.0415,2.41098 -5.9202,6.28738 -8.29259,8.28767 -5.74513,4.84401 -10.97255,8.24703 -17.57894,11.44373 -5.79905,2.80604 -13.28709,5.22549 -19.6887,6.36156 -4.30608,0.76418 -7.7496,1.12219 -12.19595,1.26803 -2.13856,0.0701 -2.28637,0.0698 -4.54104,-0.0104 z m 5.48167,-5.24501 c 14.96927,-0.64487 28.84286,-5.52523 40.84264,-14.36737 4.5901,-3.38227 9.28626,-7.82199 12.93538,-12.22912 5.56362,-6.71925 9.83464,-14.22145 12.75153,-22.39823 3.70956,-10.39899 5.02032,-21.78569 3.78781,-32.90526 -1.4772,-13.32719 -6.60138,-26.05285 -14.76238,-36.66176 -2.09201,-2.71947 -3.78716,-4.63986 -6.40925,-7.26087 -1.89528,-1.89448 -3.20337,-3.10479 -4.80561,-4.44639 -16.25261,-13.6088 -37.40436,-19.51276 -58.51467,-16.33288 -5.45309,0.82142 -11.06989,2.35132 -16.21802,4.4175 -8.02433,3.22052 -15.21869,7.69224 -21.82946,13.56838 -1.13056,1.0049 -4.67952,4.55386 -5.68442,5.68442 -5.992005,6.74116 -10.505764,14.05848 -13.745769,22.28356 -5.397442,13.70189 -6.533651,28.91707 -3.240975,43.39946 2.635092,11.59025 8.096475,22.43408 15.864004,31.49893 2.37052,2.76644 5.33746,5.73334 8.10458,8.10458 9.05476,7.75924 19.91268,13.22711 31.49543,15.86051 6.34765,1.44319 13.05418,2.05916 19.42918,1.78454 z m -5.44925,-0.82099 c -9.24681,-0.3394 -17.99326,-2.29124 -26.33809,-5.87763 -10.6056,-4.558 -20.10992,-11.70423 -27.50134,-20.67797 -8.489304,-10.30665 -14.000872,-22.77106 -15.862393,-35.87266 -3.006479,-21.15999 3.188096,-42.2149 17.147103,-58.2818 6.97583,-8.02925 15.75185,-14.52111 25.442,-18.82016 11.06978,-4.91113 23.27326,-6.98956 35.38393,-6.02645 8.24904,0.65603 16.25113,2.68467 23.77564,6.0275 20.4733,9.09539 35.74429,27.24821 41.15254,48.91859 3.88918,15.5835 2.54254,32.06128 -3.81931,46.73367 -4.60392,10.61809 -11.7538,20.06128 -20.80448,27.47752 -11.4571,9.3881 -25.64173,15.08527 -40.36928,16.21414 -2.55854,0.19609 -5.87218,0.27091 -8.20632,0.18525 z m 6.35749,-1.38707 c 12.9129,-0.73042 25.06824,-4.78035 35.71209,-11.89859 4.19995,-2.80877 7.3452,-5.39459 10.9666,-9.01596 3.62368,-3.62368 6.25687,-6.82773 9.03942,-10.99903 6.6142,-9.91537 10.599,-21.19277 11.67883,-33.05235 0.21687,-2.38209 0.28305,-3.9059 0.28305,-6.51967 0,-2.60505 -0.0654,-4.11971 -0.28172,-6.51963 -1.94351,-21.56838 -13.68964,-41.15406 -31.92449,-53.23144 -13.82117,-9.15409 -30.3162,-13.18042 -46.89435,-11.44665 -14.02904,1.46718 -27.36645,7.12876 -38.29844,16.25726 -1.7592,1.46898 -2.83082,2.45591 -4.74436,4.36944 -3.62069,3.62069 -6.204013,6.76278 -9.016354,10.96661 -9.257841,13.83836 -13.35349,30.46481 -11.610349,47.13262 1.467145,14.02875 7.128938,27.36671 16.257263,38.29848 1.46898,1.7592 2.4559,2.83082 4.36944,4.74436 1.91354,1.91354 2.98516,2.90046 4.74436,4.36945 11.93001,9.96184 26.61734,15.74015 42.0641,16.54885 0.73142,0.0383 1.63639,0.079 2.01102,0.0905 1.05984,0.0324 4.38595,-0.0231 5.64389,-0.0942 z m -6.55919,-7.47302 c -0.62728,-1.82859 -1.12123,-3.34703 -1.09763,-3.37437 0.0234,-0.0274 0.24144,-0.0274 0.48418,0 l 0.44135,0.0496 0.91534,2.70841 c 0.50346,1.48963 0.93325,2.7084 0.95508,2.7084 0.022,0 0.53635,-1.18956 1.14335,-2.64352 l 1.10364,-2.64353 0.28374,-0.0205 c 0.15607,-0.0116 0.37553,-0.004 0.48768,0.0177 l 0.20398,0.0383 -1.36819,3.24223 -1.36814,3.24224 -0.52194,0 -0.52194,0 -1.1405,-3.3247 z m 6.9429,3.10322 c -0.8367,-0.14854 -0.83525,-0.14713 -0.83695,-0.79793 l 0,-0.33829 0.27754,0.11896 c 0.39754,0.17044 1.15048,0.33054 1.55426,0.33054 0.42499,0 1.06362,-0.15736 1.28208,-0.31591 0.41987,-0.30475 0.56888,-0.84422 0.36573,-1.3242 -0.17952,-0.42409 -0.51992,-0.58019 -1.51092,-0.69277 -1.60285,-0.18211 -2.211,-0.61157 -2.33273,-1.64731 -0.1178,-1.00213 0.51614,-1.78874 1.65517,-2.05389 0.45089,-0.10498 1.40273,-0.10444 1.99308,0 l 0.46228,0.0826 0.0431,0.42089 c 0.0238,0.2315 0.0292,0.43479 0.0122,0.45176 -0.017,0.017 -0.17144,-0.0152 -0.34322,-0.071 -0.84216,-0.27458 -1.66805,-0.277 -2.27303,-0.006 -0.42104,0.18816 -0.60117,0.45561 -0.60153,0.89322 0,0.66319 0.26231,0.83853 1.49032,0.9943 1.36544,0.17318 1.89055,0.42223 2.2396,1.06215 0.17786,0.32607 0.19461,0.4103 0.19461,0.97817 0,0.57824 -0.0137,0.64356 -0.19651,0.94063 -0.38606,0.62724 -1.18496,0.98134 -2.32831,1.03199 -0.39466,0.0173 -0.84898,-0.006 -1.14597,-0.0584 z m -12.45965,-0.471 -0.49626,-0.0955 -0.0392,-0.56287 c -0.0216,-0.30956 -0.0839,-1.54078 -0.13841,-2.73603 -0.0545,-1.1953 -0.10553,-2.24621 -0.11327,-2.33541 -0.009,-0.10627 -0.33684,0.54259 -0.94992,1.8813 -0.51474,1.12389 -1.05945,2.30982 -1.21046,2.63542 l -0.27459,0.59194 -0.52003,-0.10541 c -0.28601,-0.058 -0.54057,-0.1262 -0.56568,-0.15164 -0.0361,-0.0364 -0.40546,-5.91292 -0.41566,-6.61149 l -0.004,-0.17048 0.42244,0.0794 c 0.23237,0.0437 0.44124,0.0982 0.46419,0.12112 0.0231,0.0231 0.10891,1.27174 0.19101,2.77506 0.0821,1.50331 0.15858,2.74271 0.17004,2.75416 0.0116,0.0116 0.54435,-1.11607 1.1842,-2.50555 0.63985,-1.3895 1.19375,-2.52536 1.23082,-2.5241 0.13906,0.005 0.88684,0.17923 0.92304,0.2154 0.0206,0.0209 0.10495,1.26781 0.1872,2.77127 0.0822,1.50346 0.15855,2.74246 0.1696,2.7533 0.0111,0.0108 0.54565,-1.11827 1.18787,-2.50915 l 1.16771,-2.52889 0.19461,0.0389 c 0.10703,0.0213 0.30409,0.0564 0.43789,0.0779 0.1338,0.0213 0.24343,0.0718 0.24364,0.11179 0,0.14075 -2.82308,6.13758 -2.88721,6.13146 -0.0356,-0.004 -0.28816,-0.0492 -0.5611,-0.10174 z m 19.42398,0.0427 c -0.896,-0.18487 -1.47244,-0.7815 -1.72714,-1.78759 -0.0535,-0.2115 -0.23099,-1.24577 -0.39437,-2.29833 -0.16338,-1.05252 -0.31137,-1.97676 -0.32884,-2.05385 -0.0292,-0.12833 0.007,-0.14667 0.42626,-0.21742 0.25195,-0.0425 0.4667,-0.067 0.47722,-0.0545 0.0104,0.0126 0.15509,0.89859 0.32135,1.96895 0.3324,2.14011 0.43839,2.65242 0.62404,3.01628 0.27775,0.54449 0.84844,0.77751 1.57947,0.64493 0.72603,-0.13164 1.09342,-0.41386 1.25291,-0.96238 0.13012,-0.44762 0.10652,-0.70585 -0.29383,-3.21778 l -0.31022,-1.94618 0.44978,-0.0849 c 0.24735,-0.0468 0.45778,-0.0759 0.46762,-0.0649 0.0684,0.0768 0.68243,4.33389 0.68218,4.72924 0,0.87048 -0.29826,1.48375 -0.91113,1.87704 -0.56819,0.36458 -1.68283,0.58192 -2.3153,0.4514 z m -30.37211,-4.83193 c -0.36447,-0.4103 -0.69727,-0.74592 -0.73957,-0.74577 -0.0423,0 -0.51372,0.0863 -1.04766,0.19148 -0.53393,0.10519 -0.97857,0.18351 -0.98804,0.17403 -0.009,-0.009 0.20466,-0.39487 0.4759,-0.85643 0.27123,-0.46156 0.50584,-0.87182 0.52136,-0.91171 0.0155,-0.0399 -0.19619,-0.47154 -0.47038,-0.95929 -0.27423,-0.48771 -0.48344,-0.90193 -0.46492,-0.92045 0.0187,-0.0184 0.47774,0.0619 1.02046,0.17876 l 0.98679,0.21248 0.26604,-0.2899 c 0.90839,-0.98981 1.1552,-1.24501 1.18002,-1.22019 0.0155,0.0155 0.0729,0.47669 0.12789,1.02529 0.055,0.54856 0.10923,1.00663 0.12051,1.01791 0.0111,0.0111 0.42629,0.20797 0.92226,0.43709 0.49593,0.22909 0.90939,0.44117 0.91879,0.47122 0.009,0.0299 -0.39361,0.22984 -0.89562,0.44395 -0.50199,0.21406 -0.92313,0.40568 -0.93585,0.42578 -0.0126,0.0202 -0.0747,0.49449 -0.13772,1.05418 -0.0631,0.55966 -0.13326,1.01758 -0.1561,1.01758 -0.0227,0 -0.33969,-0.33568 -0.70416,-0.74601 z m 38.01665,-0.47032 c -0.0445,-0.4906 -0.096,-0.95472 -0.11431,-1.03137 -0.0256,-0.10632 -0.24876,-0.23655 -0.94052,-0.54846 -0.49895,-0.22498 -0.91923,-0.42853 -0.93393,-0.45231 -0.0148,-0.0238 0.39319,-0.228 0.90637,-0.45377 l 0.93314,-0.41048 0.11514,-1.02507 c 0.0634,-0.56377 0.13685,-1.02504 0.1634,-1.02504 0.0267,0 0.34773,0.33493 0.71375,0.74429 0.53033,0.5932 0.6927,0.73763 0.79963,0.71133 0.0738,-0.018 0.53761,-0.11669 1.03065,-0.21897 0.72516,-0.15041 0.88954,-0.16777 0.86004,-0.0909 -0.0202,0.0523 -0.24105,0.44744 -0.49103,0.87809 -0.25001,0.43069 -0.45457,0.81144 -0.45457,0.84614 0,0.0345 0.22285,0.455 0.49521,0.93407 0.27235,0.47907 0.4835,0.88274 0.4692,0.89708 -0.0206,0.0205 -1.30417,-0.2376 -1.88742,-0.37939 -0.078,-0.0191 -0.32452,0.20722 -0.81091,0.74414 -0.38435,0.42428 -0.71547,0.77167 -0.73582,0.77204 -0.0205,0 -0.0735,-0.40079 -0.11802,-0.89139 z m 7.51813,0.4541 c 7e-5,-0.0624 0.13142,-0.98829 0.29191,-2.05742 0.16053,-1.06914 0.29185,-2.02183 0.29185,-2.11712 0,-0.0952 -0.30651,-0.81101 -0.68118,-1.59054 -0.37463,-0.77955 -0.68114,-1.44995 -0.68114,-1.4898 0,-0.0596 0.72664,-0.41707 0.8465,-0.41642 0.0195,0 0.35291,0.66957 0.74076,1.48776 l 0.70513,1.4876 1.90281,1.11489 c 1.04654,0.61315 1.90279,1.12721 1.90279,1.14226 0,0.0152 -0.20678,0.12645 -0.45946,0.24757 l -0.45944,0.22019 -0.52987,-0.31253 c -2.43324,-1.43518 -2.41007,-1.42279 -2.4496,-1.31158 -0.0213,0.0596 -0.13726,0.81915 -0.25801,1.68802 l -0.21954,1.57976 -0.43775,0.22044 c -0.50861,0.25614 -0.50587,0.25557 -0.50576,0.10692 z m -54.78461,-0.90481 c -0.79924,-0.10599 -1.76159,-0.58827 -2.36041,-1.18291 -0.236,-0.23435 -0.47124,-0.50774 -0.5228,-0.60761 -0.0878,-0.16993 -0.0792,-0.21093 0.13477,-0.6436 l 0.22851,-0.46214 0.14857,0.30695 c 0.37279,0.77004 1.06128,1.35092 1.905,1.60721 0.97331,0.29563 1.82434,-0.0101 2.50195,-0.89873 0.26508,-0.34761 0.68268,-1.24851 0.7868,-1.69732 0.11964,-0.51545 0.0555,-1.20422 -0.14944,-1.60681 -0.47896,-0.94063 -1.86176,-1.54179 -3.01355,-1.31011 -0.25866,0.052 -0.47031,0.074 -0.47031,0.0487 0,-0.0252 0.0904,-0.23892 0.20074,-0.47485 l 0.20073,-0.42896 0.54212,0 c 0.7391,0 1.12508,0.0905 1.83154,0.4295 1.94355,0.93252 2.4598,2.82383 1.34812,4.93894 -0.58196,1.10718 -1.4567,1.79217 -2.50145,1.95879 -0.42694,0.0681 -0.46303,0.0691 -0.81089,0.0231 z m 60.89196,-3.11619 -0.26767,-0.43897 0.72916,-0.0402 c 0.83385,-0.046 1.25063,-0.17649 1.8567,-0.5812 0.47376,-0.31634 0.82336,-0.69666 1.00183,-1.08974 0.20156,-0.44391 0.18604,-1.20221 -0.0356,-1.74515 -0.37618,-0.92111 -1.0544,-1.77754 -1.68369,-2.12617 -0.31127,-0.17242 -0.40306,-0.19115 -0.93671,-0.19115 -0.56755,0 -0.61373,0.0111 -1.13524,0.27581 -0.53383,0.27085 -1.18477,0.79898 -1.37914,1.11896 -0.095,0.15631 -0.0808,0.19065 0.39103,0.95075 l 0.48952,0.78857 0.60811,-0.38314 c 0.33446,-0.21071 0.6347,-0.38309 0.66716,-0.38309 0.0324,0 0.14918,0.13852 0.25931,0.30784 0.15509,0.23838 0.18243,0.32412 0.12123,0.37993 -0.115,0.10483 -1.99273,1.25866 -2.0455,1.25693 -0.0245,0 -0.40021,-0.57706 -0.83483,-1.28057 l -0.79019,-1.27909 0.20398,-0.38991 c 0.42093,-0.80456 1.57094,-1.76154 2.54475,-2.11761 0.56683,-0.20727 1.53819,-0.20982 2.07529,-0.006 0.86721,0.32992 1.65001,1.11975 2.17905,2.19865 0.53433,1.08974 0.5651,2.02719 0.0976,2.97323 -0.55393,1.12079 -1.99277,2.02122 -3.51661,2.2007 l -0.33176,0.0391 -0.26764,-0.43898 z m -67.78749,-0.57237 c -1.09237,-0.29404 -1.97198,-1.04936 -2.35738,-2.02429 -0.12122,-0.30661 -0.14734,-0.49823 -0.1481,-1.08592 0,-0.65231 0.017,-0.75827 0.20672,-1.23416 0.75488,-1.89243 2.35723,-3.03441 3.88947,-2.77193 0.62584,0.10718 1.41379,0.51654 1.87783,0.97554 1.02018,1.00912 1.20248,2.36981 0.51013,3.80805 -0.85791,1.78223 -2.48332,2.73519 -3.97867,2.33271 z m 1.12303,-0.90162 c 1.21063,-0.36436 2.42596,-2.24504 2.27592,-3.5219 -0.0803,-0.68319 -0.50955,-1.27942 -1.17124,-1.62685 -0.27887,-0.14641 -0.40895,-0.17199 -0.87873,-0.17278 -0.47796,0 -0.60238,0.0241 -0.93379,0.18683 -0.68845,0.33803 -1.42683,1.23345 -1.80676,2.1909 -0.10209,0.25729 -0.13844,0.49564 -0.14176,0.92986 -0.004,0.51423 0.0173,0.62821 0.17829,0.95612 0.23838,0.48541 0.76951,0.91768 1.34128,1.09161 0.27015,0.0822 0.80423,0.0663 1.13679,-0.0338 z m 31.52673,-0.52896 c -3.42471,-0.20632 -5.91959,-0.52036 -8.73892,-1.10001 -9.01153,-1.85273 -17.44816,-5.92457 -24.50804,-11.82848 -2.36681,-1.97929 -5.02442,-4.63701 -7.01221,-7.01262 -7.10476,-8.49074 -11.50389,-18.88515 -12.67066,-29.93851 -0.22422,-2.12436 -0.265,-3.03761 -0.265,-5.9358 0,-2.89815 0.0408,-3.81144 0.265,-5.9358 1.16741,-11.05937 5.54968,-21.41365 12.67098,-29.93847 1.97036,-2.35871 4.63643,-5.02482 7.01189,-7.01207 7.05631,-5.9031 15.49964,-9.97839 24.50804,-11.82921 2.38057,-0.48908 4.39426,-0.76796 7.37661,-1.02158 1.3239,-0.11258 6.60249,-0.11297 7.97928,0 3.71025,0.3029 6.43205,0.74047 9.76325,1.56967 7.25895,1.80694 14.33598,5.22956 20.28957,9.8126 3.31386,2.55094 6.55116,5.68056 9.14213,8.838 6.94869,8.46793 11.22246,18.68611 12.37254,29.58167 0.22426,2.12436 0.265,3.03765 0.265,5.93581 0,2.89819 -0.0407,3.81144 -0.265,5.93579 -1.57126,14.88567 -8.97428,28.4048 -20.67613,37.75799 -6.19331,4.95033 -13.51168,8.5784 -21.12811,10.47428 -3.22956,0.80392 -5.80205,1.22769 -9.27672,1.52814 -1.12681,0.0974 -6.08408,0.1806 -7.1035,0.11921 z m 5.64388,-1.45137 c 9.95948,-0.60663 18.99756,-3.61301 27.12805,-9.02371 13.39048,-8.91112 22.22494,-23.37178 23.95551,-39.21151 0.26079,-2.38698 0.29375,-3.07472 0.29375,-6.12883 0,-3.05407 -0.0328,-3.74184 -0.29375,-6.12879 -1.22653,-11.22628 -6.08481,-21.97468 -13.75287,-30.42666 -7.7521,-8.5446 -17.87309,-14.35442 -29.15679,-16.73716 -2.67577,-0.56502 -5.25366,-0.89931 -8.30229,-1.07656 -1.4821,-0.0862 -5.68395,-0.0444 -7.00753,0.0696 -4.96261,0.42759 -9.12447,1.28126 -13.46098,2.76097 -9.84675,3.35994 -18.44658,9.42068 -25.02393,17.63572 -6.33183,7.90839 -10.39898,17.73467 -11.49582,27.77405 -0.26191,2.39722 -0.29444,3.07407 -0.29444,6.1288 0,3.05475 0.0324,3.7316 0.29444,6.12882 1.40928,12.89939 7.54623,24.98776 17.22177,33.92306 7.30259,6.74389 16.42428,11.39495 26.14198,13.32953 2.68226,0.53397 4.87197,0.80697 8.04414,1.00288 0.81828,0.0506 4.77704,0.0365 5.70876,-0.0202 z m -5.44927,-1.01744 c -3.90684,-0.2382 -6.34228,-0.57039 -9.50375,-1.29631 -4.18553,-0.96102 -7.78399,-2.24411 -11.70942,-4.17519 -10.99132,-5.40709 -19.93576,-14.64969 -25.00515,-25.83865 -6.1588,-13.59345 -6.33234,-29.27236 -0.47579,-42.99013 3.98246,-9.3282 10.67732,-17.46895 19.05858,-23.17473 10.43306,-7.10257 22.84758,-10.25309 35.45263,-8.99701 16.50022,1.64421 31.27654,10.90349 40.08532,25.11852 7.7352,12.48268 9.93972,27.8812 6.03422,42.14902 -4.40828,16.10458 -16.25881,29.32358 -31.83908,35.51578 -5.33439,2.12007 -10.98119,3.347 -16.87536,3.66669 -1.07795,0.0585 -4.39498,0.0725 -5.2222,0.022 z m 3.17649,-6.28399 c 0.54856,-0.14287 0.97997,-0.39635 1.43187,-0.84123 0.66756,-0.65718 1.0031,-1.42039 1.0031,-2.28158 0,-0.44689 -0.2984,-1.87348 -0.54049,-2.58383 -0.36339,-1.06647 -0.98307,-2.05656 -1.86346,-2.97745 -0.86552,-0.90536 -1.78817,-1.50825 -2.91556,-1.90518 -1.21911,-0.42921 -2.08221,-0.51808 -3.9572,-0.40741 -0.83288,0.0491 -1.79678,0.0611 -2.57919,0.032 l -1.24933,-0.0463 -0.58189,-1.79285 c -0.55641,-1.71436 -0.77458,-2.21522 -1.08387,-2.48862 -0.0712,-0.063 -0.50623,-0.33021 -0.96667,-0.59384 l -0.83717,-0.47932 -0.0435,-0.29996 c -0.0238,-0.16495 -0.11737,-0.42597 -0.20762,-0.57994 -0.67674,-1.1548 -2.43457,-0.94318 -2.80701,0.33793 -0.13062,0.4493 -0.0767,0.80311 0.19022,1.24752 0.40028,0.66659 1.22703,0.89798 1.97086,0.55166 l 0.3355,-0.1562 0.76735,0.4233 c 0.422,0.23284 0.81558,0.47129 0.87463,0.52987 0.10235,0.10166 0.32513,0.76965 0.76522,2.29455 0.11045,0.38276 0.21695,0.73787 0.23662,0.78913 0.0288,0.0749 -0.0195,0.087 -0.24476,0.0616 -0.82344,-0.0926 -2.7257,-0.44088 -3.49171,-0.63924 -1.03106,-0.26698 -3.11316,-0.93108 -3.11547,-0.9937 0,-0.0241 -0.11553,-0.84166 -0.25474,-1.81717 -0.3243,-2.27224 -0.31601,-2.25344 -1.36922,-3.11395 l -0.76691,-0.62656 -0.004,-0.36558 c -0.013,-1.21461 -1.35068,-1.94056 -2.34329,-1.2716 -0.12004,0.0809 -0.306,0.27196 -0.41328,0.4246 -0.16018,0.2279 -0.19916,0.35535 -0.21782,0.71262 -0.0198,0.37589 0.004,0.48364 0.16021,0.79188 0.37359,0.72855 1.15415,0.99654 1.97972,0.67974 0.11603,-0.0445 1.51292,1.06574 1.57085,1.24854 0.0435,0.13751 0.36895,2.8226 0.34495,2.8466 -0.0749,0.0749 -2.54863,-1.10898 -3.74501,-1.79232 -0.96224,-0.54964 -3.82434,-2.44484 -3.86937,-2.56225 -0.0173,-0.045 0.0873,-0.74922 0.23237,-1.56481 0.28475,-1.60055 0.31836,-2.10209 0.16546,-2.46804 -0.054,-0.12927 -0.2882,-0.53311 -0.52043,-0.89736 l -0.42221,-0.66234 0.0973,-0.37344 c 0.17833,-0.68466 -0.0735,-1.28731 -0.67476,-1.61452 -0.29595,-0.16107 -0.39239,-0.18136 -0.75395,-0.1583 -0.76796,0.0489 -1.29091,0.60901 -1.29091,1.3827 0,0.76763 0.50588,1.3153 1.27168,1.37679 l 0.41346,0.0331 0.4634,0.72609 c 0.37704,0.59079 0.4573,0.76165 0.43072,0.91682 -0.087,0.50691 -0.48768,2.46426 -0.50897,2.48595 -0.0266,0.0274 -0.5554,-0.41397 -1.38623,-1.15751 -0.30053,-0.26892 -0.98657,-1.01325 -1.5245,-1.654 -0.53793,-0.64076 -1.16334,-1.38519 -1.38976,-1.65427 -0.22646,-0.26904 -0.67144,-0.83284 -0.98883,-1.2529 l -0.57714,-0.76367 0.82017,-1.63657 c 0.77574,-1.54806 0.8216,-1.66115 0.84728,-2.09072 0.0227,-0.37657 -0.0115,-0.59035 -0.19936,-1.25239 l -0.22656,-0.79833 0.20073,-0.32293 c 0.61766,-0.99362 -0.0209,-2.1936 -1.16965,-2.19839 -0.93148,-0.004 -1.60166,0.86101 -1.37247,1.7712 0.0956,0.37959 0.42763,0.76597 0.78529,0.91386 0.15466,0.0639 0.32272,0.1369 0.37348,0.16218 0.10015,0.0499 0.51315,1.35421 0.51989,1.64184 0.004,0.15282 -0.917,1.983 -1.23407,2.45338 -0.10252,0.1521 -0.10404,0.15063 -0.37394,-0.36282 -0.14908,-0.28351 -0.63409,-1.2632 -1.07778,-2.17702 -1.77481,-3.65513 -2.69951,-5.95425 -3.01405,-7.49388 -0.16803,-0.82243 -0.49096,-3.06258 -0.44773,-3.10581 0.0191,-0.0191 0.27491,-0.0532 0.56856,-0.0758 0.54316,-0.0419 0.71806,-0.12332 0.71734,-0.33389 -1.8e-4,-0.0599 -0.49787,-0.80953 -1.10591,-1.66582 -1.03974,-1.4642 -1.11763,-1.55693 -1.30813,-1.55693 -0.20196,0 -0.20498,0.006 -1.00786,1.75153 -0.95366,2.07436 -0.955,2.08456 -0.27235,2.06222 0.23024,-0.008 0.52879,-0.0299 0.66349,-0.0496 0.16737,-0.0245 0.25268,-0.0101 0.26943,0.0461 0.0133,0.0452 0.11654,0.70977 0.22902,1.47687 0.22325,1.52262 0.40046,2.34555 0.71928,3.34037 0.27067,0.84451 0.90234,2.41534 1.45537,3.61921 0.24227,0.52738 0.42319,0.97619 0.40204,0.99734 -0.0213,0.0213 -0.66006,-0.007 -1.41976,-0.0618 l -1.3813,-0.1003 -0.32438,-0.34851 c -0.17839,-0.19169 -0.44758,-0.49625 -0.59824,-0.67685 l -0.27386,-0.3283 0.25765,-0.20708 c 0.4019,-0.32297 0.37239,-0.40385 -0.53083,-1.4558 -0.65938,-0.76795 -0.81779,-0.91836 -0.96715,-0.91836 -0.27081,0 -2.00692,1.49049 -2.00692,1.723 0,0.11953 0.22318,0.42805 0.78644,1.08704 0.8787,1.02802 0.93443,1.05804 1.35165,0.72761 l 0.24302,-0.19245 0.59493,0.67465 c 0.32719,0.37107 0.69126,0.7342 0.80903,0.80701 0.31217,0.19292 0.67177,0.2502 2.46797,0.39319 0.88807,0.0707 1.62484,0.13862 1.63723,0.15102 0.0123,0.0123 0.3573,0.69187 0.76648,1.50997 1.04903,2.09738 1.90139,3.3964 3.36945,5.13514 0.51563,0.6107 0.54855,0.66625 0.41364,0.69767 -0.0806,0.0187 -0.70012,0.12086 -1.37665,0.22692 -1.40154,0.21969 -1.16399,0.26529 -2.09464,-0.40222 -0.29437,-0.21111 -0.5352,-0.41559 -0.5352,-0.45439 0,-0.0388 0.073,-0.16626 0.16219,-0.2832 0.30615,-0.40136 0.30261,-0.40612 -0.99467,-1.35294 -0.68333,-0.49874 -0.8966,-0.62332 -1.01592,-0.59335 -0.0989,0.0249 -0.40125,0.3768 -0.87546,1.01906 -0.56874,0.77026 -0.71651,1.01286 -0.68744,1.12872 0.0376,0.14972 1.81922,1.50937 2.06045,1.57248 0.0811,0.0213 0.20063,-0.0579 0.37391,-0.24745 l 0.25467,-0.27863 0.47467,0.33525 c 1.11125,0.7849 1.19619,0.82391 1.7721,0.81368 0.28544,-0.005 1.1904,-0.11377 2.01106,-0.24158 l 1.49204,-0.23237 0.22437,0.27401 c 1.10382,1.34819 2.78813,2.75081 5.41952,4.51311 0.7136,0.47792 1.30413,0.88731 1.3123,0.9098 0.0137,0.0378 -1.19284,0.79083 -2.07576,1.29544 l -0.37899,0.21662 -0.87589,-0.21507 c -0.80269,-0.19713 -0.87283,-0.2261 -0.83889,-0.34639 0.10494,-0.37189 0.11128,-0.65754 0.0162,-0.73636 -0.0537,-0.0446 -0.61538,-0.21327 -1.24807,-0.37481 -1.56207,-0.39884 -1.42618,-0.47943 -1.81396,1.07551 -0.23183,0.92967 -0.28838,1.25023 -0.23741,1.34552 0.0516,0.0963 0.34941,0.19645 1.29505,0.43537 1.41732,0.35813 1.44629,0.35525 1.56892,-0.15599 0.043,-0.17915 0.0843,-0.32574 0.0919,-0.32574 0.008,0 0.39145,0.0873 0.85308,0.19385 0.46167,0.10663 0.98534,0.19418 1.16374,0.19458 0.41246,0 0.73161,-0.15005 2.39531,-1.13301 l 1.29252,-0.76364 1.14018,0.58689 c 1.81713,0.93534 3.46725,1.60628 5.60484,2.27906 0.63588,0.20012 1.15271,0.3925 1.1485,0.42752 -0.004,0.0349 -0.54868,0.62558 -1.21,1.31241 l -1.20236,1.2488 -1.06521,0 -1.06517,0 0,-0.40872 c 0,-0.23139 -0.0338,-0.44247 -0.0778,-0.48652 -0.1105,-0.11053 -3.0423,-0.11053 -3.15279,0 -0.056,0.056 -0.0778,0.49734 -0.0778,1.57637 0,1.07904 0.022,1.52035 0.0778,1.57642 0.11359,0.11358 3.07208,0.11052 3.14572,-0.004 0.0288,-0.0446 0.0671,-0.27083 0.0849,-0.50277 l 0.0324,-0.42168 1.13492,-0.0512 c 1.60854,-0.0725 1.48,0 3.38036,-1.94139 l 1.53112,-1.56527 1.03131,0.17314 c 1.80726,0.30341 4.03865,0.49787 5.71269,0.49787 l 0.67736,0 -0.3064,0.56766 c -0.79123,1.46581 -1.28212,2.32942 -1.38634,2.43886 -0.0651,0.0683 -0.52806,0.23914 -1.07907,0.39805 l -0.96513,0.27837 -0.12386,-0.40857 c -0.0834,-0.27516 -0.16817,-0.42863 -0.25949,-0.46996 -0.20354,-0.0921 -2.85575,0.67862 -2.98706,0.86805 -0.0863,0.12439 -0.0583,0.26558 0.30577,1.54596 0.30046,1.05664 0.43174,1.42572 0.52479,1.47551 0.17178,0.0919 2.90352,-0.6828 3.01027,-0.85367 0.0548,-0.0878 0.0488,-0.20779 -0.0248,-0.48941 -0.0536,-0.20516 -0.0736,-0.39437 -0.0445,-0.42045 0.0292,-0.0259 0.46163,-0.17126 0.96113,-0.32272 1.05228,-0.31901 1.30708,-0.43688 1.60289,-0.74144 0.11849,-0.12199 0.53361,-0.78637 0.92254,-1.47637 0.38893,-0.69003 0.85583,-1.51733 1.03755,-1.83846 l 0.33035,-0.58383 0.4536,-0.0501 c 1.38291,-0.15289 3.16924,0.40928 4.26126,1.34102 0.80873,0.69007 1.30963,1.34843 1.77307,2.33039 0.42453,0.89956 0.5749,1.54297 0.57886,2.47673 0.004,0.856 -0.0745,1.10548 -0.46109,1.4724 -0.59417,0.56391 -1.67346,0.475 -2.21842,-0.18283 -0.61997,-0.74833 -0.50303,-2.33583 0.29742,-4.03772 l 0.16359,-0.34786 -0.18654,-0.15653 c -0.1026,-0.0861 -0.35446,-0.27369 -0.55966,-0.41686 l -0.37312,-0.26032 -0.26154,0.40792 c -0.65632,1.02356 -1.01185,2.05825 -1.09864,3.19742 -0.0989,1.29836 0.13773,2.09183 0.85147,2.85485 0.78896,0.84336 1.97003,1.19188 3.0691,0.90562 z m 12.6374,-2.96577 c 0.0652,-0.0493 0.26014,-0.62656 0.49766,-1.47345 0.33569,-1.19695 0.37867,-1.41019 0.30633,-1.51913 -0.061,-0.0919 -0.44845,-0.23071 -1.40969,-0.50509 -0.72905,-0.20804 -1.38768,-0.37834 -1.46358,-0.37837 -0.18215,0 -0.24623,0.0889 -0.38569,0.53567 -0.0876,0.28067 -0.14187,0.3657 -0.2181,0.34192 -0.0558,-0.0173 -0.50789,-0.15023 -1.00454,-0.29516 -0.53018,-0.15473 -0.93648,-0.30928 -0.98407,-0.37438 -0.0745,-0.10191 -0.72617,-1.27337 -1.38786,-2.49489 l -0.27231,-0.50273 0.97385,0 c 1.62961,0 3.94733,-0.21792 5.6793,-0.53394 l 0.77048,-0.14061 1.46761,1.49996 c 0.80719,0.825 1.56978,1.57159 1.69464,1.65913 0.36848,0.25827 0.67358,0.31926 1.81008,0.36188 l 1.07673,0.0404 0.0191,0.43231 c 0.0104,0.23777 0.0545,0.46167 0.0978,0.49762 0.12644,0.10494 2.99791,0.11766 3.12303,0.0136 0.086,-0.0714 0.10105,-0.30066 0.10105,-1.53981 0,-0.87956 -0.0267,-1.50562 -0.0672,-1.58141 -0.0634,-0.11842 -0.15019,-0.12552 -1.53559,-0.12552 -1.74527,0 -1.70571,-0.0144 -1.70571,0.62837 l 0,0.41357 -1.05419,-0.042 -1.05417,-0.042 -0.47518,-0.46275 c -0.97457,-0.94902 -2.03588,-2.11586 -1.94813,-2.1418 0.0483,-0.0144 0.73013,-0.23431 1.5151,-0.48897 1.94362,-0.63052 3.10404,-1.10278 4.87563,-1.98419 l 1.50231,-0.74738 1.31966,0.78204 c 1.73528,1.02839 1.92766,1.12007 2.34473,1.11741 0.2703,0 1.43062,-0.22801 1.93043,-0.37647 0.0757,-0.0223 0.12238,0.0529 0.18557,0.29944 0.13056,0.50937 0.17094,0.51326 1.59097,0.15283 1.00785,-0.25586 1.22728,-0.33238 1.27913,-0.44619 0.0753,-0.16513 -0.47918,-2.47373 -0.63121,-2.62831 -0.0826,-0.084 -0.24703,-0.0575 -1.36364,0.21925 -1.45,0.35939 -1.46758,0.37153 -1.32989,0.91826 0.042,0.16701 0.0676,0.31248 0.0568,0.32325 -0.0662,0.0662 -1.65721,0.421 -1.76331,0.39326 -0.15376,-0.0402 -2.44059,-1.41408 -2.43746,-1.46438 0,-0.0191 0.51935,-0.37444 1.15149,-0.78974 1.29198,-0.84881 2.67883,-1.86437 3.54957,-2.59926 0.57519,-0.48541 1.70563,-1.61114 2.07929,-2.07058 l 0.19123,-0.23513 1.75157,0.26154 c 1.29303,0.19306 1.83395,0.24909 2.06642,0.21396 0.24617,-0.0372 0.49255,-0.16853 1.12937,-0.60192 l 0.81451,-0.55432 0.22209,0.26738 c 0.12217,0.14705 0.27762,0.26738 0.34546,0.26738 0.16524,0 2.054,-1.39945 2.10479,-1.55951 0.0488,-0.15387 0.0877,-0.0894 -0.73366,-1.21425 -0.4327,-0.59255 -0.7284,-0.93817 -0.82293,-0.96192 -0.11608,-0.0292 -0.36365,0.12321 -1.16097,0.71428 -1.10858,0.82185 -1.13883,0.86606 -0.85124,1.24317 0.0892,0.11695 0.16218,0.24023 0.16218,0.27398 0,0.0545 -0.55785,0.496 -1.15451,0.91361 l -0.21385,0.14969 -1.31064,-0.20978 c -0.72085,-0.11536 -1.33541,-0.23215 -1.36574,-0.25953 -0.0302,-0.0274 0.23272,-0.39574 0.58455,-0.81857 1.41815,-1.70445 2.16853,-2.85803 3.24296,-4.98545 0.41444,-0.82063 0.75726,-1.49723 0.76176,-1.50353 0.005,-0.006 0.59176,-0.0581 1.30499,-0.11492 1.90338,-0.15188 2.41794,-0.22055 2.68903,-0.35885 0.13384,-0.0683 0.51582,-0.42493 0.84887,-0.79253 0.33303,-0.36761 0.62916,-0.67812 0.65809,-0.69004 0.0288,-0.0118 0.16204,0.0622 0.2958,0.16461 0.14587,0.11167 0.30107,0.17702 0.38767,0.16327 0.22131,-0.035 1.70499,-1.79016 1.70232,-2.01362 0,-0.14274 -0.16939,-0.31635 -0.93551,-0.96859 -0.63553,-0.54104 -0.9817,-0.79325 -1.08455,-0.79019 -0.20596,0.006 -1.74044,1.79668 -1.74044,2.03088 0,0.10703 0.0857,0.23066 0.26032,0.37575 l 0.26032,0.21622 -0.56045,0.64872 c -0.40507,0.46883 -0.61427,0.66038 -0.75459,0.69075 -0.28756,0.0623 -2.64169,0.20877 -2.68348,0.16698 -0.0198,-0.0198 0.17422,-0.49813 0.43101,-1.06312 0.60945,-1.34077 1.23287,-2.93094 1.51831,-3.87258 0.27711,-0.91422 0.42546,-1.64515 0.65354,-3.22015 0.0956,-0.6601 0.1824,-1.23068 0.19291,-1.26796 0.0129,-0.0463 0.22033,-0.0494 0.65488,-0.01 0.57601,0.0527 0.6437,0.0472 0.72073,-0.0581 0.0467,-0.0639 0.085,-0.149 0.085,-0.18906 0,-0.04 -0.36098,-0.85914 -0.80215,-1.82023 -0.76428,-1.66493 -0.81097,-1.74826 -0.98929,-1.7649 -0.17599,-0.0166 -0.2546,0.0779 -1.31642,1.57973 -1.02792,1.45388 -1.12386,1.61261 -1.0691,1.76903 0.057,0.16295 0.0911,0.17466 0.65895,0.22722 0.52856,0.0489 0.59874,0.07 0.59874,0.18031 0,0.34671 -0.42394,2.90493 -0.58516,3.53109 -0.37136,1.44211 -1.26768,3.61085 -2.8559,6.9099 -1.03256,2.14482 -1.34602,2.73536 -1.42578,2.68604 -0.11241,-0.0694 -1.29595,-2.36105 -1.29484,-2.50702 0,-0.0835 0.0977,-0.48754 0.21565,-0.89784 l 0.21446,-0.74605 0.28593,-0.0973 c 0.15758,-0.0536 0.42165,-0.22833 0.58827,-0.38922 0.40028,-0.38648 0.51603,-0.82906 0.35849,-1.37096 -0.33878,-1.16535 -1.87787,-1.39235 -2.55036,-0.37614 -0.30925,0.46729 -0.27473,1.18161 0.08,1.65711 l 0.15069,0.20196 -0.22357,0.79941 c -0.37248,1.33165 -0.3786,1.29894 0.61866,3.30067 l 0.84228,1.69064 -0.599,0.79502 c -0.82826,1.09932 -3.18625,3.89027 -3.68826,4.36548 -0.54478,0.51567 -1.54626,1.35186 -1.57937,1.31872 -0.0335,-0.0335 -0.475,-2.24198 -0.491,-2.45648 -0.0202,-0.2721 -0.0119,-0.29044 0.45533,-0.99932 l 0.45299,-0.68736 0.29512,0 c 0.7903,0 1.3523,-0.57912 1.35839,-1.39982 0.004,-0.55119 -0.24621,-0.96152 -0.73882,-1.21129 -0.62025,-0.31443 -1.22999,-0.19864 -1.7002,0.3229 -0.32105,0.35615 -0.41209,0.77538 -0.27919,1.28568 l 0.0969,0.37189 -0.4518,0.72077 c -0.24847,0.39643 -0.4827,0.80297 -0.5205,0.90341 -0.12097,0.3215 -0.075,0.88263 0.1997,2.43959 l 0.26838,1.52111 -0.18729,0.15228 c -0.31778,0.25841 -2.35053,1.60267 -3.17145,2.09735 -0.42812,0.25801 -1.15797,0.66752 -1.6218,0.91 -0.88944,0.46502 -2.62425,1.25243 -2.6664,1.21025 -0.0295,-0.0295 0.28413,-2.68867 0.33702,-2.85557 0.0583,-0.18424 1.46949,-1.2872 1.58336,-1.23759 0.0535,0.0234 0.24328,0.0707 0.42168,0.1053 0.57429,0.11143 1.11856,-0.12782 1.48858,-0.6543 0.1668,-0.2373 0.19879,-0.34826 0.2149,-0.74504 0.0231,-0.56788 -0.14087,-0.93912 -0.55411,-1.25496 -1.00288,-0.76652 -2.40893,-0.0539 -2.41639,1.22451 l -0.004,0.34268 -0.77102,0.63109 c -1.05754,0.86563 -1.044,0.83458 -1.36995,3.13633 -0.14043,0.99164 -0.25532,1.81115 -0.25532,1.8212 0,0.0496 -2.53998,0.83187 -3.33745,1.02793 -0.78262,0.19237 -2.13535,0.43662 -3.22845,0.58296 l -0.30571,0.0409 0.099,-0.34418 c 0.42792,-1.48783 0.82888,-2.75737 0.8915,-2.82258 0.0413,-0.043 0.43612,-0.28085 0.87747,-0.52864 l 0.80244,-0.4505 0.33133,0.16644 c 0.38907,0.1954 0.91307,0.22083 1.28589,0.0624 0.59288,-0.25197 1.02854,-1.01445 0.92723,-1.62286 -0.0944,-0.56722 -0.53688,-1.11427 -1.03386,-1.27829 -0.89373,-0.29498 -1.91148,0.3435 -2.02147,1.26814 l -0.0382,0.3207 -0.8025,0.44113 c -0.93823,0.51574 -1.13629,0.6699 -1.36751,1.06445 -0.0941,0.1605 -0.42579,1.08427 -0.73715,2.05285 l -0.56611,1.76108 -0.64014,0.0501 c -0.35207,0.0274 -1.63268,0.0328 -2.84577,0.0115 -2.36815,-0.0413 -2.91062,0 -3.89506,0.29779 -0.50108,0.15149 -1.47042,0.58222 -1.44243,0.64094 0.01,0.0209 0.25182,0.26216 0.53769,0.53657 l 0.5197,0.49895 0.53238,-0.18841 c 0.80705,-0.28558 1.45072,-0.39561 2.18936,-0.37417 l 0.64731,0.0187 0.97449,1.73326 c 0.53599,0.95328 1.08181,1.87651 1.21299,2.05159 0.28892,0.38566 0.50698,0.49586 1.72418,0.87147 0.50861,0.15696 0.94092,0.30153 0.96069,0.32134 0.0198,0.0198 -0.008,0.20308 -0.061,0.40731 -0.11647,0.44596 -0.0575,0.58761 0.28389,0.68139 0.12486,0.0342 0.72332,0.20661 1.32989,0.38292 1.22894,0.35723 1.26133,0.36292 1.41224,0.24875 z M 151.82872,508.7017 c 0.5709,-0.27631 1.28612,-0.67811 1.58939,-0.89293 0.30326,-0.21482 0.97532,-0.64497 1.49348,-0.95587 1.07028,-0.64227 2.54384,-1.83702 4.76882,-3.86645 0.25427,-0.23193 0.75517,-0.68442 1.11316,-1.00551 l 0.65087,-0.58388 -0.42899,-0.0456 c -0.43037,-0.0458 -2.73186,-0.21115 -3.77657,-0.27135 l -0.55807,-0.032 -0.71789,0.59622 c -0.39484,0.32794 -1.00472,0.77138 -1.35528,0.98548 -0.35057,0.21407 -0.95868,0.60538 -1.35136,0.86952 -0.72264,0.48617 -2.25009,1.27033 -2.61748,1.34383 -0.16334,0.0328 -0.35856,-0.0404 -1.06203,-0.39733 -0.47403,-0.24051 -1.03704,-0.56067 -1.25114,-0.71143 -0.21406,-0.15081 -0.69573,-0.45814 -1.07036,-0.68305 -0.95176,-0.57133 -1.34426,-0.84372 -1.91602,-1.3296 -0.27297,-0.232 -0.54518,-0.42182 -0.60491,-0.42182 -0.19476,0 -2.48429,0.19735 -3.41487,0.29432 -0.49954,0.0521 -0.9812,0.0955 -1.0704,0.0965 -0.18675,0.004 -0.32711,-0.14212 1.16612,1.19851 1.53202,1.37539 3.3252,2.91602 3.90954,3.35881 0.16914,0.12822 0.77516,0.51423 1.34667,0.85788 0.57155,0.34361 1.16562,0.72131 1.32024,0.83929 0.15455,0.11802 0.77141,0.46855 1.37077,0.77899 0.86008,0.44548 1.12541,0.55555 1.25906,0.52218 0.0931,-0.0231 0.6364,-0.26828 1.20725,-0.5446 z m -26.65836,-2.66849 c 0.72437,-0.24587 3.28597,-1.03113 4.13473,-1.26749 0.37918,-0.10556 0.6245,-0.20578 0.60793,-0.24832 -0.0152,-0.0392 -0.25239,-0.45083 -0.52698,-0.91466 -0.73971,-1.24963 -2.18077,-4.19483 -2.84562,-5.81595 l -0.0972,-0.23694 -0.93036,0.28741 c -0.51174,0.15804 -1.37553,0.43494 -1.91958,0.61528 l -0.98916,0.32791 0.53505,0.43036 c 0.53736,0.4322 1.28658,1.05865 2.33763,1.95447 0.3109,0.26497 0.56528,0.5169 0.56528,0.55984 0,0.043 -0.13402,0.45378 -0.29779,0.91296 -0.41408,1.16092 -1.19428,3.47197 -1.19428,3.53765 0,0.0722 -0.0372,0.0807 0.62036,-0.14252 z m 50.76685,-2.04975 c -0.39092,-1.17275 -0.72873,-2.17736 -0.75067,-2.23248 -0.0373,-0.0935 1.31382,-1.26828 2.93732,-2.554 0.26179,-0.20733 0.45154,-0.39996 0.42168,-0.42809 -0.1057,-0.0995 -3.67599,-1.23637 -3.72394,-1.18579 -0.0266,0.0285 -0.21446,0.4309 -0.41714,0.89474 -0.608,1.39159 -1.93616,4.02237 -2.55455,5.06002 l -0.5799,0.97309 0.23723,0.0762 c 0.13048,0.0419 0.77729,0.23784 1.43739,0.43544 0.66006,0.1976 1.75477,0.54583 2.43271,0.77383 0.67789,0.22801 1.24115,0.39312 1.2516,0.36693 0.0104,-0.0263 -0.30078,-1.00714 -0.69173,-2.17988 z m -43.50523,-2.82221 c 4.73139,-1.08276 9.17119,-1.70506 14.33673,-2.00951 1.65891,-0.0978 6.48782,-0.0985 8.1739,0 5.59658,0.32297 10.80456,1.11963 15.72901,2.40611 0.26623,0.0695 0.48837,0.1205 0.49359,0.11319 0.006,-0.007 0.24487,-0.46577 0.53246,-1.01881 0.86379,-1.66092 1.84833,-3.93263 2.43563,-5.61993 l 0.22537,-0.64745 -0.65837,-0.25182 c -5.50296,-2.10472 -14.47316,-3.20804 -23.5258,-2.89358 -6.75664,0.23467 -12.49074,0.83551 -17.71969,1.85669 -2.04881,0.4001 -5.31388,1.19558 -5.46303,1.33093 -0.0653,0.0592 0.0428,0.40763 0.51232,1.65167 0.57644,1.52742 1.04243,2.59346 1.81872,4.16068 l 0.74342,1.5009 0.76119,-0.19245 c 0.41865,-0.10584 1.14071,-0.27927 1.60455,-0.38544 z m 9.89765,-3.19682 c -0.0419,-0.0504 -0.0914,-0.29127 -0.11006,-0.5352 l -0.0338,-0.44347 0.78677,-1.00551 c 0.92766,-1.18557 1.11484,-1.48195 1.12324,-1.77874 0.0148,-0.52629 -0.47385,-0.57309 -1.09413,-0.10476 -0.44326,0.33468 -0.52558,0.32225 -0.99107,-0.14965 -0.40025,-0.40568 -0.39553,-0.46135 0.0713,-0.84379 0.89668,-0.73478 2.09381,-0.87841 2.88349,-0.34599 0.42215,0.28464 0.61964,0.68193 0.61964,1.24659 0,0.57054 -0.29393,1.16341 -0.95399,1.9241 -0.26919,0.31022 -0.48941,0.57407 -0.48941,0.58635 0,0.0122 0.21165,0 0.47031,-0.0249 0.2587,-0.0259 0.65222,-0.049 0.87456,-0.0512 0.46012,-0.005 0.43429,-0.0412 0.50462,0.71457 0.0292,0.31317 0.0173,0.44499 -0.0453,0.49546 -0.0468,0.0379 -0.49373,0.10347 -0.99327,0.14587 -0.49953,0.0424 -1.24393,0.11842 -1.65422,0.16896 -0.91531,0.11277 -0.87593,0.11273 -0.96844,0 z m 15.7917,0.0249 c -0.21407,-0.0277 -0.91469,-0.0991 -1.55692,-0.15844 -0.76058,-0.0703 -1.19883,-0.13823 -1.25697,-0.19497 -0.0673,-0.0657 -0.0784,-0.18859 -0.045,-0.50036 0.0245,-0.22729 0.0645,-0.44257 0.0893,-0.47842 0.0248,-0.036 0.49747,-0.46153 1.0505,-0.94593 1.1953,-1.04693 1.28194,-1.13718 1.36299,-1.4198 0.15229,-0.53099 -0.37469,-0.68831 -1.07377,-0.32059 -0.20495,0.10782 -0.41956,0.18023 -0.47691,0.16088 -0.13754,-0.0463 -0.65563,-0.77912 -0.65563,-0.92729 0,-0.13107 0.5522,-0.491 0.98804,-0.64397 0.33241,-0.11668 1.14572,-0.13102 1.51974,-0.0266 0.46408,0.12937 0.87726,0.45479 1.08156,0.85187 0.1556,0.30239 0.17891,0.41235 0.15293,0.72094 -0.0608,0.72178 -0.43872,1.25798 -1.42463,2.02115 -0.27737,0.21468 -0.49283,0.4018 -0.47886,0.41577 0.0141,0.0141 0.36833,0.0653 0.78749,0.11406 0.46239,0.0537 0.79797,0.12454 0.85337,0.17995 0.0748,0.0748 0.0791,0.17785 0.0234,0.56902 -0.0982,0.69285 -0.0976,0.69241 -0.94081,0.5829 z m -10.18492,-0.38288 c -1.00588,-0.24487 -1.52079,-1.25813 -1.52334,-2.99773 -0.004,-1.23503 0.2972,-1.91581 0.99996,-2.27606 0.33288,-0.17069 1.08974,-0.22869 1.49683,-0.11471 0.58343,0.16334 1.07112,0.76022 1.27199,1.55685 0.13362,0.52997 0.1164,1.94074 -0.0299,2.4327 -0.14022,0.47198 -0.43685,0.92965 -0.73504,1.13395 -0.38918,0.26666 -1.01427,0.37856 -1.48065,0.265 z m 0.63852,-1.33313 c 0.21997,-0.22001 0.30369,-1.2698 0.16824,-2.1093 -0.087,-0.53884 -0.19832,-0.71359 -0.45476,-0.71359 -0.29534,0 -0.38442,0.27559 -0.38442,1.1892 0,1.13376 0.15541,1.73002 0.45097,1.73002 0.0679,0 0.16697,-0.0433 0.21997,-0.0963 z m 3.6218,1.2702 c -0.91286,-0.31526 -1.37766,-1.38256 -1.28817,-2.95782 0.0652,-1.1458 0.38544,-1.85716 0.99852,-2.21756 0.28201,-0.16575 0.36815,-0.18272 0.9272,-0.18272 0.71172,0 0.97756,0.0978 1.3729,0.50522 0.38378,0.39542 0.52673,0.8483 0.55876,1.76984 0.0604,1.74032 -0.41945,2.82762 -1.37298,3.11077 -0.42492,0.1262 -0.77398,0.1181 -1.19623,-0.0277 z m 0.85662,-1.3198 c 0.23917,-0.37802 0.33255,-2.08989 0.13924,-2.55257 -0.0854,-0.20437 -0.11875,-0.22696 -0.30813,-0.20873 -0.32813,0.0317 -0.44366,0.3332 -0.48688,1.27124 -0.0349,0.75837 0.0391,1.37229 0.18697,1.55051 0.11168,0.13452 0.3662,0.1017 0.4688,-0.0604 z m -19.33602,-4.97216 c 0.7783,-0.1391 1.42918,-0.26699 1.44636,-0.28417 0.0173,-0.0173 -0.21374,-0.40702 -0.51318,-0.86623 -0.58132,-0.89157 -1.42223,-2.26545 -1.48426,-2.42504 -0.0205,-0.0532 -0.18676,-0.34181 -0.36908,-0.6415 -0.6333,-1.04089 -1.75042,-3.35633 -2.3697,-4.9116 -0.34257,-0.86029 -0.62281,-1.5937 -0.62281,-1.62976 0,-0.0361 -0.0589,-0.19865 -0.13077,-0.36123 -0.46397,-1.04892 -1.35547,-4.22397 -2.03455,-7.24606 -0.66759,-2.97107 -0.88299,-4.50357 -1.04399,-7.42787 -0.0198,-0.3568 -0.079,-1.37852 -0.13199,-2.27053 -0.053,-0.89199 -0.12541,-2.29324 -0.16097,-3.11387 -0.0356,-0.82063 -0.10732,-2.32402 -0.15944,-3.34091 -0.0521,-1.01686 -0.11453,-2.52029 -0.13871,-3.34091 -0.0415,-1.40943 -0.0371,-1.49806 0.078,-1.60052 0.0826,-0.0735 0.47806,-0.16301 1.2248,-0.27743 0.60656,-0.0929 1.32177,-0.20931 1.58938,-0.25863 0.26759,-0.0493 0.96818,-0.16806 1.55692,-0.26389 1.59456,-0.25956 4.25974,-0.78694 5.25415,-1.03966 1.24083,-0.31537 3.41855,-0.95641 3.61817,-1.06506 0.0618,-0.0335 0.40439,-0.15401 0.76119,-0.26745 2.1695,-0.68982 5.99334,-2.41189 9.893,-4.4554 l 0.68114,-0.35695 0.90821,0.48119 c 2.00821,1.06399 5.82354,2.87114 7.1035,3.36462 0.16057,0.0619 0.65686,0.25852 1.10285,0.43696 1.43645,0.57468 4.22077,1.44869 6.00066,1.88367 1.53087,0.37413 3.65588,0.77581 6.7467,1.27538 2.09323,0.33832 2.59655,0.43418 2.67364,0.50941 0.0836,0.0815 0.0285,2.71182 -0.10959,5.23416 -0.0361,0.66006 -0.0955,1.88616 -0.13203,2.72462 -0.17426,4.00342 -0.44661,8.10199 -0.61863,9.30918 -0.23223,1.62976 -0.71169,3.93032 -1.27758,6.13041 -0.14227,0.55302 -0.29787,1.18067 -0.34581,1.39473 -0.0854,0.38112 -0.91095,2.98912 -1.06788,3.37337 -0.0437,0.10703 -0.15945,0.41354 -0.25722,0.68114 -0.87142,2.3854 -1.61168,4.04568 -2.51315,5.63693 -1.3734,2.42431 -1.51614,2.66633 -2.13679,3.6226 -0.44618,0.6874 -0.4648,0.73063 -0.32812,0.76064 1.2842,0.28205 3.19219,0.62404 3.20848,0.57515 0.0115,-0.0346 0.21003,-0.37762 0.4411,-0.76233 0.23107,-0.38472 0.4201,-0.71205 0.4201,-0.72736 0,-0.0155 0.1709,-0.31151 0.37977,-0.65819 1.25496,-2.08286 2.1364,-3.96556 3.33235,-7.11755 0.10829,-0.28544 0.26583,-0.69415 0.35006,-0.90821 0.21803,-0.55407 0.96437,-2.85896 1.18683,-3.66529 0.34772,-1.26021 0.71644,-2.68881 0.81202,-3.14629 0.0522,-0.24974 0.22998,-1.03794 0.39509,-1.75154 0.28586,-1.23553 0.56841,-2.70895 0.77754,-4.0545 0.10368,-0.66716 0.32282,-3.1882 0.38627,-4.44374 0.0216,-0.42816 0.0819,-1.46451 0.13387,-2.30297 0.052,-0.83846 0.13834,-2.51704 0.19194,-3.73014 0.0536,-1.21312 0.14065,-3.02305 0.1935,-4.02208 0.0529,-0.99903 0.116,-2.62273 0.14035,-3.60826 l 0.0443,-1.79184 -0.22094,-0.07 c -0.12152,-0.0386 -0.49827,-0.11446 -0.83724,-0.16867 -2.58455,-0.41347 -3.14255,-0.5048 -3.6004,-0.58938 -0.28543,-0.0527 -0.8693,-0.15337 -1.29743,-0.22358 -5.26749,-0.86382 -9.70827,-2.16751 -14.35132,-4.2132 -2.28263,-1.00566 -5.62613,-2.62552 -7.2591,-3.51683 -0.25413,-0.13873 -0.51085,-0.25221 -0.5704,-0.25221 -0.0596,0 -0.30412,0.10717 -0.54344,0.23817 -0.67246,0.36807 -3.85013,1.96267 -4.68424,2.35063 -3.48242,1.61965 -4.75459,2.1439 -7.33054,3.02087 -2.61935,0.89174 -3.99849,1.27674 -6.48721,1.81097 -1.36973,0.294 -4.72584,0.88043 -7.84318,1.37045 -0.5852,0.092 -1.12252,0.19857 -1.19403,0.23683 -0.12706,0.068 -0.12912,0.11287 -0.0885,1.95941 0.0227,1.03937 0.0859,2.70718 0.14014,3.70621 0.0542,0.99902 0.14255,2.79436 0.1963,3.98962 0.0538,1.19526 0.13971,2.85924 0.19098,3.69771 0.0513,0.83846 0.11114,1.86022 0.13301,2.27052 0.0796,1.49506 0.29944,3.86115 0.42708,4.59741 0.0719,0.41498 0.18661,1.09028 0.25481,1.50058 0.14046,0.84508 1.02017,4.74162 1.2596,5.579 0.0867,0.30326 0.20397,0.75575 0.26061,1.00552 0.1454,0.64132 1.04229,3.47827 1.27156,4.02208 0.10526,0.24977 0.19137,0.47856 0.19126,0.50846 -1.1e-4,0.0543 0.24126,0.68143 0.99052,2.57296 0.43123,1.08855 1.78857,3.8627 2.30298,4.70671 0.17512,0.28735 0.41282,0.69605 0.52821,0.90821 0.11539,0.21215 0.43385,0.75985 0.70776,1.21709 l 0.49795,0.83129 0.22707,-0.0365 c 0.12486,-0.0202 0.86385,-0.15033 1.64215,-0.28946 z m 19.57105,-4.42492 c 2.18395,-0.22689 4.22736,-0.81328 6.19526,-1.77787 2.00929,-0.98487 3.43659,-2.00814 5.06474,-3.63102 1.23488,-1.23085 2.03192,-2.23922 2.83832,-3.59072 0.4523,-0.75812 1.31238,-2.46466 1.26389,-2.50785 -0.0109,-0.01 -0.83735,-0.0382 -1.83638,-0.0631 l -1.81641,-0.0453 -0.19314,0.37834 c -0.32855,0.64361 -1.15887,1.83674 -1.79821,2.58398 -2.50952,2.93299 -5.94373,4.78212 -9.81541,5.28504 -0.85525,0.11111 -3.20096,0.0951 -4.02205,-0.0274 -3.28334,-0.48991 -6.20614,-1.91181 -8.5072,-4.13852 -1.64321,-1.59014 -2.72891,-3.15621 -3.55502,-5.12804 -0.89408,-2.13405 -1.25441,-4.10757 -1.18618,-6.4965 0.0679,-2.37532 0.56622,-4.33396 1.64551,-6.46766 1.69691,-3.35467 4.4844,-5.90085 8.03733,-7.34156 0.39116,-0.15862 0.90546,-0.35182 1.14291,-0.42931 l 0.43176,-0.14093 0.10718,-0.59684 c 0.0589,-0.32823 0.1931,-1.04705 0.29807,-1.59734 0.23785,-1.24667 0.24232,-1.38058 0.0449,-1.33911 -2.21071,0.46426 -4.15563,1.21943 -6.01707,2.33626 -5.24509,3.1471 -8.72487,8.8532 -9.02014,14.79127 -0.0765,1.53794 0.007,3.47042 0.19439,4.491 0.71662,3.9064 2.47057,7.27746 5.22307,10.03861 4.03693,4.04969 9.56442,6.00844 15.27985,5.4147 z m -1.00061,-4.46877 c 4.49185,-0.3068 8.62525,-2.77689 11.0575,-6.6079 0.18643,-0.29364 0.32801,-0.54308 0.31457,-0.55432 -0.0134,-0.0111 -1.21921,-0.0518 -2.67963,-0.09 l -2.65523,-0.0696 -0.57136,0.4794 c -1.39236,1.1682 -2.67336,1.82213 -4.33551,2.21319 -1.02767,0.24177 -2.65978,0.28284 -3.75924,0.0946 -1.20946,-0.20711 -2.61442,-0.73276 -3.56874,-1.33518 l -0.23421,-0.14785 -1.70937,1.49614 -1.70938,1.49615 0.18718,0.15358 c 0.4228,0.34689 1.48736,1.02003 2.12789,1.34548 1.92947,0.9804 4.11864,1.53546 6.23316,1.58045 0.21407,0.005 0.80014,-0.0198 1.30237,-0.0541 z m -8.21126,-5.74973 c 1.37369,-1.05667 2.53066,-1.93414 2.57112,-1.94996 0.0404,-0.0159 0.24371,0.0801 0.45176,0.2132 0.52511,0.33594 1.42092,0.71356 2.15999,0.91059 0.76817,0.2048 2.22012,0.27908 3.05839,0.15653 2.95937,-0.43271 5.43761,-2.50364 6.3853,-5.33576 0.56258,-1.68125 0.56179,-3.08423 -0.004,-5.08956 -0.0335,-0.11889 0.077,-0.22736 0.74714,-0.73338 l 0.78643,-0.59384 0.1319,0.29818 c 0.18156,0.41048 0.42611,1.24519 0.55965,1.91026 0.13553,0.67483 0.1556,2.80316 0.032,3.40489 -0.0433,0.21122 -0.0716,0.39096 -0.0627,0.39942 0.009,0.009 1.00422,0.0401 2.21198,0.0701 2.15765,0.0537 2.19717,0.0524 2.26735,-0.075 0.10469,-0.19025 0.14208,-2.93274 0.0506,-3.71068 -0.34346,-2.92081 -1.6009,-5.6803 -3.60235,-7.90532 -1.75736,-1.95371 -4.4474,-3.5812 -6.95756,-4.20938 -0.75899,-0.18993 -1.62025,-0.33922 -2.29912,-0.39845 l -0.49561,-0.0432 -0.0753,0.34887 c -0.21166,0.98134 -0.72325,3.90561 -0.69581,3.97716 0.0205,0.0534 0.24174,0.0982 0.62981,0.12753 1.32408,0.0999 2.46743,0.40205 3.59759,0.95061 0.77956,0.37834 1.47792,0.81771 1.44704,0.91033 -0.0122,0.037 -0.34105,0.32286 -0.73053,0.63521 l -0.70808,0.56794 -0.66237,-0.34592 c -1.14428,-0.59759 -2.05274,-0.84347 -3.33568,-0.90283 -3.89946,-0.18049 -7.35976,2.55558 -8.11464,6.41627 -0.25946,1.32686 -0.10624,3.15657 0.35741,4.26792 0.032,0.0764 -0.3221,0.39755 -1.40338,1.27318 -0.7953,0.64407 -1.94802,1.57969 -2.5616,2.07912 l -1.11561,0.9081 1.17109,1.45155 c 1.11672,1.38413 1.59532,1.93835 1.67335,1.93785 0.0195,0 1.15941,-0.8648 2.53308,-1.92147 z m 6.36667,-4.50439 c -0.78175,-0.1396 -1.83478,-0.73932 -2.30434,-1.31238 -0.70748,-0.86336 -0.97853,-1.61424 -0.97687,-2.70596 0,-0.66277 0.0231,-0.80788 0.19705,-1.30031 0.37085,-1.04903 1.09054,-1.86422 2.05404,-2.3265 0.68907,-0.33061 1.16745,-0.41984 2.04222,-0.3809 0.5824,0.0259 0.78364,0.0647 1.2168,0.23456 1.03903,0.40734 1.90497,1.27304 2.31419,2.31353 0.1757,0.44669 0.20822,0.62314 0.23366,1.2667 0.0518,1.31061 -0.28921,2.20146 -1.17883,3.07972 -0.54658,0.53963 -1.0085,0.81653 -1.72581,1.03452 -0.43338,0.13171 -1.39787,0.18168 -1.87211,0.097 z m -10.12926,0.306 c 0.87416,-0.67368 1.58441,-1.25812 1.57832,-1.29876 -0.006,-0.0407 -0.0892,-0.39499 -0.18463,-0.78749 -0.25067,-1.03059 -0.29685,-2.65311 -0.10714,-3.76259 0.42262,-2.47161 1.7511,-4.67707 3.74105,-6.21078 0.32113,-0.2475 0.60512,-0.49853 0.63109,-0.55783 0.0259,-0.0593 0.23842,-1.18794 0.47205,-2.5081 0.23363,-1.32013 0.43915,-2.46596 0.45673,-2.54623 0.0177,-0.0809 0,-0.14597 -0.038,-0.14597 -0.0385,0 -0.39625,0.13362 -0.79498,0.29696 -2.02111,0.82776 -3.58416,1.87452 -5.04353,3.37759 -1.13041,1.16423 -1.82931,2.16607 -2.56452,3.67602 -1.72001,3.53242 -1.89379,7.73633 -0.47067,11.38432 l 0.26061,0.66799 0.23715,-0.18013 c 0.13042,-0.0991 0.95238,-0.73132 1.8265,-1.405 z m -31.1329,67.30302 -0.35111,-0.31144 1.92428,-2.37467 c 1.05832,-1.30607 1.92269,-2.3983 1.92078,-2.42719 -0.004,-0.0415 -1.83126,-1.54867 -2.47446,-2.03956 l -0.13849,-0.10569 0.24563,-0.29974 c 0.13509,-0.16485 0.27228,-0.29977 0.30489,-0.29977 0.0756,0 3.36332,2.66172 3.36332,2.72293 0,0.0589 -4.33371,5.41397 -4.3964,5.43256 -0.0259,0.008 -0.20534,-0.12613 -0.39844,-0.29743 z m 80.98715,-0.13556 c -1.06369,-0.34938 -2.21857,-1.5205 -2.6664,-2.70391 -0.45998,-1.21551 -0.20445,-2.39059 0.71878,-3.30524 0.55674,-0.55159 1.17422,-0.8857 1.84643,-0.9991 0.87733,-0.14796 1.89044,0.19089 2.6642,0.89109 0.74087,0.67044 1.33093,1.60199 1.49445,2.35928 0.0443,0.20528 0.0665,0.61943 0.0507,0.94888 -0.0238,0.49849 -0.0601,0.65041 -0.24562,1.03056 -0.30827,0.63142 -0.9901,1.29494 -1.66353,1.61885 -0.46584,0.22408 -0.56185,0.24609 -1.15883,0.26586 -0.51568,0.017 -0.73182,-0.005 -1.04017,-0.10627 z m 1.94618,-0.9683 c 1.32546,-0.63682 1.61607,-2.10343 0.68989,-3.48127 -0.36044,-0.53616 -1.00497,-1.15624 -1.45655,-1.40114 -0.37496,-0.20341 -0.44114,-0.21753 -1.01733,-0.21753 -0.46967,0 -0.67379,0.0285 -0.85795,0.12015 -0.35608,0.17703 -0.80626,0.59698 -1.00814,0.94041 -0.16151,0.2747 -0.17739,0.36019 -0.17739,0.95382 0,0.62115 0.0116,0.67501 0.23942,1.13528 0.83338,1.68167 2.38818,2.5268 3.58805,1.95028 z m -87.70241,-2.98682 -0.31825,-0.32308 2.1676,-2.21705 2.16759,-2.21705 -1.2261,-1.19717 -1.22613,-1.19714 0.29746,-0.29749 0.2975,-0.29747 1.5451,1.51038 c 0.84985,0.83071 1.55271,1.52979 1.56197,1.5535 0.0231,0.0585 -4.76529,4.96505 -4.86743,4.98771 -0.0445,0.01 -0.22426,-0.12742 -0.39931,-0.30514 z m 92.24507,-4.26107 -2.20402,-2.16806 -1.20343,1.20221 -1.20344,1.20218 -0.28446,-0.28983 -0.28442,-0.28983 0.84912,-0.89513 c 0.467,-0.49233 1.15617,-1.19962 1.53145,-1.57173 l 0.68236,-0.67655 2.4848,2.45608 c 1.36663,1.35085 2.49233,2.47345 2.50154,2.49466 0.009,0.0213 -0.13671,0.18832 -0.32433,0.37133 l -0.34113,0.33276 -2.20405,-2.16809 z M 98.92552,529.774 c -0.76712,-0.92636 -1.38147,-1.70564 -1.36526,-1.73176 0.0502,-0.0808 0.53149,-0.46912 0.58142,-0.46912 0.0259,0 0.53606,0.58434 1.13351,1.29855 0.69238,0.82765 1.11413,1.28168 1.16302,1.25206 0.13329,-0.0808 1.47143,-1.20782 1.47143,-1.23931 0,-0.0166 -0.43072,-0.5446 -0.95713,-1.17346 -0.52644,-0.62883 -0.99878,-1.19646 -1.04961,-1.26134 -0.0838,-0.10688 -0.0654,-0.14161 0.1949,-0.37023 0.15804,-0.13877 0.30579,-0.25355 0.32834,-0.25506 0.0227,0 0.51621,0.56618 1.09701,1.26154 0.90118,1.07901 1.07058,1.25254 1.1556,1.18395 0.0547,-0.0443 0.48505,-0.40439 0.95623,-0.80031 l 0.85661,-0.7199 -1.12878,-1.34725 c -0.62084,-0.74101 -1.1288,-1.3604 -1.1288,-1.37644 0,-0.0306 0.33234,-0.32159 0.52108,-0.45626 0.0968,-0.0691 0.28363,0.1289 1.52994,1.6218 0.78078,0.93526 1.41962,1.73244 1.41962,1.77149 0,0.0722 -5.26382,4.50548 -5.34177,4.49889 -0.0234,-0.004 -0.67026,-0.76151 -1.43736,-1.68784 z m 101.07077,-0.11409 c -0.50191,-0.16717 -0.87233,-0.36566 -1.37935,-0.73918 -0.60962,-0.44905 -1.04734,-0.96188 -1.36282,-1.59669 -0.24623,-0.49535 -0.27112,-0.59252 -0.29562,-1.15257 -0.0223,-0.50864 -0.004,-0.6891 0.12137,-1.07227 0.29138,-0.90622 1.11492,-1.79288 1.98718,-2.13949 0.54113,-0.215 1.49593,-0.21666 2.11272,-0.004 0.84768,0.29278 1.84592,1.06593 2.34361,1.81509 0.76285,1.14824 0.78587,2.39282 0.0645,3.48912 -0.34613,0.52608 -0.8524,0.98249 -1.38129,1.2453 -0.45242,0.22479 -0.52385,0.24047 -1.1677,0.25624 -0.52637,0.013 -0.76876,-0.0108 -1.04262,-0.10198 z m 1.81641,-0.93375 c 0.66929,-0.20773 1.22808,-0.87366 1.36361,-1.62497 0.19057,-1.05653 -0.67569,-2.34074 -2.04845,-3.03679 -0.55123,-0.27952 -0.5794,-0.28629 -1.18867,-0.28629 -0.56913,0 -0.65433,0.017 -0.96812,0.19057 -0.42816,0.23723 -0.75776,0.59648 -0.9675,1.05461 -0.2257,0.49295 -0.19757,1.18197 0.0705,1.72841 0.23669,0.48246 0.8394,1.12775 1.40385,1.50299 0.84076,0.55891 1.57518,0.70722 2.33478,0.47147 z M 96.03872,524.95201 c -0.42421,-0.1347 -0.88807,-0.39661 -1.21813,-0.6877 -0.63208,-0.55742 -1.260441,-1.64727 -1.440887,-2.4991 -0.157508,-0.74349 -0.15077,-0.76842 0.287626,-1.0661 0.212119,-0.14407 0.409181,-0.2618 0.437891,-0.26166 0.0288,0 0.0546,0.25557 0.0575,0.56763 0.0108,1.17245 0.62573,2.29764 1.55357,2.843 0.29865,0.17551 0.37038,0.18945 0.97118,0.18873 0.59453,0 0.68582,-0.0184 1.09287,-0.20959 0.89405,-0.42039 1.68049,-1.11017 1.99521,-1.75006 0.12181,-0.24764 0.15264,-0.41595 0.15315,-0.83572 0,-0.48681 -0.0195,-0.56593 -0.2694,-1.0704 -0.27834,-0.56149 -0.82852,-1.23651 -1.16821,-1.43324 l -0.18996,-0.11002 -0.70952,0.45666 c -0.39023,0.25114 -0.73576,0.48159 -0.76782,0.51214 -0.0338,0.032 0.10937,0.3176 0.34055,0.6789 0.21939,0.34289 0.39891,0.63492 0.39891,0.64893 0,0.0547 -0.59176,0.4291 -0.64716,0.40943 -0.0653,-0.0231 -1.36462,-1.97917 -1.36263,-2.05133 0.004,-0.0687 2.43147,-1.63481 2.53612,-1.63481 0.15387,0 0.7216,0.32484 1.06158,0.60739 1.20206,0.99907 1.86152,2.42024 1.66723,3.59291 -0.16291,0.983 -0.83648,1.88433 -1.89589,2.53696 -0.73262,0.45134 -1.39869,0.65945 -2.0924,0.6538 -0.29254,-0.004 -0.64865,-0.0415 -0.79135,-0.0868 z M 203.743,521.94084 c -1.63218,-0.98757 -2.96772,-1.81645 -2.9679,-1.84192 0,-0.0356 0.53638,-0.9657 0.62284,-1.07947 0.01,-0.0126 1.43494,0.0555 3.16741,0.15148 1.73248,0.096 3.18153,0.16396 3.22008,0.15113 0.0386,-0.0129 -1.01217,-0.67469 -2.335,-1.47071 -1.32283,-0.79606 -2.40514,-1.47172 -2.40514,-1.50147 0,-0.0299 0.0949,-0.21666 0.21082,-0.41527 0.14277,-0.24447 0.24152,-0.34985 0.30585,-0.32621 0.23871,0.0876 5.90566,3.54906 5.90566,3.60724 0,0.0361 -0.13867,0.29826 -0.30813,0.58251 l -0.30816,0.51674 -0.68114,-0.0426 c -2.28169,-0.14266 -5.82567,-0.31645 -5.78695,-0.28374 0.0252,0.0213 1.0821,0.66071 2.34873,1.42104 1.26663,0.76028 2.35222,1.41598 2.41246,1.45705 0.0996,0.068 0.0882,0.11089 -0.12768,0.47684 -0.13044,0.2212 -0.25272,0.4001 -0.27166,0.39754 -0.0191,-0.004 -1.36992,-0.81263 -3.00209,-1.8002 z m -113.364309,-5.29786 -0.98829,-1.97777 0.321669,-0.16302 c 0.176926,-0.0896 0.351683,-0.16298 0.388434,-0.16298 0.03671,0 0.405826,0.67873 0.820265,1.50829 0.414475,0.82952 0.761546,1.51708 0.771344,1.52788 0.03204,0.0353 1.784139,-0.85939 1.784139,-0.91105 0,-0.0277 -0.321929,-0.69375 -0.715434,-1.48015 -0.393513,-0.78637 -0.701965,-1.45166 -0.685428,-1.47839 0.04152,-0.0672 0.680995,-0.36263 0.712266,-0.32905 0.01408,0.0152 0.349915,0.67673 0.746524,1.4706 0.396603,0.79389 0.73593,1.4434 0.75402,1.4434 0.0324,0 2.12057,-1.03523 2.15973,-1.07064 0.0111,-0.0101 -0.33201,-0.72167 -0.76223,-1.58157 -0.43025,-0.85989 -0.78226,-1.57778 -0.78226,-1.59528 0,-0.0382 0.62206,-0.35843 0.69605,-0.35843 0.0627,0 2.06885,4.00418 2.02623,4.04432 -0.0559,0.0527 -6.159525,3.09161 -6.20938,3.09161 -0.02701,0 -0.494127,-0.88997 -1.037649,-1.97777 z m 117.312789,-1.5272 c -1.744,-0.78125 -3.17973,-1.42928 -3.19054,-1.44009 -0.0216,-0.0216 0.31742,-0.80683 0.37197,-0.86137 0.0188,-0.0187 0.68556,0.2583 1.48184,0.61568 0.79627,0.35733 1.47939,0.64957 1.51805,0.64943 0.061,0 1.31158,-2.70365 1.37823,-2.97928 0.0188,-0.0775 -0.32618,-0.25611 -1.43948,-0.74567 -0.80528,-0.35409 -1.47816,-0.66657 -1.49538,-0.69442 -0.0173,-0.0277 0.0552,-0.24116 0.16074,-0.47407 l 0.19202,-0.42348 0.73442,0.32899 c 0.40391,0.18095 1.78532,0.79646 3.06978,1.36782 1.28449,0.57133 2.39844,1.07231 2.47543,1.11327 l 0.14006,0.0744 -0.19036,0.41793 c -0.10468,0.22984 -0.19968,0.42722 -0.21107,0.43865 -0.0166,0.0166 -2.43857,-1.03599 -2.57497,-1.11896 -0.0331,-0.0202 -1.32196,2.80866 -1.37002,3.00746 -0.0134,0.0552 0.41444,0.28024 1.21198,0.63755 0.6779,0.30369 1.25647,0.57532 1.28572,0.60357 0.0452,0.0437 -0.29959,0.91959 -0.35723,0.90731 -0.0111,-0.004 -1.44719,-0.64349 -3.19119,-1.42475 z m 5.22786,-6.18326 -0.4082,-0.14191 0.4082,-0.32369 c 0.75942,-0.6022 1.17913,-1.4429 1.18294,-2.36959 0.004,-0.95529 -0.55281,-1.68917 -1.61809,-2.13293 -0.97133,-0.40464 -2.02209,-0.48883 -2.64525,-0.2119 -0.77099,0.34263 -1.30291,1.20437 -1.38292,2.24043 -0.0338,0.43879 0.0231,0.76288 0.26569,1.51639 l 0.0463,0.14385 -0.48674,-0.16366 c -0.48192,-0.16201 -0.4875,-0.16647 -0.55844,-0.44827 -0.10289,-0.40864 -0.0883,-1.36786 0.0277,-1.81915 0.47562,-1.85074 1.94352,-2.89034 3.70427,-2.62342 2.26796,0.34375 3.6632,1.79706 3.50569,3.65156 -0.0459,0.54117 -0.23255,1.1543 -0.51131,1.68027 -0.23622,0.4456 -0.86293,1.15606 -1.01362,1.149 -0.0594,-0.004 -0.29177,-0.0689 -0.51625,-0.14698 z M 88.254041,508.21608 c -1.383672,-0.33692 -2.370015,-1.68611 -2.367027,-3.23788 0.0036,-1.71089 1.450573,-3.02572 3.639344,-3.30629 1.56809,-0.20099 2.935189,0.62173 3.432958,2.06592 0.452232,1.31213 0.186287,2.51687 -0.748615,3.39146 -0.969627,0.90702 -2.720225,1.38785 -3.95666,1.08679 z m 1.74447,-1.07588 c 0.952631,-0.24364 1.802902,-0.81634 2.112258,-1.42275 0.536389,-1.05138 0.0579,-2.39827 -1.021507,-2.87579 -0.459833,-0.20336 -1.225847,-0.22649 -1.896426,-0.0572 -1.159556,0.29275 -1.91394,0.80161 -2.274659,1.53437 -0.189821,0.38558 -0.203154,0.45536 -0.17559,0.92099 0.05848,0.98757 0.557925,1.6565 1.446607,1.93758 0.399167,0.12623 1.237699,0.10897 1.809317,-0.0372 z m 125.681119,-5.59539 c -0.26822,-0.0559 -0.30348,-0.082 -0.27535,-0.20319 0.12296,-0.52961 0.6177,-3.23979 0.59551,-3.26202 -0.0152,-0.0152 -0.45731,-0.11006 -0.98249,-0.21089 -0.65718,-0.12613 -0.96243,-0.16085 -0.97915,-0.11136 -0.0216,0.0642 -0.61333,3.13421 -0.61333,3.18245 0,0.0252 -0.7779,-0.13636 -0.80805,-0.16778 -0.0122,-0.013 0.11704,-0.73874 0.28773,-1.6129 0.17069,-0.87413 0.28435,-1.60585 0.25258,-1.62595 -0.0896,-0.0568 -2.33028,-0.46844 -2.36437,-0.43433 -0.0166,0.0166 -0.17642,0.78457 -0.3551,1.70658 -0.17869,0.922 -0.33796,1.68946 -0.35396,1.70545 -0.0277,0.0277 -0.74681,-0.0986 -0.7864,-0.13819 -0.0187,-0.0188 0.81721,-4.41077 0.84476,-4.43916 0.0267,-0.0277 6.81862,1.29437 6.8608,1.33544 0.0234,0.0227 -0.14421,1.00465 -0.37236,2.18211 -0.22811,1.17742 -0.41509,2.14806 -0.41544,2.157 0,0.0285 -0.21857,0.004 -0.53538,-0.0633 z M 84.688221,500.31061 C 84.587672,500 84.008023,496.4703 84.050572,496.42775 c 0.02952,-0.0292 0.214891,-0.0724 0.412205,-0.0956 l 0.358816,-0.0422 0.256391,1.44042 c 0.141044,0.79224 0.271959,1.46556 0.290909,1.49626 0.01911,0.0306 0.464258,-0.0216 0.989512,-0.116 0.747394,-0.13445 0.954829,-0.19372 0.95414,-0.27254 0,-0.0554 -0.102633,-0.6534 -0.227033,-1.32888 -0.124427,-0.67552 -0.226205,-1.24692 -0.226205,-1.2698 0,-0.0384 0.788462,-0.20902 0.815372,-0.17638 0.0065,0.008 0.120434,0.61305 0.252901,1.34448 0.132502,0.73143 0.250012,1.33918 0.261147,1.3506 0.01113,0.0116 0.744398,-0.1115 1.629402,-0.27307 0.885047,-0.16157 1.618347,-0.28457 1.629589,-0.27333 0.01114,0.0112 0.06027,0.22927 0.108869,0.48452 0.08682,0.45561 0.08589,0.46461 -0.05014,0.49437 -0.337308,0.0737 -6.634409,1.20102 -6.70891,1.20102 -0.04569,0 -0.09493,-0.0365 -0.109343,-0.0811 z m 132.061299,-4.96099 c -0.25254,-0.0313 -0.24753,0.0299 -0.11514,-1.40918 0.0524,-0.56892 0.081,-1.0486 0.0636,-1.06593 -0.0173,-0.0173 -1.40691,-0.14947 -3.08787,-0.29357 l -3.05634,-0.26202 0.0409,-0.48313 c 0.0223,-0.26573 0.0481,-0.4896 0.057,-0.49752 0.009,-0.008 1.38179,0.10307 3.05097,0.2467 1.66914,0.1436 3.05383,0.24213 3.07702,0.21889 0.0231,-0.0231 0.088,-0.57446 0.14389,-1.22508 l 0.1017,-1.18291 0.38926,0.0227 c 0.21407,0.0127 0.40244,0.0353 0.41862,0.0511 0.0162,0.0155 -0.0798,1.319 -0.21338,2.8965 -0.13354,1.57752 -0.24166,2.90471 -0.24026,2.94931 0.004,0.0806 -0.17699,0.0904 -0.62994,0.0342 z M 83.388268,490.00831 c -0.02521,-0.25185 -0.03168,-0.47219 -0.01444,-0.48962 0.03563,-0.0356 5.935518,-0.3465 6.615429,-0.34856 l 0.437894,0 0,0.48657 c 0,0.46109 -0.0075,0.48656 -0.145972,0.48721 -0.08027,0 -1.56179,0.0729 -3.29228,0.16118 -1.730455,0.0882 -3.238202,0.16089 -3.350533,0.16146 l -0.204267,0 -0.04598,-0.45795 z m 2.953313,-3.12296 c -1.69407,-0.0688 -3.084012,-0.13052 -3.088732,-0.13715 -0.005,-0.007 0.0093,-0.30326 0.03132,-0.65916 l 0.03972,-0.64705 2.896864,-1.39643 c 1.593276,-0.76799 2.886232,-1.40738 2.87323,-1.42078 -0.013,-0.0134 -1.287418,-0.0718 -2.832017,-0.12976 l -2.808347,-0.10534 -0.01911,-0.47032 -0.01911,-0.47031 0.408283,0 c 0.658122,-0.004 6.090031,0.19861 6.401981,0.23676 l 0.284925,0.0349 -0.03628,0.60848 c -0.01983,0.33468 -0.05057,0.63149 -0.06796,0.65959 -0.01731,0.0281 -1.337667,0.67876 -2.933852,1.44586 -1.861197,0.89447 -2.846463,1.4001 -2.746919,1.40968 0.151955,0.0148 5.23481,0.21215 5.458495,0.21212 0.09803,0 0.113516,0.0665 0.113516,0.48656 l 0,0.48653 -0.437887,-0.009 c -0.240831,-0.005 -1.823942,-0.0651 -3.518055,-0.13387 z M 211.8973,484.54174 c -0.89269,-0.34393 -1.31811,-1.15098 -1.37388,-2.60616 -0.0238,-0.61788 -0.004,-0.91041 0.10217,-1.41805 0.0726,-0.35179 0.14101,-0.64745 0.15195,-0.65704 0.0109,-0.01 0.24505,-0.038 0.52011,-0.0631 l 0.50018,-0.0456 -0.18524,0.50807 c -0.37716,1.03419 -0.39488,2.06211 -0.0474,2.74613 0.2145,0.42229 0.48678,0.58383 0.98393,0.58383 0.77837,0 1.06168,-0.37791 1.2345,-1.6468 0.19118,-1.40367 0.45691,-1.96484 1.08404,-2.28965 0.29073,-0.15055 0.42277,-0.17714 0.89261,-0.1798 0.4996,-0.004 0.58495,0.0159 0.90821,0.19792 0.45547,0.25661 0.79246,0.6976 0.98289,1.28623 0.17645,0.54546 0.20523,1.66741 0.0614,2.39358 -0.10023,0.50598 -0.17418,0.5629 -0.73169,0.5629 -0.3092,0 -0.32531,-0.008 -0.28521,-0.14598 0.30517,-1.04827 0.36883,-1.69774 0.22736,-2.31915 -0.0873,-0.3832 -0.33248,-0.74797 -0.59504,-0.88519 -0.26111,-0.13649 -0.73884,-0.137 -1.00166,0 -0.32322,0.16717 -0.38493,0.35673 -0.63513,1.95094 -0.17627,1.12324 -0.59719,1.76763 -1.31411,2.01192 -0.35056,0.11947 -1.18812,0.12857 -1.47993,0.0162 z M 87.053919,479.04563 c -1.801824,-0.27808 -3.277719,-0.50793 -3.27981,-0.51074 -0.0086,-0.0116 0.556596,-3.7463 0.585848,-3.87157 0.02988,-0.12774 0.05531,-0.13264 0.403707,-0.078 0.204547,0.032 0.38551,0.072 0.402184,0.0886 0.01659,0.0166 -0.06616,0.68798 -0.184089,1.49179 -0.117912,0.8038 -0.196487,1.47935 -0.174577,1.50129 0.02198,0.022 0.46336,0.10217 0.981014,0.17833 0.836514,0.1231 0.944269,0.12739 0.969017,0.0385 0.01552,-0.055 0.109917,-0.66543 0.210243,-1.35644 l 0.1824,-1.25643 0.384685,0.0402 c 0.211537,0.022 0.399231,0.0548 0.417068,0.0726 0.02845,0.0284 -0.274983,2.24083 -0.356115,2.59813 -0.02845,0.12541 0.02845,0.14191 0.962853,0.27859 0.546223,0.0799 1.294264,0.19176 1.662297,0.24854 l 0.669178,0.10321 -0.04095,0.26692 c -0.11103,0.72397 -0.09493,0.68927 -0.315297,0.6803 -0.111965,-0.005 -1.677821,-0.23578 -3.479645,-0.51383 z m 123.160331,-1.18078 c -0.0187,-0.0803 -0.0737,-0.35993 -0.12195,-0.62144 l -0.0876,-0.47546 0.36628,-0.30302 c 0.20145,-0.16661 1.33342,-1.07659 2.51549,-2.02208 1.18207,-0.94553 2.14054,-1.72786 2.12987,-1.73856 -0.0108,-0.0108 -1.25192,0.21558 -2.75841,0.50277 -1.50645,0.2872 -2.76252,0.5222 -2.7912,0.5222 -0.0542,0 -0.23502,-0.89377 -0.18794,-0.92879 0.0148,-0.0108 1.5593,-0.31161 3.43245,-0.66823 2.25175,-0.42871 3.41913,-0.6252 3.4451,-0.57987 0.0216,0.0377 0.0893,0.32657 0.15044,0.64198 0.10023,0.5171 0.10123,0.5808 0.0104,0.64871 -0.43768,0.32751 -4.95216,3.97175 -4.93818,3.98627 0.0101,0.0104 1.26331,-0.21993 2.7854,-0.51156 1.52208,-0.29163 2.78039,-0.51726 2.79623,-0.50141 0.0159,0.0159 0.0696,0.2234 0.11947,0.46117 0.0821,0.39149 0.0807,0.4353 -0.0148,0.46354 -0.18337,0.0544 -6.61323,1.26976 -6.71742,1.26976 -0.0548,0 -0.11506,-0.0657 -0.13394,-0.14598 z M 88.686353,473.46191 c -0.190396,-0.0317 -0.569894,-0.13258 -0.843325,-0.22422 -1.579224,-0.52947 -2.475794,-1.63637 -2.475794,-3.0566 0,-1.47522 0.801394,-2.66673 2.113587,-3.14263 0.592515,-0.21486 1.678798,-0.19897 2.45818,0.036 0.767236,0.23125 1.273288,0.50771 1.757652,0.96026 0.663374,0.61982 0.953386,1.3059 0.945749,2.23731 -0.005,0.6134 -0.218677,1.34966 -0.535526,1.8453 -0.692985,1.08416 -1.969412,1.58592 -3.420523,1.34463 z m 1.924808,-1.19267 c 0.644287,-0.28914 1.038009,-0.81454 1.174512,-1.56733 0.170116,-0.93825 -0.33118,-1.81076 -1.327581,-2.31065 -0.653396,-0.3278 -1.24173,-0.46668 -1.976983,-0.46675 -0.613477,-4e-5 -0.721519,0.0188 -1.087361,0.18694 -0.744362,0.34257 -1.1209,0.93119 -1.169749,1.8287 -0.03168,0.58228 0.07054,0.91318 0.419733,1.3574 0.770806,0.98077 2.82571,1.48405 3.967429,0.97169 z m 119.240419,-2.09713 c -1.04493,-0.27278 -1.73928,-0.96757 -2.14475,-2.14604 -0.65455,-1.90252 0.57072,-3.73558 2.86364,-4.28407 2.07288,-0.49585 3.72267,0.45699 4.18485,2.41693 0.30737,1.30359 -0.24216,2.60181 -1.4134,3.33878 -1.09863,0.69134 -2.43576,0.94967 -3.49034,0.6744 z m 1.75813,-1.05335 c 1.06876,-0.29588 1.84184,-0.84069 2.18528,-1.54002 0.15076,-0.30702 0.18099,-0.4518 0.17958,-0.8604 0,-0.42175 -0.0317,-0.55224 -0.21356,-0.92172 -0.39224,-0.79678 -1.00908,-1.14947 -2.01038,-1.14947 -1.68037,0 -3.17144,1.00209 -3.35978,2.25801 -0.0929,0.61976 0.26377,1.51128 0.76572,1.91369 0.54792,0.4393 1.52021,0.55814 2.45314,0.29991 z M 90.558246,465.0301 c -1.765475,-0.71475 -3.21803,-1.30759 -3.227864,-1.31742 -0.03312,-0.0331 0.953198,-2.38637 1.100147,-2.62451 0.433899,-0.70311 0.899242,-1.00774 1.542659,-1.00997 1.084731,-0.004 1.978133,0.65527 2.061277,1.5205 l 0.03096,0.32419 0.202572,-0.12375 c 0.111389,-0.068 0.356402,-0.16889 0.54442,-0.22411 0.33868,-0.0994 2.970672,-0.35118 3.031882,-0.29001 0.0331,0.0331 -0.2717,0.83198 -0.34667,0.90828 -0.0238,0.0241 -0.59994,0.0898 -1.28072,0.14612 -0.684554,0.0567 -1.373258,0.1486 -1.54096,0.20574 -0.410258,0.13982 -0.678898,0.47165 -0.966531,1.19403 l -0.235064,0.59035 0.143056,0.0544 c 0.573061,0.21788 2.485089,1.00698 2.527089,1.04297 0.0552,0.0472 -0.263378,0.90839 -0.334748,0.90482 -0.02306,0 -1.486239,-0.58685 -3.251714,-1.30164 z m 0.437528,-1.74306 c 0.435084,-1.1262 0.36314,-1.61114 -0.291161,-1.96265 -0.40691,-0.2186 -0.665428,-0.26799 -0.971574,-0.18556 -0.362997,0.0978 -0.639165,0.42316 -0.928235,1.09366 -0.413326,0.95868 -0.48736,0.82431 0.729011,1.32276 0.58059,0.23791 1.085241,0.43497 1.121375,0.43789 0.0362,0.004 0.189418,-0.31483 0.340584,-0.7061 z m 114.966796,-0.24548 c -0.27538,-0.61601 -0.53952,-0.4434 3.00786,-1.96542 1.74241,-0.7476 3.18139,-1.35928 3.19767,-1.35928 0.0438,0 0.42074,0.85763 0.3903,0.88806 -0.0401,0.0401 -6.35741,2.7448 -6.41094,2.7448 -0.0259,0 -0.10909,-0.13866 -0.18489,-0.30816 z M 93.444658,458.22313 c -1.640832,-0.92403 -2.992622,-1.70798 -3.003965,-1.74206 -0.01157,-0.0342 0.129543,-0.32856 0.313171,-0.6543 l 0.333882,-0.59226 0.302259,0.044 c 0.166258,0.0241 1.287446,0.19526 2.49157,0.3801 2.067905,0.3175 2.182655,0.32871 2.070215,0.20236 -0.0654,-0.0736 -0.74127,-0.87816 -1.50177,-1.78799 -0.7605,-0.90982 -1.438752,-1.71673 -1.507241,-1.7931 -0.123853,-0.13812 -0.122703,-0.14209 0.214641,-0.74602 0.186545,-0.33396 0.348083,-0.61827 0.359031,-0.63182 0.01731,-0.0216 6.042799,3.33281 6.119279,3.40648 0.0449,0.0432 -0.34324,0.74599 -0.43205,0.7823 -0.0598,0.0245 -2.47543,-1.29393 -5.17599,-2.82503 -0.09107,-0.0516 0.15466,0.2488 1.74285,2.13071 l 1.39535,1.65339 -0.20084,0.35763 c -0.11049,0.1967 -0.22426,0.38843 -0.25287,0.426 -0.0357,0.0468 -0.81684,-0.0486 -2.47104,-0.30153 -1.330529,-0.20344 -2.42582,-0.36375 -2.434031,-0.35619 -0.0083,0.008 1.115714,0.64742 2.497581,1.42197 1.38188,0.77455 2.55232,1.43332 2.60102,1.46394 0.0707,0.0445 0.0443,0.13138 -0.13109,0.43155 -0.1208,0.20672 -0.24818,0.38353 -0.28313,0.3929 -0.0349,0.009 -1.40601,-0.739 -3.046832,-1.66306 z m 110.504832,0.55493 c -0.14709,-0.2753 -0.20084,-0.43843 -0.15811,-0.47968 0.0356,-0.0346 1.2471,-0.68009 2.69212,-1.43489 1.44503,-0.75482 2.64587,-1.39225 2.66854,-1.4165 0.0227,-0.0241 -0.20363,-0.51041 -0.50278,-1.0803 -0.29916,-0.56989 -0.54395,-1.06737 -0.54395,-1.10552 0,-0.0381 0.15681,-0.14626 0.34847,-0.24025 l 0.34848,-0.17091 1.37222,2.62616 c 0.7547,1.44441 1.35881,2.64785 1.34246,2.67433 -0.0414,0.067 -0.68081,0.36195 -0.71231,0.32859 -0.0141,-0.0152 -0.26474,-0.48678 -0.55695,-1.04846 -0.29224,-0.56167 -0.55235,-1.03422 -0.57807,-1.05011 -0.0256,-0.0159 -0.76039,0.34333 -1.63264,0.79826 -0.87222,0.45489 -2.0986,1.09471 -2.72523,1.42179 l -1.13935,0.59467 -0.2229,-0.41718 z m -1.30629,-2.54805 c -0.42398,-0.64536 -0.44524,-0.48588 0.17495,-1.31357 0.30333,-0.40479 0.55151,-0.76187 0.55151,-0.79354 0,-0.0452 -1.56531,-2.47219 -1.65905,-2.5723 -0.0126,-0.0136 -0.4344,0.0781 -0.93692,0.20394 l -0.91365,0.22876 -0.28676,-0.42747 c -0.15776,-0.23511 -0.27906,-0.43523 -0.26958,-0.44471 0.0238,-0.0238 7.05209,-1.58221 7.20895,-1.59849 0.0904,-0.009 0.20614,0.10699 0.40612,0.40856 0.15379,0.2319 0.27203,0.45656 0.26277,0.49921 -0.0216,0.0996 -4.28518,6.04428 -4.33847,6.04918 -0.022,0.004 -0.11196,-0.10577 -0.19987,-0.23957 z m 2.36797,-4.27448 c 0.56391,-0.77012 1.01639,-1.40878 1.00555,-1.41931 -0.0227,-0.022 -3.37986,0.75002 -3.4193,0.78634 -0.0335,0.031 1.29688,2.03746 1.34926,2.03501 0.0216,0 0.50062,-0.63192 1.06449,-1.40204 z M 98.47142,450.366 c -1.01686,-1.57482 -1.92769,-2.98814 -2.02403,-3.14072 l -0.17515,-0.27743 0.32743,-0.43252 c 0.2934,-0.38756 0.34531,-0.42816 0.49953,-0.39088 0.37752,0.0913 7.05008,1.93336 7.07159,1.9522 0.031,0.027 -0.57094,0.80657 -0.62285,0.80657 -0.0223,0 -0.43382,-0.1187 -0.91419,-0.26374 -0.48033,-0.14507 -0.89087,-0.23809 -0.91227,-0.20668 -0.0213,0.0313 -0.433,0.59287 -0.91466,1.24775 -0.4817,0.65487 -0.86898,1.21353 -0.86062,1.24144 0.008,0.0277 0.23457,0.37028 0.50275,0.76079 0.2682,0.39052 0.4876,0.74354 0.4876,0.78446 0,0.0849 -0.51319,0.78251 -0.5754,0.78222 -0.0223,-7e-5 -0.87287,-1.28863 -1.88973,-2.86346 z m 1.68521,-1.22991 c 0.39786,-0.53887 0.70826,-0.99489 0.68975,-1.0134 -0.0259,-0.0259 -3.32989,-0.991 -3.39279,-0.991 -0.008,0 0.42593,0.67141 0.96412,1.49204 0.53819,0.82063 0.98681,1.49208 0.99701,1.49208 0.01,0 0.34404,-0.44089 0.74191,-0.97972 z m 98.65849,0.81721 c -0.79689,-0.32424 -1.50886,-0.9491 -1.96171,-1.72171 -0.59496,-1.0152 -0.63725,-1.99712 -0.13041,-3.02911 0.4273,-0.86991 1.56543,-1.84978 2.554,-2.19875 0.52227,-0.18439 1.35694,-0.20679 1.89142,-0.0508 1.02868,0.30027 2.0325,1.33936 2.42583,2.51106 0.2462,0.73338 0.23218,0.81205 -0.20838,1.16947 l -0.373,0.30261 -0.0483,-0.46783 c -0.083,-0.80402 -0.3327,-1.3698 -0.8421,-1.90846 -0.82578,-0.87315 -1.74674,-1.01171 -2.85777,-0.42992 -0.48274,0.25278 -1.24411,0.91908 -1.5375,1.34548 -0.29989,0.43587 -0.47634,1.0389 -0.42767,1.46167 0.12437,1.08051 1.10797,2.11902 2.27852,2.40568 0.40305,0.0987 0.41393,0.10945 0.24609,0.24231 -0.0758,0.06 -0.25106,0.20106 -0.38948,0.3135 l -0.25167,0.20441 -0.36786,-0.14965 z m -95.5391,-5.41005 c -1.26443,-1.14382 -2.30366,-2.07296 -2.30943,-2.06478 -0.0195,0.0274 -1.40827,1.57008 -1.52532,1.69418 -0.11261,0.11939 -0.12278,0.1164 -0.41289,-0.12133 -0.16363,-0.13406 -0.29746,-0.26904 -0.29746,-0.29995 0,-0.0412 2.68243,-3.04842 3.86407,-4.33191 0.0694,-0.0754 0.13012,-0.0508 0.37978,0.1538 0.16345,0.1339 0.29718,0.27264 0.29718,0.3083 0,0.0554 -0.63708,0.7836 -1.409,1.61063 l -0.21601,0.23143 2.27214,2.0574 c 1.24966,1.13153 2.27214,2.08358 2.27214,2.11564 0,0.032 -0.13867,0.20855 -0.30817,0.39225 l -0.30813,0.33395 -2.2989,-2.07961 z m 90.30681,-0.0299 -0.34171,-0.34599 2.51805,-2.47298 2.51801,-2.47298 0.35154,0.35016 0.35154,0.35017 -1.90904,1.86966 c -1.04996,1.02828 -2.18751,2.13925 -2.52784,2.46881 l -0.61885,0.59914 -0.3417,-0.34599 z m -87.07794,-3.6284 c -1.22508,-1.29494 -2.29872,-2.43404 -2.38591,-2.5313 l -0.15847,-0.17689 0.31821,-0.32308 c 0.17505,-0.17768 0.33836,-0.32308 0.36296,-0.32308 0.0245,0 1.12948,1.14562 2.45533,2.5458 l 2.41058,2.54574 -0.32347,0.3086 c -0.17793,0.16976 -0.3524,0.30859 -0.38767,0.30859 -0.0353,0 -1.0665,-1.05947 -2.29156,-2.35438 z m 84.74657,1.30964 c -0.25686,-0.21781 -0.467,-0.40604 -0.467,-0.41826 0,-0.0249 1.19353,-5.36818 1.32877,-5.94862 0.0479,-0.20517 0.0788,-0.37302 0.0688,-0.37302 -0.0101,0 -0.84321,0.96337 -1.85168,2.1408 -1.00847,1.17742 -1.86624,2.13963 -1.90612,2.13826 -0.0399,0 -0.21608,-0.129 -0.3916,-0.2837 l -0.31912,-0.28122 2.2581,-2.63726 c 1.24194,-1.45053 2.27678,-2.64885 2.29966,-2.66301 0.0776,-0.048 0.97831,0.75196 0.97831,0.86887 0,0.0636 -0.30654,1.48202 -0.68121,3.15188 -0.3747,1.66986 -0.67094,3.0464 -0.65837,3.05901 0.0126,0.0127 0.84851,-0.94099 1.85756,-2.11906 1.009,-1.17811 1.85262,-2.14068 1.87466,-2.1391 0.0922,0.007 0.66932,0.57433 0.6476,0.63694 -0.0365,0.10522 -4.46984,5.26352 -4.52381,5.26352 -0.0259,0 -0.2577,-0.17822 -0.51456,-0.39603 z m -80.38509,-2.0103 c -1.46156,-0.25355 -3.02053,-1.95821 -3.24623,-3.54968 -0.18553,-1.30806 0.55926,-2.62739 1.84818,-3.27401 0.96899,-0.48613 2.11082,-0.4108 3.0526,0.20135 0.46974,0.30535 1.21562,1.08934 1.51185,1.58908 0.41117,0.69371 0.54864,1.16789 0.54885,1.89305 1.5e-4,0.52049 -0.0288,0.72335 -0.14709,1.02655 -0.54279,1.39275 -2.16939,2.35629 -3.56816,2.11366 z m 1.60163,-1.09911 c 0.42986,-0.21478 0.77095,-0.54993 1.00152,-0.98404 0.19698,-0.37085 0.21013,-1.22195 0.0263,-1.70581 -0.3207,-0.84434 -1.18762,-1.85536 -1.8893,-2.20333 -0.31209,-0.15477 -0.49258,-0.19724 -0.92477,-0.21756 -0.47893,-0.0223 -0.57512,-0.006 -0.88988,0.14738 -0.45079,0.22055 -0.86897,0.62789 -1.06862,1.04096 -0.21324,0.44106 -0.21803,1.198 -0.0109,1.72855 0.34841,0.89282 1.11543,1.76731 1.88995,2.1548 0.42023,0.21021 0.52647,0.236 0.97171,0.236 0.42698,0 0.55739,-0.0288 0.89405,-0.19695 z m 72.21004,-2.06434 c -0.84447,-0.27769 -1.68561,-0.97147 -2.01055,-1.65833 -0.32052,-0.6775 -0.22718,-1.53538 0.25603,-2.3528 0.42766,-0.72347 2.56611,-3.87863 2.61828,-3.86314 0.0706,0.0209 0.76648,0.48101 0.76648,0.50674 0,0.0104 -0.57368,0.8881 -1.27488,1.95068 -0.70117,1.06257 -1.34812,2.09197 -1.43764,2.28752 -0.19789,0.43223 -0.22185,0.97514 -0.0568,1.28586 0.30189,0.56816 1.0866,1.05581 1.69904,1.05581 0.73979,0 0.95612,-0.21955 2.49561,-2.53214 0.70718,-1.06232 1.31453,-1.98292 1.3497,-2.04575 0.0596,-0.10642 0.0835,-0.10275 0.34973,0.0532 0.15722,0.0921 0.34743,0.22098 0.42277,0.28637 l 0.13692,0.11888 -1.30797,1.96283 c -0.72153,1.08271 -1.46477,2.12262 -1.65765,2.31929 -0.66569,0.67869 -1.50591,0.90223 -2.34913,0.62493 z m -69.08038,-3.36245 c -0.90983,-1.52093 -1.72095,-2.87647 -1.80251,-3.01225 l -0.14828,-0.24692 0.25091,-0.15837 c 0.13799,-0.0872 0.39445,-0.23824 0.56993,-0.3358 l 0.31904,-0.17735 2.62732,1.58757 c 2.81162,1.69898 2.95295,1.78162 2.90122,1.69696 -0.4456,-0.72934 -2.90122,-4.83911 -2.90122,-4.85558 0,-0.0698 0.79696,-0.49311 0.83929,-0.44578 0.0606,0.0677 3.57202,5.92698 3.57202,5.96034 0,0.0126 -0.24789,0.17296 -0.55091,0.35601 l -0.55091,0.33277 -2.74821,-1.6583 c -1.51153,-0.91206 -2.7658,-1.65829 -2.78723,-1.65829 -0.0216,0 0.60541,1.0728 1.39307,2.38403 0.78763,1.31126 1.44471,2.41627 1.46012,2.45561 0.0206,0.0526 -0.70106,0.55606 -0.77783,0.54273 -0.006,0 -0.75599,-1.24642 -1.66582,-2.76738 z m 63.85039,0.0892 c -0.22299,-0.11103 -0.40543,-0.22077 -0.40543,-0.24386 0,-0.0231 0.42669,-0.91455 0.94827,-1.98097 0.52154,-1.06644 1.10671,-2.27467 1.30034,-2.68496 l 0.35209,-0.74605 -0.53812,0.52402 c -0.29596,0.28825 -1.11417,1.0691 -1.81821,1.73528 l -1.28014,1.21122 -0.42276,-0.20848 c -0.39528,-0.19489 -0.42277,-0.22264 -0.42277,-0.42654 0,-0.11996 0.0891,-1.15409 0.19793,-2.29807 0.10887,-1.14396 0.18917,-2.14022 0.1784,-2.21389 -0.018,-0.124 -0.37784,0.58476 -2.07666,4.09122 l -0.50987,1.05245 -0.41942,-0.20682 c -0.23067,-0.11373 -0.41937,-0.22405 -0.41937,-0.24512 0,-0.0579 2.9879,-6.18604 3.04572,-6.24667 0.0647,-0.0678 1.3007,0.54399 1.3007,0.64378 0,0.0414 -0.10249,1.14871 -0.22775,2.46062 -0.12526,1.31191 -0.2159,2.39715 -0.20142,2.41163 0.0144,0.0144 0.82124,-0.72718 1.79282,-1.64813 0.97157,-0.92093 1.79977,-1.68259 1.84041,-1.69249 0.0849,-0.0209 1.27213,0.54442 1.27213,0.60556 0,0.0527 -2.98919,6.21107 -3.04147,6.26608 -0.022,0.0231 -0.22242,-0.0488 -0.44542,-0.15981 z m -53.52003,-5.88324 0.017,-3.77412 0.37427,-0.15228 c 0.20585,-0.0837 0.42867,-0.1695 0.49513,-0.19062 0.0963,-0.0306 0.63186,0.53034 2.63268,2.7573 1.38151,1.53758 2.50155,2.80439 2.48898,2.81508 -0.0126,0.0108 -0.18341,0.0793 -0.37963,0.15239 -0.19624,0.0731 -0.4023,0.15106 -0.45793,0.17317 -0.0723,0.0288 -0.27397,-0.16366 -0.7079,-0.67555 -0.33375,-0.39368 -0.62638,-0.71579 -0.65034,-0.71579 -0.0238,0 -0.40601,0.14158 -0.84902,0.31464 -0.443,0.17307 -1.08278,0.42136 -1.42175,0.55177 l -0.61629,0.23713 0.022,0.95871 0.022,0.95876 -0.44089,0.15995 c -0.24249,0.088 -0.46423,0.16975 -0.49272,0.18174 -0.0284,0.0119 -0.0443,-1.67652 -0.0353,-3.75228 z m 2.07734,0.15639 c 0.61499,-0.23529 1.12666,-0.43602 1.13708,-0.446 0.0104,-0.0101 -0.51197,-0.62094 -1.16086,-1.35763 -0.64889,-0.73669 -1.18549,-1.33147 -1.19248,-1.32174 -0.0245,0.0338 0.0478,3.55317 0.0729,3.55317 0.0141,0 0.52842,-0.19252 1.14338,-0.4278 z m 43.60938,2.16536 c -0.21406,-0.0734 -0.39459,-0.1373 -0.40111,-0.14191 -0.006,-0.005 0.39419,-1.26144 0.89048,-2.79292 0.49633,-1.53149 0.892,-2.79491 0.87928,-2.80763 -0.0126,-0.0126 -0.69753,0.82481 -1.5218,1.86116 -0.8243,1.03635 -1.52536,1.88425 -1.55792,1.88425 -0.0328,0 -0.24768,-0.0582 -0.47796,-0.12934 l -0.41873,-0.12932 -0.0404,-0.69779 c -0.0223,-0.38378 -0.0757,-1.51369 -0.119,-2.51091 l -0.0786,-1.81318 -0.27599,0.84009 c -0.15182,0.46203 -0.57173,1.75466 -0.93321,2.87254 -0.51733,1.59986 -0.6775,2.02471 -0.75247,1.99593 -0.0524,-0.0202 -0.25474,-0.0829 -0.44964,-0.13956 -0.19493,-0.0567 -0.35438,-0.11878 -0.35438,-0.13802 0,-0.0915 2.10487,-6.54827 2.15239,-6.60257 0.0338,-0.0388 0.29879,0.0177 0.70239,0.15012 0.52662,0.1726 0.6534,0.23892 0.6771,0.35417 0.0159,0.078 0.0629,1.00296 0.10394,2.05551 0.0411,1.05257 0.0937,2.11328 0.11697,2.35713 l 0.0422,0.44337 1.49204,-1.86577 c 0.82066,-1.02616 1.52125,-1.90407 1.55695,-1.9509 0.0523,-0.0687 0.19029,-0.0443 0.7136,0.12606 0.3568,0.11618 0.66111,0.23427 0.67624,0.26241 0.045,0.0837 -2.09767,6.66017 -2.16832,6.65516 -0.0356,-0.004 -0.24003,-0.0646 -0.4541,-0.13808 z m -38.46301,-1.27423 c -0.0847,-0.13978 -1.71975,-6.7212 -1.67858,-6.75661 0.0451,-0.0388 1.10012,-0.32672 1.18918,-0.32456 0.0198,0 1.01221,1.07842 2.20566,2.39545 1.19342,1.31703 2.17595,2.38865 2.18337,2.38141 0.008,-0.007 -0.30294,-1.25265 -0.68967,-2.7676 -0.44182,-1.73082 -0.67865,-2.76987 -0.63726,-2.79603 0.0898,-0.0568 0.82413,-0.2101 0.85464,-0.1784 0.0292,0.0303 1.72383,6.64775 1.72383,6.73118 0,0.0545 -0.99525,0.33284 -1.18993,0.33284 -0.0505,0 -1.07674,-1.08476 -2.28054,-2.41061 -1.20379,-1.32586 -2.17209,-2.35486 -2.15174,-2.28673 0.0936,0.31371 1.36001,5.32419 1.36617,5.40528 0.007,0.095 -0.84542,0.35637 -0.89513,0.27438 z m 27.66179,-1.47478 c -1.0727,-0.28471 -1.92578,-1.07779 -2.21237,-2.05668 -0.30456,-1.04024 -0.10991,-2.595 0.44431,-3.54881 0.29789,-0.51272 0.84059,-1.02137 1.36764,-1.28183 0.43566,-0.21532 0.54496,-0.2413 1.11106,-0.26403 0.75691,-0.0302 1.20071,0.0536 1.79942,0.34051 1.32387,0.63445 1.94801,2.13798 1.61344,3.88674 -0.29018,1.51657 -1.08829,2.54204 -2.26421,2.90911 -0.4621,0.14424 -1.34546,0.15137 -1.85929,0.0152 z m 1.66432,-0.89946 c 0.6828,-0.31068 1.21796,-1.12727 1.42348,-2.17213 0.37586,-1.91084 -0.49041,-3.27196 -2.08459,-3.27538 -0.98887,-0.004 -1.77253,0.69576 -2.12846,1.89549 -0.28292,0.95346 -0.26425,1.90136 0.0507,2.57612 0.47211,1.0116 1.6994,1.44888 2.73889,0.9759 z m -22.09904,0.60923 c 0,-0.038 -0.19061,-1.59017 -0.42359,-3.44927 -0.23297,-1.85911 -0.40082,-3.4004 -0.373,-3.42515 0.0795,-0.0707 2.39714,-0.32502 2.93738,-0.32232 2.07184,0.0105 3.19051,1.1485 3.34931,3.40771 0.10735,1.52731 -0.42511,2.54676 -1.6302,3.12119 -0.58941,0.28096 -1.25931,0.44401 -2.48891,0.60581 -1.13336,0.1491 -1.37099,0.15988 -1.37099,0.0621 z m 1.85057,-0.96541 c 1.37265,-0.20081 1.97914,-0.52075 2.36725,-1.24894 0.42103,-0.7899 0.26277,-2.49251 -0.30838,-3.31811 -0.516,-0.74587 -1.35623,-0.95208 -3.03744,-0.74548 -0.55422,0.0681 -0.6125,0.0882 -0.6125,0.21093 0,0.0747 0.14579,1.27416 0.32397,2.66558 0.17815,1.39145 0.32413,2.53721 0.32434,2.54611 0,0.0259 0.0554,0.0198 0.94276,-0.11009 z m 11.60047,0.44452 c -0.75131,-0.12552 -1.5889,-0.59238 -1.97568,-1.10113 -0.50468,-0.66391 -0.71428,-1.36868 -0.71259,-2.39581 0.004,-1.85612 0.78331,-3.1114 2.22801,-3.5847 0.62443,-0.20455 1.72441,-0.18683 2.41635,0.039 0.28543,0.0931 0.66478,0.26522 0.843,0.38238 l 0.32401,0.21305 -0.022,0.48584 c -0.0122,0.26721 -0.0331,0.49723 -0.0466,0.51117 -0.0134,0.0141 -0.14101,-0.0799 -0.28342,-0.20855 -0.56823,-0.51341 -1.41354,-0.79462 -2.22234,-0.73939 -1.42749,0.0975 -2.18936,1.11802 -2.19202,2.93623 0,1.12498 0.30434,1.8661 0.946,2.29109 0.43829,0.2903 0.74381,0.36548 1.48573,0.36548 0.76169,0 1.02021,-0.0677 1.60386,-0.41966 0.23788,-0.14349 0.44142,-0.26094 0.4523,-0.26105 0.0108,-7e-5 0.0101,0.21959 0,0.48808 l -0.0213,0.48823 -0.32538,0.16488 c -0.70791,0.35875 -1.64129,0.48771 -2.49611,0.34487 z"
       id="path5097"
       inkscape:connector-curvature="0"
       inkscape:export-filename="/home/mj/Desktop/cict_logo/dark.png"
       inkscape:export-xdpi="499.84277"
       inkscape:export-ydpi="499.84277" />
  </g>
</svg>
