<?xml version="1.0" encoding="UTF-8" standalone="no"?>
<!-- Created with Inkscape (http://www.inkscape.org/) -->

<svg
   xmlns:dc="http://purl.org/dc/elements/1.1/"
   xmlns:cc="http://creativecommons.org/ns#"
   xmlns:rdf="http://www.w3.org/1999/02/22-rdf-syntax-ns#"
   xmlns:svg="http://www.w3.org/2000/svg"
   xmlns="http://www.w3.org/2000/svg"
   xmlns:sodipodi="http://sodipodi.sourceforge.net/DTD/sodipodi-0.dtd"
   xmlns:inkscape="http://www.inkscape.org/namespaces/inkscape"
   width="45.623901mm"
   height="62.511909mm"
   viewBox="0 0 161.65949 221.49889"
   id="svg2"
   version="1.1"
   inkscape:version="0.91 r13725"
   sodipodi:docname="css.svg">
  <defs
     id="defs4" />
  <sodipodi:namedview
     id="base"
     pagecolor="#ffffff"
     bordercolor="#666666"
     borderopacity="1.0"
     inkscape:pageopacity="0.0"
     inkscape:pageshadow="2"
     inkscape:zoom="0.98994949"
     inkscape:cx="174.42118"
     inkscape:cy="130.86372"
     inkscape:document-units="px"
     inkscape:current-layer="g4220"
     showgrid="false"
     inkscape:snap-bbox="true"
     inkscape:bbox-paths="true"
     inkscape:bbox-nodes="true"
     inkscape:snap-bbox-edge-midpoints="true"
     inkscape:snap-bbox-midpoints="true"
     inkscape:object-paths="true"
     inkscape:snap-intersection-paths="true"
     inkscape:object-nodes="true"
     inkscape:snap-smooth-nodes="true"
     inkscape:snap-midpoints="true"
     fit-margin-top="0"
     fit-margin-left="0"
     fit-margin-right="0"
     fit-margin-bottom="0"
     inkscape:window-width="1301"
     inkscape:window-height="744"
     inkscape:window-x="65"
     inkscape:window-y="24"
     inkscape:window-maximized="1"
     showguides="true"
     inkscape:guide-bbox="true"
     inkscape:snap-global="true">
    <sodipodi:guide
       position="92.213857,190.42332"
       orientation="0,1"
       id="guide4972" />
    <sodipodi:guide
       position="80.724836,165.06483"
       orientation="1,0"
       id="guide4974" />
  </sodipodi:namedview>
  <metadata
     id="metadata7">
    <rdf:RDF>
      <cc:Work
         rdf:about="">
        <dc:format>image/svg+xml</dc:format>
        <dc:type
           rdf:resource="http://purl.org/dc/dcmitype/StillImage" />
        <dc:title></dc:title>
      </cc:Work>
    </rdf:RDF>
  </metadata>
  <g
     inkscape:label="Layer 1"
     inkscape:groupmode="layer"
     id="layer1"
     transform="translate(-174.88454,-173.00567)">
    <g
       id="g4220"
       transform="matrix(1.25,0,0,1.25,168.29396,158.10252)">
      <g
         transform="matrix(0.92461041,0,0,0.92461041,216.65619,-8.6499422)"
         id="g4181"
         style="fill:#0c73b8;fill-opacity:1">
        <path
           style="fill:#0c73b8;fill-opacity:1;fill-rule:evenodd;stroke:none;stroke-width:0.80000001px;stroke-linecap:butt;stroke-linejoin:miter;stroke-opacity:1"
           d="m -223.54081,59.629664 12.82247,131.803056 52.48266,15.50623 52.48267,-14.90985 11.927869,-131.803043 z"
           id="path4179"
           inkscape:connector-curvature="0" />
      </g>
      <path
         inkscape:connector-curvature="0"
         id="path4200"
         d="m 69.852331,57.069771 0,114.636869 40.161899,-9.74804 9.35812,-104.888829 z"
         style="fill:#30a9dc;fill-opacity:1;fill-rule:evenodd;stroke:none;stroke-width:0.80000001px;stroke-linecap:butt;stroke-linejoin:miter;stroke-opacity:1" />
      <path
         inkscape:connector-curvature="0"
         id="path4267"
         d=""
         style="fill:#000000" />
      <path
         style="fill:#ffffff;fill-opacity:1;fill-rule:evenodd;stroke:none;stroke-width:0.80000001px;stroke-linecap:butt;stroke-linejoin:miter;stroke-opacity:1"
         d="m 34.196665,73.894139 1.320629,14.69203 54.476068,0 -1.32064,14.857121 -35.3269,0 0.66031,13.37139 33.67612,0 -1.98094,19.31425 -15.68251,4.12697 -16.01267,-4.45713 -1.15555,-11.22538 -14.031717,0 1.485716,21.95551 29.879291,8.74919 29.05391,-8.25395 6.438068,-72.964921 z"
         id="path5667"
         inkscape:connector-curvature="0" />
      <g
         transform="matrix(0.79899358,0,0,0.79899358,-67.29835,5.3174062)"
         style="font-style:normal;font-weight:normal;font-size:32px;line-height:125%;font-family:sans-serif;letter-spacing:0px;word-spacing:0px;fill:#333333;fill-opacity:1;stroke:none;stroke-width:1px;stroke-linecap:butt;stroke-linejoin:miter;stroke-opacity:1"
         id="flowRoot4964-6">
        <path
           d="m 161.29492,31.490885 q -0.26562,3.671875 -2.71875,5.78125 -2.4375,2.109375 -6.4375,2.109375 -4.375,0 -6.89062,-2.9375 -2.5,-2.953125 -2.5,-8.09375 l 0,-1.390625 q 0,-3.28125 1.15625,-5.78125 1.15625,-2.5 3.29687,-3.828125 2.15625,-1.34375 5,-1.34375 3.9375,0 6.34375,2.109375 2.40625,2.109375 2.78125,5.921875 l -4.6875,0 q -0.17187,-2.203125 -1.23437,-3.1875 -1.04688,-1 -3.20313,-1 -2.34375,0 -3.51562,1.6875 -1.15625,1.671875 -1.1875,5.203125 l 0,1.71875 q 0,3.6875 1.10937,5.390625 1.125,1.703125 3.53125,1.703125 2.17188,0 3.23438,-0.984375 1.07812,-1 1.23437,-3.078125 l 4.6875,0 z"
           style="font-style:normal;font-variant:normal;font-weight:bold;font-stretch:normal;font-family:Roboto;-inkscape-font-specification:'Roboto Bold';text-align:center;text-anchor:middle;fill:#333333"
           id="path5694" />
        <path
           d="m 176.16992,33.10026 q 0,-1.328125 -0.9375,-2.03125 -0.9375,-0.71875 -3.375,-1.5 -2.4375,-0.796875 -3.85937,-1.5625 -3.875,-2.09375 -3.875,-5.640625 0,-1.84375 1.03125,-3.28125 1.04687,-1.453125 2.98437,-2.265625 1.95313,-0.8125 4.375,-0.8125 2.4375,0 4.34375,0.890625 1.90625,0.875 2.95313,2.484375 1.0625,1.609375 1.0625,3.65625 l -4.6875,0 q 0,-1.5625 -0.98438,-2.421875 -0.98437,-0.875 -2.76562,-0.875 -1.71875,0 -2.67188,0.734375 -0.95312,0.71875 -0.95312,1.90625 0,1.109375 1.10937,1.859375 1.125,0.75 3.29688,1.40625 4,1.203125 5.82812,2.984375 1.82813,1.78125 1.82813,4.4375 0,2.953125 -2.23438,4.640625 -2.23437,1.671875 -6.01562,1.671875 -2.625,0 -4.78125,-0.953125 -2.15625,-0.96875 -3.29688,-2.640625 -1.125,-1.671875 -1.125,-3.875 l 4.70313,0 q 0,3.765625 4.5,3.765625 1.67187,0 2.60937,-0.671875 0.9375,-0.6875 0.9375,-1.90625 z"
           style="font-style:normal;font-variant:normal;font-weight:bold;font-stretch:normal;font-family:Roboto;-inkscape-font-specification:'Roboto Bold';text-align:center;text-anchor:middle;fill:#333333"
           id="path5696" />
        <path
           d="m 195.85742,33.10026 q 0,-1.328125 -0.9375,-2.03125 -0.9375,-0.71875 -3.375,-1.5 -2.4375,-0.796875 -3.85937,-1.5625 -3.875,-2.09375 -3.875,-5.640625 0,-1.84375 1.03125,-3.28125 1.04687,-1.453125 2.98437,-2.265625 1.95313,-0.8125 4.375,-0.8125 2.4375,0 4.34375,0.890625 1.90625,0.875 2.95313,2.484375 1.0625,1.609375 1.0625,3.65625 l -4.6875,0 q 0,-1.5625 -0.98438,-2.421875 -0.98437,-0.875 -2.76562,-0.875 -1.71875,0 -2.67188,0.734375 -0.95312,0.71875 -0.95312,1.90625 0,1.109375 1.10937,1.859375 1.125,0.75 3.29688,1.40625 4,1.203125 5.82812,2.984375 1.82813,1.78125 1.82813,4.4375 0,2.953125 -2.23438,4.640625 -2.23437,1.671875 -6.01562,1.671875 -2.625,0 -4.78125,-0.953125 -2.15625,-0.96875 -3.29688,-2.640625 -1.125,-1.671875 -1.125,-3.875 l 4.70313,0 q 0,3.765625 4.5,3.765625 1.67187,0 2.60937,-0.671875 0.9375,-0.6875 0.9375,-1.90625 z"
           style="font-style:normal;font-variant:normal;font-weight:bold;font-stretch:normal;font-family:Roboto;-inkscape-font-specification:'Roboto Bold';text-align:center;text-anchor:middle;fill:#333333"
           id="path5698" />
      </g>
    </g>
  </g>
</svg>
