<?xml version="1.0" encoding="UTF-8" standalone="no"?>
<!-- Created with Inkscape (http://www.inkscape.org/) -->

<svg
   xmlns:dc="http://purl.org/dc/elements/1.1/"
   xmlns:cc="http://creativecommons.org/ns#"
   xmlns:rdf="http://www.w3.org/1999/02/22-rdf-syntax-ns#"
   xmlns:svg="http://www.w3.org/2000/svg"
   xmlns="http://www.w3.org/2000/svg"
   xmlns:sodipodi="http://sodipodi.sourceforge.net/DTD/sodipodi-0.dtd"
   xmlns:inkscape="http://www.inkscape.org/namespaces/inkscape"
   width="32"
   height="32"
   viewBox="0 0 31.999999 32"
   id="svg4228"
   version="1.1"
   inkscape:version="0.91 r13725"
   sodipodi:docname="favicon.svg">
  <defs
     id="defs4230" />
  <sodipodi:namedview
     id="base"
     pagecolor="#ffffff"
     bordercolor="#666666"
     borderopacity="1.0"
     inkscape:pageopacity="0.0"
     inkscape:pageshadow="2"
     inkscape:zoom="11.2"
     inkscape:cx="18.286167"
     inkscape:cy="19.338699"
     inkscape:document-units="px"
     inkscape:current-layer="layer1"
     showgrid="false"
     fit-margin-top="0"
     fit-margin-left="0"
     fit-margin-right="0"
     fit-margin-bottom="0"
     units="px"
     inkscape:window-width="1301"
     inkscape:window-height="744"
     inkscape:window-x="65"
     inkscape:window-y="24"
     inkscape:window-maximized="1" />
  <metadata
     id="metadata4233">
    <rdf:RDF>
      <cc:Work
         rdf:about="">
        <dc:format>image/svg+xml</dc:format>
        <dc:type
           rdf:resource="http://purl.org/dc/dcmitype/StillImage" />
        <dc:title></dc:title>
      </cc:Work>
    </rdf:RDF>
  </metadata>
  <g
     inkscape:label="Layer 1"
     inkscape:groupmode="layer"
     id="layer1"
     transform="translate(-159.36593,-409.07412)">
    <path
       style="fill:#ffc107;fill-opacity:1"
       d="m 175.44511,409.49847 -12.95418,5.75766 0,8.63539 c 0,7.99539 5.52013,15.45116 12.95418,17.27189 7.43405,-1.82073 12.9531,-9.2765 12.9531,-17.27189 l 0,-8.63539 -12.9531,-5.75766 z m 0,3.15239 0,12.66554 10.07536,0 c -0.76284,5.92997 -4.71392,11.21247 -10.07536,12.86048 l 0,-12.84648 -10.07536,0 0,-8.20353 10.07536,-4.47601 z m 2.4211,0.8196 7.05545,4.56971 0,1.86429 -7.05545,4.56972 0,-2.43079 4.84328,-3.03499 0,-0.0732 -4.84328,-3.03391 0,-2.43079 z m -4.5988,12.91002 0,2.43187 -4.84435,3.03391 0,0.0732 4.84435,3.03499 0,2.4308 -7.05544,-4.56972 0,-1.86429 7.05544,-4.5708 z"
       id="path4"
       inkscape:connector-curvature="0" />
  </g>
</svg>
