<?xml version="1.0" encoding="UTF-8" standalone="no"?>
<!-- Created with Inkscape (http://www.inkscape.org/) -->

<svg
   xmlns:dc="http://purl.org/dc/elements/1.1/"
   xmlns:cc="http://creativecommons.org/ns#"
   xmlns:rdf="http://www.w3.org/1999/02/22-rdf-syntax-ns#"
   xmlns:svg="http://www.w3.org/2000/svg"
   xmlns="http://www.w3.org/2000/svg"
   xmlns:sodipodi="http://sodipodi.sourceforge.net/DTD/sodipodi-0.dtd"
   xmlns:inkscape="http://www.inkscape.org/namespaces/inkscape"
   width="45.623901mm"
   height="62.511909mm"
   viewBox="0 0 161.65949 221.49889"
   id="svg2"
   version="1.1"
   inkscape:version="0.91 r13725"
   sodipodi:docname="html.svg">
  <defs
     id="defs4" />
  <sodipodi:namedview
     id="base"
     pagecolor="#ffffff"
     bordercolor="#666666"
     borderopacity="1.0"
     inkscape:pageopacity="0.0"
     inkscape:pageshadow="2"
     inkscape:zoom="1.4"
     inkscape:cx="125.85893"
     inkscape:cy="151.35144"
     inkscape:document-units="px"
     inkscape:current-layer="g4220"
     showgrid="false"
     inkscape:snap-bbox="true"
     inkscape:bbox-paths="true"
     inkscape:bbox-nodes="true"
     inkscape:snap-bbox-edge-midpoints="true"
     inkscape:snap-bbox-midpoints="true"
     inkscape:object-paths="true"
     inkscape:snap-intersection-paths="true"
     inkscape:object-nodes="true"
     inkscape:snap-smooth-nodes="true"
     inkscape:snap-midpoints="true"
     fit-margin-top="0"
     fit-margin-left="0"
     fit-margin-right="0"
     fit-margin-bottom="0"
     inkscape:window-width="1301"
     inkscape:window-height="744"
     inkscape:window-x="65"
     inkscape:window-y="24"
     inkscape:window-maximized="1"
     showguides="true"
     inkscape:guide-bbox="true"
     inkscape:snap-global="false">
    <sodipodi:guide
       position="92.213857,190.42332"
       orientation="0,1"
       id="guide4972" />
    <sodipodi:guide
       position="80.724836,165.06483"
       orientation="1,0"
       id="guide4974" />
  </sodipodi:namedview>
  <metadata
     id="metadata7">
    <rdf:RDF>
      <cc:Work
         rdf:about="">
        <dc:format>image/svg+xml</dc:format>
        <dc:type
           rdf:resource="http://purl.org/dc/dcmitype/StillImage" />
        <dc:title></dc:title>
      </cc:Work>
    </rdf:RDF>
  </metadata>
  <g
     inkscape:label="Layer 1"
     inkscape:groupmode="layer"
     id="layer1"
     transform="translate(-174.88454,-173.00567)">
    <g
       id="g4220"
       transform="matrix(1.25,0,0,1.25,168.29396,158.10252)">
      <g
         transform="matrix(0.92461041,0,0,0.92461041,216.65619,-8.6499422)"
         id="g4181">
        <path
           style="fill:#e55126;fill-opacity:1;fill-rule:evenodd;stroke:none;stroke-width:0.80000001px;stroke-linecap:butt;stroke-linejoin:miter;stroke-opacity:1"
           d="m -223.54081,59.629664 12.82247,131.803056 52.48266,15.50623 52.48267,-14.90985 11.927869,-131.803043 z"
           id="path4179"
           inkscape:connector-curvature="0" />
      </g>
      <path
         inkscape:connector-curvature="0"
         id="path4200"
         d="m 69.852331,57.069771 0,114.636869 40.161899,-9.74804 9.35812,-104.888829 z"
         style="fill:#f1672c;fill-opacity:1;fill-rule:evenodd;stroke:none;stroke-width:0.80000001px;stroke-linecap:butt;stroke-linejoin:miter;stroke-opacity:1" />
      <path
         inkscape:connector-curvature="0"
         id="path4267"
         d=""
         style="fill:#000000" />
      <path
         style="fill:#ffffff;fill-opacity:1;fill-rule:evenodd;stroke:none;stroke-width:0.80000001px;stroke-linecap:butt;stroke-linejoin:miter;stroke-opacity:1"
         d="m 40.948757,146.21462 28.578812,8.11898 29.228336,-7.95661 3.572355,-43.68012 -51.311967,0 -0.649523,-14.127023 53.26053,-0.162387 0.97428,-13.964644 -69.498502,0 3.409982,42.543454 48.226749,0 -1.136649,18.34891 -15.750829,4.22187 -15.750829,-4.54663 -1.136661,-10.71706 -13.802269,-0.16237 z"
         id="path4962"
         inkscape:connector-curvature="0" />
      <g
         transform="matrix(0.79899358,0,0,0.79899358,-67.778995,5.5670917)"
         style="font-style:normal;font-weight:normal;font-size:32px;line-height:125%;font-family:sans-serif;letter-spacing:0px;word-spacing:0px;fill:#333333;fill-opacity:1;stroke:none;stroke-width:1px;stroke-linecap:butt;stroke-linejoin:miter;stroke-opacity:1"
         id="flowRoot4964">
        <path
           d="m 148.41992,39.06901 -4.6875,0 0,-9.75 -9.14062,0 0,9.75 -4.6875,0 0,-22.75 4.6875,0 0,9.21875 9.14062,0 0,-9.21875 4.6875,0 0,22.75 z"
           style="font-style:normal;font-variant:normal;font-weight:bold;font-stretch:normal;font-family:Roboto;-inkscape-font-specification:'Roboto Bold';text-align:center;text-anchor:middle;fill:#333333"
           id="path5020" />
        <path
           d="m 169.2168,20.115885 -6.96875,0 0,18.953125 -4.6875,0 0,-18.953125 -6.875,0 0,-3.796875 18.53125,0 0,3.796875 z"
           style="font-style:normal;font-variant:normal;font-weight:bold;font-stretch:normal;font-family:Roboto;-inkscape-font-specification:'Roboto Bold';text-align:center;text-anchor:middle;fill:#333333"
           id="path5022" />
        <path
           d="m 178.0293,16.31901 5.84375,16.5 5.8125,-16.5 6.15625,0 0,22.75 -4.70313,0 0,-6.21875 0.46875,-10.734375 -6.14062,16.953125 -3.21875,0 -6.125,-16.9375 0.46875,10.71875 0,6.21875 -4.6875,0 0,-22.75 6.125,0 z"
           style="font-style:normal;font-variant:normal;font-weight:bold;font-stretch:normal;font-family:Roboto;-inkscape-font-specification:'Roboto Bold';text-align:center;text-anchor:middle;fill:#333333"
           id="path5024" />
        <path
           d="m 204.6543,35.303385 9.95312,0 0,3.765625 -14.64062,0 0,-22.75 4.6875,0 0,18.984375 z"
           style="font-style:normal;font-variant:normal;font-weight:bold;font-stretch:normal;font-family:Roboto;-inkscape-font-specification:'Roboto Bold';text-align:center;text-anchor:middle;fill:#333333"
           id="path5026" />
      </g>
    </g>
  </g>
</svg>
