<?xml version="1.0" encoding="UTF-8" standalone="no"?>
<!-- Created with Inkscape (http://www.inkscape.org/) -->

<svg
   xmlns:dc="http://purl.org/dc/elements/1.1/"
   xmlns:cc="http://creativecommons.org/ns#"
   xmlns:rdf="http://www.w3.org/1999/02/22-rdf-syntax-ns#"
   xmlns:svg="http://www.w3.org/2000/svg"
   xmlns="http://www.w3.org/2000/svg"
   xmlns:sodipodi="http://sodipodi.sourceforge.net/DTD/sodipodi-0.dtd"
   xmlns:inkscape="http://www.inkscape.org/namespaces/inkscape"
   width="45.623901mm"
   height="62.511909mm"
   viewBox="0 0 161.65949 221.49889"
   id="svg2"
   version="1.1"
   inkscape:version="0.91 r13725"
   sodipodi:docname="js.svg">
  <defs
     id="defs4" />
  <sodipodi:namedview
     id="base"
     pagecolor="#ffffff"
     bordercolor="#666666"
     borderopacity="1.0"
     inkscape:pageopacity="0.0"
     inkscape:pageshadow="2"
     inkscape:zoom="1.4"
     inkscape:cx="-34.358099"
     inkscape:cy="53.072722"
     inkscape:document-units="px"
     inkscape:current-layer="g4220"
     showgrid="false"
     inkscape:snap-bbox="true"
     inkscape:bbox-paths="true"
     inkscape:bbox-nodes="true"
     inkscape:snap-bbox-edge-midpoints="true"
     inkscape:snap-bbox-midpoints="true"
     inkscape:object-paths="true"
     inkscape:snap-intersection-paths="true"
     inkscape:object-nodes="true"
     inkscape:snap-smooth-nodes="true"
     inkscape:snap-midpoints="true"
     fit-margin-top="0"
     fit-margin-left="0"
     fit-margin-right="0"
     fit-margin-bottom="0"
     inkscape:window-width="1301"
     inkscape:window-height="744"
     inkscape:window-x="65"
     inkscape:window-y="24"
     inkscape:window-maximized="1"
     showguides="true"
     inkscape:guide-bbox="true"
     inkscape:snap-global="true">
    <sodipodi:guide
       position="92.213857,190.42332"
       orientation="0,1"
       id="guide4972" />
    <sodipodi:guide
       position="80.724836,165.06483"
       orientation="1,0"
       id="guide4974" />
  </sodipodi:namedview>
  <metadata
     id="metadata7">
    <rdf:RDF>
      <cc:Work
         rdf:about="">
        <dc:format>image/svg+xml</dc:format>
        <dc:type
           rdf:resource="http://purl.org/dc/dcmitype/StillImage" />
        <dc:title />
      </cc:Work>
    </rdf:RDF>
  </metadata>
  <g
     inkscape:label="Layer 1"
     inkscape:groupmode="layer"
     id="layer1"
     transform="translate(-174.88454,-173.00567)">
    <g
       id="g4220"
       transform="matrix(1.25,0,0,1.25,168.29396,158.10252)">
      <g
         transform="matrix(0.92461041,0,0,0.92461041,216.65619,-8.6499422)"
         id="g4181"
         style="fill:#e5a228;fill-opacity:1">
        <path
           style="fill:#e5a228;fill-opacity:1;fill-rule:evenodd;stroke:none;stroke-width:0.80000001px;stroke-linecap:butt;stroke-linejoin:miter;stroke-opacity:1"
           d="m -223.54081,59.629664 12.82247,131.803056 52.48266,15.50623 52.48267,-14.90985 11.927869,-131.803043 z"
           id="path4179"
           inkscape:connector-curvature="0" />
      </g>
      <path
         inkscape:connector-curvature="0"
         id="path4200"
         d="m 69.852331,57.069771 0,114.636869 40.161899,-9.74804 9.35812,-104.888829 z"
         style="fill:#f1bf26;fill-opacity:1;fill-rule:evenodd;stroke:none;stroke-width:0.80000001px;stroke-linecap:butt;stroke-linejoin:miter;stroke-opacity:1" />
      <path
         inkscape:connector-curvature="0"
         id="path4267"
         d=""
         style="fill:#000000" />
      <path
         style="fill:#ffffff;fill-opacity:1;fill-rule:evenodd;stroke:none;stroke-width:0.80000001px;stroke-linecap:butt;stroke-linejoin:miter;stroke-opacity:1"
         d="m 85.043387,95.757391 14.154552,0 -3.096307,-28.530253 -53.300705,0 -4.64446,48.877412 46.665759,0 -1.990484,17.91434 -15.039202,4.86563 -15.481532,-4.86563 -0.884654,-10.17358 -13.491057,0 1.990484,20.34716 27.424429,7.96193 28.309092,-6.85611 3.096307,-41.80013 -46.22344,0 2.432814,-21.452984 29.19375,0 z"
         id="path5781"
         inkscape:connector-curvature="0" />
      <g
         transform="translate(41.771595,6.183003)"
         style="font-style:normal;font-weight:normal;font-size:25.5677948px;line-height:125%;font-family:sans-serif;letter-spacing:0px;word-spacing:0px;fill:#000000;fill-opacity:1;stroke:none;stroke-width:1px;stroke-linecap:butt;stroke-linejoin:miter;stroke-opacity:1"
         id="flowRoot4964-6-1">
        <path
           d="m 22.238095,12.173188 3.745283,0 0,12.584149 q 0,1.735314 -0.774025,3.071131 -0.761541,1.323333 -2.15978,2.047421 -1.398238,0.724088 -3.158521,0.724088 -2.883868,0 -4.494339,-1.46066 -1.610472,-1.473144 -1.610472,-4.157263 l 3.770251,0 q 0,1.335817 0.561793,1.972515 0.561792,0.636698 1.772767,0.636698 1.073647,0 1.710345,-0.736572 0.636698,-0.736572 0.636698,-2.097358 l 0,-12.584149 z"
           style="font-style:normal;font-variant:normal;font-weight:bold;font-stretch:normal;font-family:Roboto;-inkscape-font-specification:'Roboto Bold';text-align:center;text-anchor:middle"
           id="path6581" />
        <path
           d="m 38.617464,25.581299 q 0,-1.061164 -0.749057,-1.622956 -0.749056,-0.574277 -2.696603,-1.19849 -1.947547,-0.636698 -3.083616,-1.248428 -3.0961,-1.672893 -3.0961,-4.506823 0,-1.473144 0.823962,-2.621698 0.836446,-1.161037 2.384496,-1.81022 1.560535,-0.649182 3.495597,-0.649182 1.947547,0 3.470629,0.711604 1.523081,0.699119 2.359528,1.984999 0.84893,1.285881 0.84893,2.921321 l -3.745282,0 q 0,-1.248428 -0.786509,-1.935063 -0.78651,-0.699119 -2.209717,-0.699119 -1.37327,0 -2.134811,0.586761 -0.761541,0.574276 -0.761541,1.523081 0,0.886384 0.886384,1.485629 0.898868,0.599245 2.634182,1.123585 3.195974,0.961289 4.656634,2.384496 1.46066,1.423207 1.46066,3.545534 0,2.359528 -1.785251,3.70783 -1.785251,1.335817 -4.806446,1.335817 -2.097358,0 -3.820188,-0.761541 -1.72283,-0.774025 -2.634182,-2.109842 -0.898868,-1.335817 -0.898868,-3.0961 l 3.757767,0 q 0,3.00871 3.595471,3.00871 1.335818,0 2.084874,-0.536824 0.749057,-0.549308 0.749057,-1.523081 z"
           style="font-style:normal;font-variant:normal;font-weight:bold;font-stretch:normal;font-family:Roboto;-inkscape-font-specification:'Roboto Bold';text-align:center;text-anchor:middle"
           id="path6583" />
      </g>
    </g>
  </g>
</svg>
