<?xml version="1.0" encoding="UTF-8" standalone="no"?>
<!-- License Agreement at http://iconmonstr.com/license/ -->

<svg
   xmlns:dc="http://purl.org/dc/elements/1.1/"
   xmlns:cc="http://creativecommons.org/ns#"
   xmlns:rdf="http://www.w3.org/1999/02/22-rdf-syntax-ns#"
   xmlns:svg="http://www.w3.org/2000/svg"
   xmlns="http://www.w3.org/2000/svg"
   xmlns:sodipodi="http://sodipodi.sourceforge.net/DTD/sodipodi-0.dtd"
   xmlns:inkscape="http://www.inkscape.org/namespaces/inkscape"
   version="1.1"
   x="0px"
   y="0px"
   width="365.578"
   height="412"
   viewBox="0 0 365.578 412"
   enable-background="new 0 0 512 512"
   xml:space="preserve"
   id="svg4932"
   inkscape:version="0.91 r13725"
   sodipodi:docname="lbulb.svg"><metadata
     id="metadata4939"><rdf:RDF><cc:Work
         rdf:about=""><dc:format>image/svg+xml</dc:format><dc:type
           rdf:resource="http://purl.org/dc/dcmitype/StillImage" /><dc:title></dc:title></cc:Work></rdf:RDF></metadata><defs
     id="defs4937" /><sodipodi:namedview
     pagecolor="#ffffff"
     bordercolor="#666666"
     borderopacity="1"
     objecttolerance="10"
     gridtolerance="10"
     guidetolerance="10"
     inkscape:pageopacity="0"
     inkscape:pageshadow="2"
     inkscape:window-width="1301"
     inkscape:window-height="744"
     id="namedview4935"
     showgrid="false"
     inkscape:zoom="0.4609375"
     inkscape:cx="-238.09236"
     inkscape:cy="206"
     inkscape:window-x="65"
     inkscape:window-y="24"
     inkscape:window-maximized="1"
     inkscape:current-layer="svg4932"
     fit-margin-top="0"
     fit-margin-left="0"
     fit-margin-right="0"
     fit-margin-bottom="0" /><path
     id="light-bulb-18-icon"
     d="m 218.989,331.263 -72.511,0 c -5.082,0 -9.201,4.12 -9.201,9.203 0,5.082 4.119,9.201 9.201,9.201 l 72.511,0 c 5.083,0 9.202,-4.119 9.202,-9.201 0,-5.083 -4.119,-9.203 -9.202,-9.203 z m -1.654,30.637 -69.201,0 c -5.082,0 -9.201,4.121 -9.201,9.202 0,5.083 4.119,9.202 9.201,9.202 l 69.201,0 c 5.082,0 9.201,-4.119 9.201,-9.202 0,-5.081 -4.119,-9.202 -9.201,-9.202 z m -68.726,30.211 C 166.524,408.673 168.369,412 175.52,412 l 13.774,0 c 6.99,0 8.714,-3.084 27.564,-19.889 l -68.249,0 z M 287.488,171.629 c 0,62.305 -53.581,97.22 -53.581,146.388 l -24.4,0 c 0.021,-60.599 53.142,-92.516 53.142,-146.388 0,-100.84 -159.828,-100.998 -159.828,0 0,53.823 52.2,84.366 53.409,146.388 l -24.668,0 c 0,-49.168 -53.581,-84.083 -53.581,-146.388 -10e-4,-133.904 209.507,-134.04 209.507,0 z m -91.496,-126.517 -25.063,0 0,-45.112 25.063,0 0,45.112 z M 282.053,23.97 259.969,12.12 237.913,53.223 259.998,65.073 282.053,23.97 Z m 64.091,62.072 -14.599,-20.372 -40.099,28.739 14.598,20.371 40.1,-28.738 z m 4.426,158.099 -45.115,-18.278 -9.409,23.229 45.116,18.277 9.408,-23.228 z m 15.008,-88.586 -51.125,0 0,25.062 51.125,0 0,-25.062 z M 127.665,53.223 105.609,12.12 83.525,23.97 105.58,65.073 127.665,53.223 Z M 74.133,94.409 34.032,65.67 19.433,86.042 l 40.1,28.738 14.6,-20.371 z M 69.967,246.9 59.689,224.043 14.573,244.326 24.849,267.183 69.967,246.9 Z m -18.84,-91.345 -51.127,0 0,25.062 51.127,0 0,-25.062 z"
     style="fill:#4d4d4d"
     inkscape:connector-curvature="0" /></svg>