<?xml version="1.0" encoding="UTF-8" standalone="no"?>
<svg
   xmlns:dc="http://purl.org/dc/elements/1.1/"
   xmlns:cc="http://creativecommons.org/ns#"
   xmlns:rdf="http://www.w3.org/1999/02/22-rdf-syntax-ns#"
   xmlns:svg="http://www.w3.org/2000/svg"
   xmlns="http://www.w3.org/2000/svg"
   xmlns:sodipodi="http://sodipodi.sourceforge.net/DTD/sodipodi-0.dtd"
   xmlns:inkscape="http://www.inkscape.org/namespaces/inkscape"
   width="258.00647"
   height="60.219612"
   viewBox="0 0 258.00647 60.219612"
   id="svg2"
   version="1.1"
   inkscape:version="0.91 r13725"
   sodipodi:docname="navbar-brand.svg">
  <metadata
     id="metadata12">
    <rdf:RDF>
      <cc:Work
         rdf:about="">
        <dc:format>image/svg+xml</dc:format>
        <dc:type
           rdf:resource="http://purl.org/dc/dcmitype/StillImage" />
        <dc:title></dc:title>
      </cc:Work>
    </rdf:RDF>
  </metadata>
  <defs
     id="defs10" />
  <sodipodi:namedview
     pagecolor="#ffffff"
     bordercolor="#666666"
     borderopacity="1"
     objecttolerance="10"
     gridtolerance="10"
     guidetolerance="10"
     inkscape:pageopacity="0"
     inkscape:pageshadow="2"
     inkscape:window-width="1301"
     inkscape:window-height="744"
     id="namedview8"
     showgrid="false"
     showguides="true"
     inkscape:guide-bbox="true"
     inkscape:snap-bbox="true"
     inkscape:bbox-paths="true"
     inkscape:bbox-nodes="true"
     inkscape:snap-bbox-edge-midpoints="true"
     inkscape:snap-bbox-midpoints="true"
     fit-margin-top="0"
     fit-margin-left="0"
     fit-margin-right="0"
     fit-margin-bottom="0"
     inkscape:zoom="1.2291667"
     inkscape:cx="162.05786"
     inkscape:cy="40.084764"
     inkscape:window-x="65"
     inkscape:window-y="24"
     inkscape:window-maximized="1"
     inkscape:current-layer="svg2">
    <sodipodi:guide
       position="28.321538,-18.351183"
       orientation="0,1"
       id="guide5080" />
  </sodipodi:namedview>
  <path
     style="fill:#ffc107;fill-opacity:1"
     d="M 23.492188,0 0,10.441406 0,26.101562 C 0,40.601053 10.010661,54.121964 23.492188,57.423828 36.973712,54.121964 46.982422,40.601054 46.982422,26.101562 l 0,-15.660156 L 23.492188,0 Z m 0,5.7167969 0,22.9687501 18.271484,0 c -1.38339,10.753899 -8.548603,20.333622 -18.271484,23.322265 l 0,-23.296874 -18.2714849,0 0,-14.876954 18.2714849,-8.1171871 z m 4.390624,1.4863281 12.794922,8.287109 0,3.38086 -12.794922,8.287109 0,-4.408203 8.783204,-5.503906 0,-0.132813 -8.783204,-5.501953 0,-4.408203 z m -8.339843,23.412109 0,4.410157 -8.785157,5.501953 0,0.132812 8.785157,5.503906 0,4.408204 -12.7949221,-8.28711 0,-3.380859 12.7949221,-8.289063 z"
     id="path4"
     inkscape:connector-curvature="0" />
  <g
     transform="translate(-8.7065549,21.760189)"
     style="font-style:normal;font-weight:normal;font-size:19.1768837px;line-height:125%;font-family:sans-serif;text-align:center;letter-spacing:0px;word-spacing:0px;text-anchor:middle;fill:#ffffff;fill-opacity:1;stroke:none;stroke-width:1px;stroke-linecap:butt;stroke-linejoin:miter;stroke-opacity:1"
     id="flowRoot4976-4-2-5-8" />
  <g
     style="font-style:normal;font-weight:normal;font-size:40px;line-height:125%;font-family:sans-serif;letter-spacing:0px;word-spacing:0px;fill:#000000;fill-opacity:1;stroke:none;stroke-width:1px;stroke-linecap:butt;stroke-linejoin:miter;stroke-opacity:1"
     id="flowRoot5448"
     transform="matrix(0.82875209,0,0,0.82875209,26.150007,-15.601881)" />
  <g
     style="font-style:normal;font-weight:normal;font-size:40px;line-height:125%;font-family:sans-serif;letter-spacing:0px;word-spacing:0px;fill:#000000;fill-opacity:1;stroke:none;stroke-width:1px;stroke-linecap:butt;stroke-linejoin:miter;stroke-opacity:1"
     id="flowRoot5448-7"
     transform="matrix(-0.82875209,0,0,-0.82875209,21.275078,73.376537)" />
  <g
     transform="matrix(0.59630956,0,0,0.59630956,13.385312,54.834159)"
     style="font-style:normal;font-weight:normal;font-size:26.01665497px;line-height:125%;font-family:sans-serif;letter-spacing:0px;word-spacing:0px;fill:#ffffff;fill-opacity:1;stroke:none;stroke-width:1px;stroke-linecap:butt;stroke-linejoin:miter;stroke-opacity:1"
     id="flowRoot5248">
    <path
       d="m 77.561205,-76.797836 2.566096,0 0,18.966243 -2.566096,0 0,-18.966243 z"
       id="path5274"
       inkscape:connector-curvature="0"
       style="fill:#ffffff;fill-opacity:1" />
    <path
       d="m 85.234086,-76.797836 2.566095,0 0,18.966243 -2.566095,0 0,-18.966243 z"
       id="path5276"
       inkscape:connector-curvature="0"
       style="fill:#ffffff;fill-opacity:1" />
    <path
       d="m 107.10942,-75.33694 0,2.705834 q -1.29575,-1.206827 -2.76935,-1.803889 -1.4609,-0.597062 -3.11235,-0.597062 -3.252079,0 -4.979748,1.994441 -1.727668,1.981737 -1.727668,5.741957 0,3.747516 1.727668,5.741957 1.727669,1.981737 4.979748,1.981737 1.65145,0 3.11235,-0.597062 1.4736,-0.597062 2.76935,-1.803889 l 0,2.680427 q -1.34657,0.914648 -2.85828,1.371972 -1.499,0.457324 -3.17586,0.457324 -4.306467,0 -6.783638,-2.629613 -2.477172,-2.642317 -2.477172,-7.202853 0,-4.57324 2.477172,-7.202853 2.477171,-2.642317 6.783638,-2.642317 1.70226,0 3.20127,0.457324 1.51171,0.444621 2.83287,1.346565 z"
       id="path5278"
       inkscape:connector-curvature="0"
       style="fill:#ffffff;fill-opacity:1" />
    <path
       d="m 108.46869,-76.797836 16.04445,0 0,2.159586 -6.73283,0 0,16.806657 -2.5788,0 0,-16.806657 -6.73282,0 0,-2.159586 z"
       id="path5280"
       inkscape:connector-curvature="0"
       style="fill:#ffffff;fill-opacity:1" />
  </g>
  <g
     transform="matrix(1.0160047,0,0,1.0160047,-3.2800057,-54.298925)"
     style="font-style:normal;font-weight:normal;font-size:40px;line-height:125%;font-family:sans-serif;letter-spacing:0px;word-spacing:0px;fill:#ffffff;fill-opacity:1;stroke:none;stroke-width:1px;stroke-linecap:butt;stroke-linejoin:miter;stroke-opacity:1"
     id="flowRoot4242">
    <path
       d="m 61.164297,102.43458 0,-24.960005 6.76,0 0,9.88 6.2,0.04 0,-9.96 6.8,0 0,0.04 0.04,0 -0.04,0.12 0,13.8 -0.04,0 0,5.6 0.08,0 -0.08,0.24 0,5.200005 -6.76,0 0,-9.840005 -6.2,0 0,9.840005 -6.76,0 z"
       style="font-style:normal;font-variant:normal;font-weight:bold;font-stretch:normal;font-family:Transformers;-inkscape-font-specification:'Transformers Bold';fill:#ffffff"
       id="path4251" />
    <path
       d="m 82.212422,102.39458 9.12,-25.120005 7.28,0 8.599998,25.120005 -14.079998,0 0,-5.320005 5.48,0 -3.64,-11.28 -5.96,16.600005 -6.8,0 z"
       style="font-style:normal;font-variant:normal;font-weight:bold;font-stretch:normal;font-family:Transformers;-inkscape-font-specification:'Transformers Bold';fill:#ffffff"
       id="path4253" />
    <path
       d="m 128.10805,77.474575 -1.96,5.36 -11.04,0 0,14.2 13,-0.04 -1.92,5.440005 -15.96,0 q -0.56,-0.56 -1.08,-1 -0.52,-0.44 -0.84,-1.32 l 0,-20.680005 q 0.32,-0.88 0.84,-1.24 0.52,-0.4 1.08,-0.72 l 17.88,0 z"
       style="font-style:normal;font-variant:normal;font-weight:bold;font-stretch:normal;font-family:Transformers;-inkscape-font-specification:'Transformers Bold';fill:#ffffff"
       id="path4255" />
    <path
       d="m 139.88555,90.274575 10.32,12.160005 -7.96,0 -6.24,-6.760005 0,0.04 0,6.720005 -6.72,0 0,-7.960005 -0.04,-0.04 0.04,-0.04 0,-16.92 6.76,0 -0.04,7.12 4.92,-7.16 8.08,0 -0.2,0.24 0.12,0 -9.04,12.6 z"
       style="font-style:normal;font-variant:normal;font-weight:bold;font-stretch:normal;font-family:Transformers;-inkscape-font-specification:'Transformers Bold';fill:#ffffff"
       id="path4257" />
    <path
       d="m 151.1968,102.39458 9.12,-25.120005 7.28,0 8.6,25.120005 -14.08,0 0,-5.320005 5.48,0 -3.64,-11.28 -5.96,16.600005 -6.8,0 z"
       style="font-style:normal;font-variant:normal;font-weight:bold;font-stretch:normal;font-family:Transformers;-inkscape-font-specification:'Transformers Bold';fill:#ffffff"
       id="path4259" />
    <path
       d="m 190.49242,99.274575 0.04,11.000005 -6.8,2.44 -0.04,-10.16 0,-19.880005 -6.48,0 0,-5.24 17.04,0.12 0,5.12 -3.8,0 0,16.6 0.04,0 z"
       style="font-style:normal;font-variant:normal;font-weight:bold;font-stretch:normal;font-family:Transformers;-inkscape-font-specification:'Transformers Bold';fill:#ffffff"
       id="path4261" />
    <path
       d="m 202.1793,102.47458 -6.8,0 0,-12.040005 -0.04,-0.04 0.04,-0.04 0,-12.88 16.32,-0.04 q 1.48,0 2.36,0.68 0.88,0.68 1.2,2.24 0,2.56 0,4.08 0,1.48 0,2.32 0,0.84 0,1.24 0,0.36 0,0.64 -0.28,1.32 -0.96,2 -0.64,0.68 -1.72,0.88 l 0,0.12 -2.56,0 5.2,10.920005 -7,0 -5.08,-10.840005 0,-4.28 4.96,0 0,-4.64 -6.16,0 0.24,19.680005 z"
       style="font-style:normal;font-variant:normal;font-weight:bold;font-stretch:normal;font-family:Transformers;-inkscape-font-specification:'Transformers Bold';fill:#ffffff"
       id="path4263" />
    <path
       d="m 219.91492,102.47458 q -2.96,0 -3.56,-2.520005 0.04,-5.24 0.04,-10.04 0,-4.8 -0.04,-9.56 0.32,-1.56 1.2,-2.24 0.88,-0.68 2.36,-0.68 l 12.8,0 q 1.48,0 2.36,0.68 0.88,0.68 1.2,2.24 -0.04,4.76 -0.04,9.56 0,4.8 0.04,10.04 -0.6,2.520005 -3.56,2.520005 l -12.8,0 z m 3.6,-5.480005 5.6,0 0,-14.16 -5.6,0 0,14.16 z"
       style="font-style:normal;font-variant:normal;font-weight:bold;font-stretch:normal;font-family:Transformers;-inkscape-font-specification:'Transformers Bold';fill:#ffffff"
       id="path4265" />
    <path
       d="m 257.13055,102.43458 -6.76,0 0,-0.12 -0.12,0 0,-19.600005 -6.04,0 -0.08,19.720005 -6.76,0 0,-24.960005 19.8,0 -0.04,24.960005 z"
       style="font-style:normal;font-variant:normal;font-weight:bold;font-stretch:normal;font-family:Transformers;-inkscape-font-specification:'Transformers Bold';fill:#ffffff"
       id="path4267" />
  </g>
</svg>
