<?xml version="1.0" encoding="UTF-8" standalone="no"?>
<!-- Created with Inkscape (http://www.inkscape.org/) -->

<svg
   xmlns:dc="http://purl.org/dc/elements/1.1/"
   xmlns:cc="http://creativecommons.org/ns#"
   xmlns:rdf="http://www.w3.org/1999/02/22-rdf-syntax-ns#"
   xmlns:svg="http://www.w3.org/2000/svg"
   xmlns="http://www.w3.org/2000/svg"
   xmlns:sodipodi="http://sodipodi.sourceforge.net/DTD/sodipodi-0.dtd"
   xmlns:inkscape="http://www.inkscape.org/namespaces/inkscape"
   width="45.623901mm"
   height="62.511909mm"
   viewBox="0 0 161.65949 221.49889"
   id="svg2"
   version="1.1"
   inkscape:version="0.91 r13725"
   sodipodi:docname="php.svg">
  <defs
     id="defs4" />
  <sodipodi:namedview
     id="base"
     pagecolor="#ffffff"
     bordercolor="#666666"
     borderopacity="1.0"
     inkscape:pageopacity="0.0"
     inkscape:pageshadow="2"
     inkscape:zoom="1.4"
     inkscape:cx="104.21333"
     inkscape:cy="110.21558"
     inkscape:document-units="px"
     inkscape:current-layer="g4220"
     showgrid="false"
     inkscape:snap-bbox="true"
     inkscape:bbox-paths="true"
     inkscape:bbox-nodes="true"
     inkscape:snap-bbox-edge-midpoints="true"
     inkscape:snap-bbox-midpoints="true"
     inkscape:object-paths="true"
     inkscape:snap-intersection-paths="true"
     inkscape:object-nodes="true"
     inkscape:snap-smooth-nodes="true"
     inkscape:snap-midpoints="true"
     fit-margin-top="0"
     fit-margin-left="0"
     fit-margin-right="0"
     fit-margin-bottom="0"
     inkscape:window-width="1301"
     inkscape:window-height="744"
     inkscape:window-x="65"
     inkscape:window-y="24"
     inkscape:window-maximized="1"
     showguides="true"
     inkscape:guide-bbox="true"
     inkscape:snap-global="true">
    <sodipodi:guide
       position="92.213857,190.42332"
       orientation="0,1"
       id="guide4972" />
    <sodipodi:guide
       position="80.724836,165.06483"
       orientation="1,0"
       id="guide4974" />
  </sodipodi:namedview>
  <metadata
     id="metadata7">
    <rdf:RDF>
      <cc:Work
         rdf:about="">
        <dc:format>image/svg+xml</dc:format>
        <dc:type
           rdf:resource="http://purl.org/dc/dcmitype/StillImage" />
        <dc:title></dc:title>
      </cc:Work>
    </rdf:RDF>
  </metadata>
  <g
     inkscape:label="Layer 1"
     inkscape:groupmode="layer"
     id="layer1"
     transform="translate(-174.88454,-173.00567)">
    <g
       id="g4220"
       transform="matrix(1.25,0,0,1.25,168.29396,158.10252)">
      <path
         inkscape:connector-curvature="0"
         id="path4267"
         d=""
         style="fill:#000000" />
      <g
         transform="matrix(0.9246104,0,0,0.9246104,216.65619,-8.6499441)"
         id="g4181"
         style="fill:#777bb4;fill-opacity:1">
        <path
           style="fill:#777bb4;fill-opacity:1;fill-rule:evenodd;stroke:none;stroke-width:0.80000001px;stroke-linecap:butt;stroke-linejoin:miter;stroke-opacity:1"
           d="m -223.54081,59.629664 12.82247,131.803056 52.48266,15.50623 52.48267,-14.90985 11.927869,-131.803043 z"
           id="path4179"
           inkscape:connector-curvature="0" />
      </g>
      <path
         inkscape:connector-curvature="0"
         id="path4200"
         d="m 69.852321,57.069769 0,114.636861 40.161899,-9.74804 9.35812,-104.888821 z"
         style="fill:#979ac5;fill-opacity:1;fill-rule:evenodd;stroke:none;stroke-width:0.80000001px;stroke-linecap:butt;stroke-linejoin:miter;stroke-opacity:1" />
      <g
         transform="translate(4.6955677,6.6833539)"
         style="font-style:normal;font-weight:normal;font-size:154.72007751px;line-height:125%;font-family:sans-serif;letter-spacing:0px;word-spacing:0px;fill:#ffffff;fill-opacity:1;stroke:none;stroke-width:1px;stroke-linecap:butt;stroke-linejoin:miter;stroke-opacity:1"
         id="flowRoot5881">
        <path
           d="m 27.032358,94.389785 29.860975,-19.34001 0,10.288885 -20.50041,12.841767 0,0.30944 20.50041,12.841763 0,10.28889 -29.860975,-19.34001 0,-7.890725 z"
           style="font-style:normal;font-variant:normal;font-weight:bold;font-stretch:normal;font-size:77.36003876px;font-family:'Source Code Pro';-inkscape-font-specification:'Source Code Pro Bold';fill:#ffffff"
           id="path6019" />
        <path
           d="m 81.308885,104.29187 q -0.46416,-2.55288 0.15472,-4.564242 0.696241,-2.088721 1.856641,-3.713282 1.160401,-1.624561 2.630242,-2.939682 1.547201,-1.31512 2.862321,-2.552881 1.315121,-1.237761 2.243441,-2.475521 0.928321,-1.237761 0.928321,-2.707602 0,-2.475521 -1.624561,-3.635921 -1.624561,-1.237761 -4.100082,-1.237761 -2.398161,0 -4.254802,1.00568 -1.856641,1.005681 -3.635922,2.552882 l -6.343523,-5.802003 q 2.784961,-3.094402 6.575603,-5.028403 3.790642,-1.934001 8.432244,-1.934001 3.326482,0 6.188803,0.773601 2.939682,0.7736 5.028403,2.398161 2.166076,1.547201 3.403846,3.945362 1.23776,2.320801 1.23776,5.492563 0,2.552881 -0.92832,4.409522 -0.92832,1.856641 -2.320805,3.403842 -1.392481,1.5472 -2.939682,2.862321 -1.547201,1.315121 -2.862321,2.784961 -1.315121,1.392481 -2.088721,3.094404 -0.773601,1.62456 -0.541521,3.868 l -9.902085,0 z m -2.475521,12.76441 q 0,-3.48121 2.166081,-5.56993 2.243441,-2.16608 5.569923,-2.16608 3.326482,0 5.492563,2.16608 2.243441,2.08872 2.243441,5.56993 0,3.4812 -2.243441,5.72464 -2.166081,2.16608 -5.492563,2.16608 -3.326482,0 -5.569923,-2.16608 -2.166081,-2.24344 -2.166081,-5.72464 z"
           style="font-style:normal;font-variant:normal;font-weight:bold;font-stretch:normal;font-size:77.36003876px;font-family:'Source Code Pro';-inkscape-font-specification:'Source Code Pro Bold';fill:#ffffff"
           id="path6021" />
      </g>
      <g
         transform="translate(41.216034,6.4326859)"
         style="font-style:normal;font-weight:normal;font-size:25.5677948px;line-height:125%;font-family:sans-serif;letter-spacing:0px;word-spacing:0px;fill:#333333;fill-opacity:1;stroke:none;stroke-width:1px;stroke-linecap:butt;stroke-linejoin:miter;stroke-opacity:1"
         id="flowRoot4964-6">
        <path
           d="m 8.1433492,23.945859 0,6.404433 -3.7452824,0 0,-18.177104 7.0910682,0 q 2.047421,0 3.595471,0.749056 1.560534,0.749057 2.396981,2.134811 0.836446,1.37327 0.836446,3.133553 0,2.671635 -1.835188,4.219685 -1.822704,1.535566 -5.056132,1.535566 l -3.2833638,0 z m 0,-3.033679 3.3457858,0 q 1.485629,0 2.259654,-0.699119 0.786509,-0.69912 0.786509,-1.997484 0,-1.335818 -0.786509,-2.15978 -0.78651,-0.823962 -2.172264,-0.848931 l -3.4331758,0 0,5.705314 z"
           style="font-style:normal;font-variant:normal;font-weight:bold;font-stretch:normal;font-family:Roboto;-inkscape-font-specification:'Roboto Bold';text-align:center;text-anchor:middle;fill:#333333"
           id="path6012" />
        <path
           d="m 35.671175,30.350292 -3.745283,0 0,-7.790188 -7.3033,0 0,7.790188 -3.745283,0 0,-18.177104 3.745283,0 0,7.365722 7.3033,0 0,-7.365722 3.745283,0 0,18.177104 z"
           style="font-style:normal;font-variant:normal;font-weight:bold;font-stretch:normal;font-family:Roboto;-inkscape-font-specification:'Roboto Bold';text-align:center;text-anchor:middle;fill:#333333"
           id="path6014" />
        <path
           d="m 42.699822,23.945859 0,6.404433 -3.745282,0 0,-18.177104 7.091068,0 q 2.047421,0 3.595471,0.749056 1.560534,0.749057 2.396981,2.134811 0.836446,1.37327 0.836446,3.133553 0,2.671635 -1.835188,4.219685 -1.822705,1.535566 -5.056132,1.535566 l -3.283364,0 z m 0,-3.033679 3.345786,0 q 1.485628,0 2.259653,-0.699119 0.78651,-0.69912 0.78651,-1.997484 0,-1.335818 -0.78651,-2.15978 -0.786509,-0.823962 -2.172263,-0.848931 l -3.433176,0 0,5.705314 z"
           style="font-style:normal;font-variant:normal;font-weight:bold;font-stretch:normal;font-family:Roboto;-inkscape-font-specification:'Roboto Bold';text-align:center;text-anchor:middle;fill:#333333"
           id="path6016" />
      </g>
    </g>
  </g>
</svg>
