<?xml version="1.0" encoding="UTF-8" standalone="no"?>
<!-- Created with Inkscape (http://www.inkscape.org/) -->

<svg
   xmlns:dc="http://purl.org/dc/elements/1.1/"
   xmlns:cc="http://creativecommons.org/ns#"
   xmlns:rdf="http://www.w3.org/1999/02/22-rdf-syntax-ns#"
   xmlns:svg="http://www.w3.org/2000/svg"
   xmlns="http://www.w3.org/2000/svg"
   xmlns:sodipodi="http://sodipodi.sourceforge.net/DTD/sodipodi-0.dtd"
   xmlns:inkscape="http://www.inkscape.org/namespaces/inkscape"
   width="168.40062mm"
   height="86.849327mm"
   viewBox="0 0 596.69511 307.73384"
   id="svg2"
   version="1.1"
   inkscape:version="0.91 r13725"
   sodipodi:docname="url.svg">
  <defs
     id="defs4" />
  <sodipodi:namedview
     id="base"
     pagecolor="#ffffff"
     bordercolor="#666666"
     borderopacity="1.0"
     inkscape:pageopacity="0.0"
     inkscape:pageshadow="2"
     inkscape:zoom="0.49497475"
     inkscape:cx="429.42828"
     inkscape:cy="147.67312"
     inkscape:document-units="px"
     inkscape:current-layer="g5340"
     showgrid="false"
     fit-margin-top="0"
     fit-margin-left="0"
     fit-margin-right="0"
     fit-margin-bottom="0"
     inkscape:window-width="1301"
     inkscape:window-height="744"
     inkscape:window-x="65"
     inkscape:window-y="24"
     inkscape:window-maximized="1" />
  <metadata
     id="metadata7">
    <rdf:RDF>
      <cc:Work
         rdf:about="">
        <dc:format>image/svg+xml</dc:format>
        <dc:type
           rdf:resource="http://purl.org/dc/dcmitype/StillImage" />
        <dc:title></dc:title>
      </cc:Work>
    </rdf:RDF>
  </metadata>
  <g
     inkscape:label="Layer 1"
     inkscape:groupmode="layer"
     id="layer1"
     transform="translate(-64.607422,-279.98325)">
    <g
       id="g5340">
      <g
         id="flowRoot4136"
         style="font-style:normal;font-weight:normal;font-size:40px;line-height:125%;font-family:sans-serif;letter-spacing:0px;word-spacing:0px;fill:#4d4d4d;fill-opacity:1;stroke:none;stroke-width:1px;stroke-linecap:butt;stroke-linejoin:miter;stroke-opacity:1"
         transform="matrix(0.69600495,0,0,0.69600495,19.640337,85.113523)">
        <path
           id="path5266"
           style="letter-spacing:2px;fill:#4d4d4d;fill-opacity:1"
           d="m 84.582031,297.17075 0,13.20312 -3.59375,0 0,-13.08593 q 0,-3.10547 -1.210937,-4.64844 -1.210938,-1.54297 -3.632813,-1.54297 -2.910156,0 -4.589844,1.85547 -1.679687,1.85547 -1.679687,5.05859 l 0,12.36328 -3.613281,0 0,-30.39062 3.613281,0 0,11.91406 q 1.289062,-1.97266 3.027344,-2.94922 1.757812,-0.97656 4.042968,-0.97656 3.769532,0 5.703125,2.34375 1.933594,2.32422 1.933594,6.85547 z"
           inkscape:connector-curvature="0" />
        <path
           id="path5268"
           style="letter-spacing:2px;fill:#4d4d4d;fill-opacity:1"
           d="m 97.34375,282.28794 0,6.21093 7.40234,0 0,2.79297 -7.40234,0 0,11.875 q 0,2.67578 0.722656,3.4375 0.742188,0.76172 2.988284,0.76172 l 3.6914,0 0,3.00781 -3.6914,0 q -4.160159,0 -5.74219,-1.54297 -1.582031,-1.5625 -1.582031,-5.66406 l 0,-11.875 -2.636719,0 0,-2.79297 2.636719,0 0,-6.21093 3.613281,0 z"
           inkscape:connector-curvature="0" />
        <path
           id="path5270"
           style="letter-spacing:2px;fill:#4d4d4d;fill-opacity:1"
           d="m 115.04688,282.28794 0,6.21093 7.40234,0 0,2.79297 -7.40234,0 0,11.875 q 0,2.67578 0.72265,3.4375 0.74219,0.76172 2.98828,0.76172 l 3.69141,0 0,3.00781 -3.69141,0 q -4.16015,0 -5.74218,-1.54297 -1.58204,-1.5625 -1.58204,-5.66406 l 0,-11.875 -2.63671,0 0,-2.79297 2.63671,0 0,-6.21093 3.61329,0 z"
           inkscape:connector-curvature="0" />
        <path
           id="path5272"
           style="letter-spacing:2px;fill:#4d4d4d;fill-opacity:1"
           d="m 132.67187,307.09262 0,11.60157 -3.61328,0 0,-30.19532 3.61328,0 0,3.32032 q 1.13282,-1.95313 2.85157,-2.89063 1.73828,-0.95703 4.14062,-0.95703 3.98438,0 6.46485,3.16406 2.5,3.16406 2.5,8.32031 0,5.15625 -2.5,8.32032 -2.48047,3.16406 -6.46485,3.16406 -2.40234,0 -4.14062,-0.9375 -1.71875,-0.95703 -2.85157,-2.91016 z m 12.22657,-7.63672 q 0,-3.96484 -1.64063,-6.21093 -1.62109,-2.26563 -4.47265,-2.26563 -2.85157,0 -4.49219,2.26563 -1.6211,2.24609 -1.6211,6.21093 0,3.96485 1.6211,6.23047 1.64062,2.2461 4.49219,2.2461 2.85156,0 4.47265,-2.2461 1.64063,-2.26562 1.64063,-6.23047 z"
           inkscape:connector-curvature="0" />
        <path
           id="path5274"
           style="letter-spacing:2px;fill:#4d4d4d;fill-opacity:1"
           d="m 157.50391,305.41294 4.12109,0 0,4.96093 -4.12109,0 0,-4.96093 z m 0,-15.72266 4.12109,0 0,4.96094 -4.12109,0 0,-4.96094 z"
           inkscape:connector-curvature="0" />
        <path
           id="path5276"
           style="letter-spacing:2px;fill:#4d4d4d;fill-opacity:1"
           d="m 178.48828,281.21372 3.32031,0 -10.15625,32.87109 -3.32031,0 10.15625,-32.87109 z"
           inkscape:connector-curvature="0" />
        <path
           id="path5278"
           style="letter-spacing:2px;fill:#4d4d4d;fill-opacity:1"
           d="m 194.00391,281.21372 3.32031,0 -10.15625,32.87109 -3.32031,0 10.15625,-32.87109 z"
           inkscape:connector-curvature="0" />
        <path
           id="path5280"
           style="letter-spacing:2px;fill:#4d4d4d;fill-opacity:1"
           d="m 201.04297,288.49887 3.59375,0 4.49219,17.07032 4.47265,-17.07032 4.23828,0 4.49219,17.07032 4.47266,-17.07032 3.59375,0 -5.72266,21.875 -4.23828,0 -4.70703,-17.92968 -4.72656,17.92968 -4.23829,0 -5.72265,-21.875 z"
           inkscape:connector-curvature="0" />
        <path
           id="path5282"
           style="letter-spacing:2px;fill:#4d4d4d;fill-opacity:1"
           d="m 235.77734,288.49887 3.59375,0 4.49219,17.07032 4.47266,-17.07032 4.23828,0 4.49219,17.07032 4.47265,-17.07032 3.59375,0 -5.72265,21.875 -4.23829,0 -4.70703,-17.92968 -4.72656,17.92968 -4.23828,0 -5.72266,-21.875 z"
           inkscape:connector-curvature="0" />
        <path
           id="path5284"
           style="letter-spacing:2px;fill:#4d4d4d;fill-opacity:1"
           d="m 270.51172,288.49887 3.59375,0 4.49219,17.07032 4.47265,-17.07032 4.23828,0 4.49219,17.07032 4.47266,-17.07032 3.59375,0 -5.72266,21.875 -4.23828,0 -4.70703,-17.92968 -4.72656,17.92968 -4.23829,0 -5.72265,-21.875 z"
           inkscape:connector-curvature="0" />
        <path
           id="path5286"
           style="letter-spacing:2px;fill:#4d4d4d;fill-opacity:1"
           d="m 304.17187,305.41294 4.1211,0 0,4.96093 -4.1211,0 0,-4.96093 z"
           inkscape:connector-curvature="0" />
        <path
           id="path5288"
           style="letter-spacing:2px;fill:#4d4d4d;fill-opacity:1"
           d="m 332.79297,299.18247 q 0,-3.90625 -1.6211,-6.05469 -1.60156,-2.14844 -4.51171,-2.14844 -2.89063,0 -4.51172,2.14844 -1.60157,2.14844 -1.60157,6.05469 0,3.88672 1.60157,6.03515 1.62109,2.14844 4.51172,2.14844 2.91015,0 4.51171,-2.14844 1.6211,-2.14843 1.6211,-6.03515 z m 3.59375,8.47656 q 0,5.58594 -2.48047,8.30078 -2.48047,2.73438 -7.59766,2.73438 -1.89453,0 -3.57422,-0.29297 -1.67968,-0.27344 -3.26171,-0.85938 l 0,-3.49609 q 1.58203,0.85937 3.125,1.26953 1.54296,0.41016 3.14453,0.41016 3.53515,0 5.29297,-1.85547 1.75781,-1.83594 1.75781,-5.56641 l 0,-1.77734 q -1.11328,1.93359 -2.85156,2.89062 -1.73829,0.95703 -4.16016,0.95703 -4.02344,0 -6.48438,-3.0664 -2.46093,-3.06641 -2.46093,-8.125 0,-5.07813 2.46093,-8.14453 2.46094,-3.06641 6.48438,-3.06641 2.42187,0 4.16016,0.95703 1.73828,0.95703 2.85156,2.89063 l 0,-3.32032 3.59375,0 0,19.16016 z"
           inkscape:connector-curvature="0" />
        <path
           id="path5290"
           style="letter-spacing:2px;fill:#4d4d4d;fill-opacity:1"
           d="m 354.26562,291.0184 q -2.89062,0 -4.57031,2.26563 -1.67969,2.24609 -1.67969,6.17187 0,3.92579 1.66016,6.19141 1.67969,2.24609 4.58984,2.24609 2.8711,0 4.55079,-2.26562 1.67968,-2.26563 1.67968,-6.17188 0,-3.88671 -1.67968,-6.15234 -1.67969,-2.28516 -4.55079,-2.28516 z m 0,-3.04687 q 4.6875,0 7.36329,3.04687 2.67578,3.04688 2.67578,8.4375 0,5.3711 -2.67578,8.4375 -2.67579,3.04688 -7.36329,3.04688 -4.70703,0 -7.38281,-3.04688 -2.65625,-3.0664 -2.65625,-8.4375 0,-5.39062 2.65625,-8.4375 2.67578,-3.04687 7.38281,-3.04687 z"
           inkscape:connector-curvature="0" />
        <path
           id="path5292"
           style="letter-spacing:2px;fill:#4d4d4d;fill-opacity:1"
           d="m 380.71875,291.0184 q -2.89063,0 -4.57031,2.26563 -1.67969,2.24609 -1.67969,6.17187 0,3.92579 1.66016,6.19141 1.67968,2.24609 4.58984,2.24609 2.87109,0 4.55078,-2.26562 1.67969,-2.26563 1.67969,-6.17188 0,-3.88671 -1.67969,-6.15234 -1.67969,-2.28516 -4.55078,-2.28516 z m 0,-3.04687 q 4.6875,0 7.36328,3.04687 2.67578,3.04688 2.67578,8.4375 0,5.3711 -2.67578,8.4375 -2.67578,3.04688 -7.36328,3.04688 -4.70703,0 -7.38281,-3.04688 -2.65625,-3.0664 -2.65625,-8.4375 0,-5.39062 2.65625,-8.4375 2.67578,-3.04687 7.38281,-3.04687 z"
           inkscape:connector-curvature="0" />
        <path
           id="path5294"
           style="letter-spacing:2px;fill:#4d4d4d;fill-opacity:1"
           d="m 413.08984,299.18247 q 0,-3.90625 -1.62109,-6.05469 -1.60156,-2.14844 -4.51172,-2.14844 -2.89062,0 -4.51172,2.14844 -1.60156,2.14844 -1.60156,6.05469 0,3.88672 1.60156,6.03515 1.6211,2.14844 4.51172,2.14844 2.91016,0 4.51172,-2.14844 1.62109,-2.14843 1.62109,-6.03515 z m 3.59375,8.47656 q 0,5.58594 -2.48047,8.30078 -2.48046,2.73438 -7.59765,2.73438 -1.89453,0 -3.57422,-0.29297 -1.67969,-0.27344 -3.26172,-0.85938 l 0,-3.49609 q 1.58203,0.85937 3.125,1.26953 1.54297,0.41016 3.14453,0.41016 3.53516,0 5.29297,-1.85547 1.75781,-1.83594 1.75781,-5.56641 l 0,-1.77734 q -1.11328,1.93359 -2.85156,2.89062 -1.73828,0.95703 -4.16016,0.95703 -4.02343,0 -6.48437,-3.0664 -2.46094,-3.06641 -2.46094,-8.125 0,-5.07813 2.46094,-8.14453 2.46094,-3.06641 6.48437,-3.06641 2.42188,0 4.16016,0.95703 1.73828,0.95703 2.85156,2.89063 l 0,-3.32032 3.59375,0 0,19.16016 z"
           inkscape:connector-curvature="0" />
        <path
           id="path5296"
           style="letter-spacing:2px;fill:#4d4d4d;fill-opacity:1"
           d="m 426.08594,279.98325 3.59375,0 0,30.39062 -3.59375,0 0,-30.39062 z"
           inkscape:connector-curvature="0" />
        <path
           id="path5298"
           style="letter-spacing:2px;fill:#4d4d4d;fill-opacity:1"
           d="m 457.89062,298.53794 0,1.75781 -16.52343,0 q 0.23437,3.71094 2.22656,5.66406 2.01172,1.93359 5.58594,1.93359 2.07031,0 4.0039,-0.50781 1.95313,-0.50781 3.86719,-1.52344 l 0,3.39844 q -1.93359,0.82031 -3.96484,1.25 -2.03125,0.42969 -4.1211,0.42969 -5.23437,0 -8.30078,-3.04688 -3.04687,-3.04687 -3.04687,-8.24218 0,-5.3711 2.89062,-8.51563 2.91016,-3.16406 7.83203,-3.16406 4.41407,0 6.97266,2.85156 2.57812,2.83203 2.57812,7.71485 z m -3.59375,-1.05469 q -0.0391,-2.94922 -1.66015,-4.70703 -1.60156,-1.75782 -4.25781,-1.75782 -3.00782,0 -4.82422,1.69922 -1.79688,1.69922 -2.07032,4.78516 l 12.8125,-0.0195 z"
           inkscape:connector-curvature="0" />
        <path
           id="path5300"
           style="letter-spacing:2px;fill:#4d4d4d;fill-opacity:1"
           d="m 466.29687,305.41294 4.1211,0 0,4.96093 -4.1211,0 0,-4.96093 z"
           inkscape:connector-curvature="0" />
        <path
           id="path5302"
           style="letter-spacing:2px;fill:#4d4d4d;fill-opacity:1"
           d="m 496.26562,289.33872 0,3.35937 q -1.52343,-0.83984 -3.0664,-1.25 -1.52344,-0.42969 -3.08594,-0.42969 -3.49609,0 -5.42969,2.22657 -1.93359,2.20703 -1.93359,6.21093 0,4.00391 1.93359,6.23047 1.9336,2.20703 5.42969,2.20703 1.5625,0 3.08594,-0.41015 1.54297,-0.42969 3.0664,-1.26953 l 0,3.32031 q -1.5039,0.70312 -3.125,1.05469 -1.60156,0.35156 -3.41796,0.35156 -4.94141,0 -7.85157,-3.10547 -2.91015,-3.10547 -2.91015,-8.37891 0,-5.35156 2.92968,-8.41796 2.94922,-3.06641 8.06641,-3.06641 1.66016,0 3.24219,0.35156 1.58203,0.33203 3.0664,1.01563 z"
           inkscape:connector-curvature="0" />
        <path
           id="path5304"
           style="letter-spacing:2px;fill:#4d4d4d;fill-opacity:1"
           d="m 513.03125,291.0184 q -2.89063,0 -4.57031,2.26563 -1.67969,2.24609 -1.67969,6.17187 0,3.92579 1.66016,6.19141 1.67968,2.24609 4.58984,2.24609 2.87109,0 4.55078,-2.26562 1.67969,-2.26563 1.67969,-6.17188 0,-3.88671 -1.67969,-6.15234 -1.67969,-2.28516 -4.55078,-2.28516 z m 0,-3.04687 q 4.6875,0 7.36328,3.04687 2.67578,3.04688 2.67578,8.4375 0,5.3711 -2.67578,8.4375 -2.67578,3.04688 -7.36328,3.04688 -4.70703,0 -7.38281,-3.04688 -2.65625,-3.0664 -2.65625,-8.4375 0,-5.39062 2.65625,-8.4375 2.67578,-3.04687 7.38281,-3.04687 z"
           inkscape:connector-curvature="0" />
        <path
           id="path5306"
           style="letter-spacing:2px;fill:#4d4d4d;fill-opacity:1"
           d="m 548.03906,292.69809 q 1.34766,-2.42187 3.22266,-3.57422 1.875,-1.15234 4.41406,-1.15234 3.41797,0 5.27344,2.40234 1.85547,2.38282 1.85547,6.79688 l 0,13.20312 -3.61328,0 0,-13.08593 q 0,-3.14454 -1.11329,-4.66797 -1.11328,-1.52344 -3.39843,-1.52344 -2.79297,0 -4.41407,1.85547 -1.62109,1.85547 -1.62109,5.05859 l 0,12.36328 -3.61328,0 0,-13.08593 q 0,-3.16407 -1.11328,-4.66797 -1.11328,-1.52344 -3.4375,-1.52344 -2.75391,0 -4.375,1.875 -1.6211,1.85547 -1.6211,5.03906 l 0,12.36328 -3.61328,0 0,-21.875 3.61328,0 0,3.39844 q 1.23047,-2.01172 2.94922,-2.96875 1.71875,-0.95703 4.08203,-0.95703 2.38282,0 4.04297,1.21094 1.67969,1.21093 2.48047,3.51562 z"
           inkscape:connector-curvature="0" />
        <path
           id="path5308"
           style="letter-spacing:2px;fill:#4d4d4d;fill-opacity:1"
           d="m 578.37891,281.21372 3.32031,0 -10.15625,32.87109 -3.32031,0 10.15625,-32.87109 z"
           inkscape:connector-curvature="0" />
        <path
           id="path5310"
           style="letter-spacing:2px;fill:#4d4d4d;fill-opacity:1"
           d="m 605.69141,297.17075 0,13.20312 -3.59375,0 0,-13.08593 q 0,-3.10547 -1.21094,-4.64844 -1.21094,-1.54297 -3.63281,-1.54297 -2.91016,0 -4.58985,1.85547 -1.67969,1.85547 -1.67969,5.05859 l 0,12.36328 -3.61328,0 0,-30.39062 3.61328,0 0,11.91406 q 1.28907,-1.97266 3.02735,-2.94922 1.75781,-0.97656 4.04297,-0.97656 3.76953,0 5.70312,2.34375 1.9336,2.32422 1.9336,6.85547 z"
           inkscape:connector-curvature="0" />
        <path
           id="path5312"
           style="letter-spacing:2px;fill:#4d4d4d;fill-opacity:1"
           d="m 633.60937,298.53794 0,1.75781 -16.52343,0 q 0.23437,3.71094 2.22656,5.66406 2.01172,1.93359 5.58594,1.93359 2.07031,0 4.0039,-0.50781 1.95313,-0.50781 3.86719,-1.52344 l 0,3.39844 q -1.93359,0.82031 -3.96484,1.25 -2.03125,0.42969 -4.1211,0.42969 -5.23437,0 -8.30078,-3.04688 -3.04687,-3.04687 -3.04687,-8.24218 0,-5.3711 2.89062,-8.51563 2.91016,-3.16406 7.83203,-3.16406 4.41407,0 6.97266,2.85156 2.57812,2.83203 2.57812,7.71485 z m -3.59375,-1.05469 q -0.0391,-2.94922 -1.66015,-4.70703 -1.60156,-1.75782 -4.25781,-1.75782 -3.00782,0 -4.82422,1.69922 -1.79688,1.69922 -2.07032,4.78516 l 12.8125,-0.0195 z"
           inkscape:connector-curvature="0" />
        <path
           id="path5314"
           style="letter-spacing:2px;fill:#4d4d4d;fill-opacity:1"
           d="m 641.50781,279.98325 3.59375,0 0,30.39062 -3.59375,0 0,-30.39062 z"
           inkscape:connector-curvature="0" />
        <path
           id="path5316"
           style="letter-spacing:2px;fill:#4d4d4d;fill-opacity:1"
           d="m 658.07812,307.09262 0,11.60157 -3.61328,0 0,-30.19532 3.61328,0 0,3.32032 q 1.13282,-1.95313 2.85157,-2.89063 1.73828,-0.95703 4.14062,-0.95703 3.98438,0 6.46485,3.16406 2.5,3.16406 2.5,8.32031 0,5.15625 -2.5,8.32032 -2.48047,3.16406 -6.46485,3.16406 -2.40234,0 -4.14062,-0.9375 -1.71875,-0.95703 -2.85157,-2.91016 z m 12.22657,-7.63672 q 0,-3.96484 -1.64063,-6.21093 -1.62109,-2.26563 -4.47265,-2.26563 -2.85157,0 -4.49219,2.26563 -1.6211,2.24609 -1.6211,6.21093 0,3.96485 1.6211,6.23047 1.64062,2.2461 4.49219,2.2461 2.85156,0 4.47265,-2.2461 1.64063,-2.26562 1.64063,-6.23047 z"
           inkscape:connector-curvature="0" />
        <path
           id="path5318"
           style="letter-spacing:2px;fill:#4d4d4d;fill-opacity:1"
           d="m 688.37891,281.21372 3.32031,0 -10.15625,32.87109 -3.32031,0 10.15625,-32.87109 z"
           inkscape:connector-curvature="0" />
        <path
           id="path5320"
           style="letter-spacing:2px;fill:#4d4d4d;fill-opacity:1"
           d="m 697.50781,288.49887 3.59375,0 0,21.875 -3.59375,0 0,-21.875 z m 0,-8.51562 3.59375,0 0,4.55078 -3.59375,0 0,-4.55078 z"
           inkscape:connector-curvature="0" />
        <path
           id="path5322"
           style="letter-spacing:2px;fill:#4d4d4d;fill-opacity:1"
           d="m 728.78516,297.17075 0,13.20312 -3.59375,0 0,-13.08593 q 0,-3.10547 -1.21094,-4.64844 -1.21094,-1.54297 -3.63281,-1.54297 -2.91016,0 -4.58985,1.85547 -1.67969,1.85547 -1.67969,5.05859 l 0,12.36328 -3.61328,0 0,-21.875 3.61328,0 0,3.39844 q 1.28907,-1.97266 3.02735,-2.94922 1.75781,-0.97656 4.04297,-0.97656 3.76953,0 5.70312,2.34375 1.9336,2.32422 1.9336,6.85547 z"
           inkscape:connector-curvature="0" />
        <path
           id="path5324"
           style="letter-spacing:2px;fill:#4d4d4d;fill-opacity:1"
           d="m 752.38672,291.81919 0,-11.83594 3.59375,0 0,30.39062 -3.59375,0 0,-3.28125 q -1.13281,1.95313 -2.8711,2.91016 -1.71875,0.9375 -4.14062,0.9375 -3.96484,0 -6.46484,-3.16406 -2.48047,-3.16407 -2.48047,-8.32032 0,-5.15625 2.48047,-8.32031 2.5,-3.16406 6.46484,-3.16406 2.42187,0 4.14062,0.95703 1.73829,0.9375 2.8711,2.89063 z m -12.2461,7.63671 q 0,3.96485 1.6211,6.23047 1.64062,2.2461 4.49219,2.2461 2.85156,0 4.49218,-2.2461 1.64063,-2.26562 1.64063,-6.23047 0,-3.96484 -1.64063,-6.21093 -1.64062,-2.26563 -4.49218,-2.26563 -2.85157,0 -4.49219,2.26563 -1.6211,2.24609 -1.6211,6.21093 z"
           inkscape:connector-curvature="0" />
        <path
           id="path5326"
           style="letter-spacing:2px;fill:#4d4d4d;fill-opacity:1"
           d="m 784.09375,298.53794 0,1.75781 -16.52344,0 q 0.23438,3.71094 2.22656,5.66406 2.01172,1.93359 5.58594,1.93359 2.07031,0 4.00391,-0.50781 1.95312,-0.50781 3.86719,-1.52344 l 0,3.39844 q -1.9336,0.82031 -3.96485,1.25 -2.03125,0.42969 -4.12109,0.42969 -5.23438,0 -8.30078,-3.04688 -3.04688,-3.04687 -3.04688,-8.24218 0,-5.3711 2.89063,-8.51563 2.91015,-3.16406 7.83203,-3.16406 4.41406,0 6.97265,2.85156 2.57813,2.83203 2.57813,7.71485 z M 780.5,297.48325 q -0.0391,-2.94922 -1.66016,-4.70703 -1.60156,-1.75782 -4.25781,-1.75782 -3.00781,0 -4.82422,1.69922 -1.79687,1.69922 -2.07031,4.78516 l 12.8125,-0.0195 z"
           inkscape:connector-curvature="0" />
        <path
           id="path5328"
           style="letter-spacing:2px;fill:#4d4d4d;fill-opacity:1"
           d="m 809.47266,288.49887 -7.91016,10.64453 8.32031,11.23047 -4.23828,0 -6.36719,-8.59375 -6.36718,8.59375 -4.23829,0 8.4961,-11.44531 -7.77344,-10.42969 4.23828,0 5.80078,7.79297 5.80078,-7.79297 4.23829,0 z"
           inkscape:connector-curvature="0" />
        <path
           id="path5330"
           style="letter-spacing:2px;fill:#4d4d4d;fill-opacity:1"
           d="m 817.46875,305.41294 4.12109,0 0,4.96093 -4.12109,0 0,-4.96093 z"
           inkscape:connector-curvature="0" />
        <path
           id="path5332"
           style="letter-spacing:2px;fill:#4d4d4d;fill-opacity:1"
           d="m 849.87891,297.17075 0,13.20312 -3.59375,0 0,-13.08593 q 0,-3.10547 -1.21094,-4.64844 -1.21094,-1.54297 -3.63281,-1.54297 -2.91016,0 -4.58985,1.85547 -1.67969,1.85547 -1.67969,5.05859 l 0,12.36328 -3.61328,0 0,-30.39062 3.61328,0 0,11.91406 q 1.28907,-1.97266 3.02735,-2.94922 1.75781,-0.97656 4.04297,-0.97656 3.76953,0 5.70312,2.34375 1.9336,2.32422 1.9336,6.85547 z"
           inkscape:connector-curvature="0" />
        <path
           id="path5334"
           style="letter-spacing:2px;fill:#4d4d4d;fill-opacity:1"
           d="m 862.64062,282.28794 0,6.21093 7.40235,0 0,2.79297 -7.40235,0 0,11.875 q 0,2.67578 0.72266,3.4375 0.74219,0.76172 2.98828,0.76172 l 3.69141,0 0,3.00781 -3.69141,0 q -4.16015,0 -5.74219,-1.54297 -1.58203,-1.5625 -1.58203,-5.66406 l 0,-11.875 -2.63672,0 0,-2.79297 2.63672,0 0,-6.21093 3.61328,0 z"
           inkscape:connector-curvature="0" />
        <path
           id="path5336"
           style="letter-spacing:2px;fill:#4d4d4d;fill-opacity:1"
           d="m 893.82031,292.69809 q 1.34766,-2.42187 3.22266,-3.57422 1.875,-1.15234 4.41406,-1.15234 3.41797,0 5.27344,2.40234 1.85547,2.38282 1.85547,6.79688 l 0,13.20312 -3.61328,0 0,-13.08593 q 0,-3.14454 -1.11329,-4.66797 -1.11328,-1.52344 -3.39843,-1.52344 -2.79297,0 -4.41407,1.85547 -1.62109,1.85547 -1.62109,5.05859 l 0,12.36328 -3.61328,0 0,-13.08593 q 0,-3.16407 -1.11328,-4.66797 -1.11328,-1.52344 -3.4375,-1.52344 -2.75391,0 -4.375,1.875 -1.6211,1.85547 -1.6211,5.03906 l 0,12.36328 -3.61328,0 0,-21.875 3.61328,0 0,3.39844 q 1.23047,-2.01172 2.94922,-2.96875 1.71875,-0.95703 4.08203,-0.95703 2.38282,0 4.04297,1.21094 1.67969,1.21093 2.48047,3.51562 z"
           inkscape:connector-curvature="0" />
        <path
           id="path5338"
           style="letter-spacing:2px;fill:#4d4d4d;fill-opacity:1"
           d="m 917.77344,279.98325 3.59375,0 0,30.39062 -3.59375,0 0,-30.39062 z"
           inkscape:connector-curvature="0" />
      </g>
      <path
         id="path4144"
         d="m 129.99519,310.5729 c 0,0 -15.65758,0.20671 -31.62473,0.30995 -7.983573,0.0516 -16.044648,0.0767 -22.259925,0.0381 -3.107638,-0.0193 -5.755202,-0.054 -7.694117,-0.11011 -0.969458,-0.0281 -1.762311,-0.0626 -2.339501,-0.10059 -0.57719,-0.0381 -1.054224,-0.13601 -0.923023,-0.0924 l -0.546472,4.53626 c 0.441918,0.1469 0.745899,0.13755 1.359385,0.17808 0.613485,0.0405 1.420773,0.0764 2.402032,0.10468 1.962519,0.0568 4.616361,0.0908 7.730821,0.11011 5.69292,0.0354 12.951453,0.0143 20.250751,-0.0285 l 0,53.61821 4.872039,0 0,-53.65219 c 14.83508,-0.10787 28.79584,-0.28547 28.79584,-0.28547 l -0.0231,-4.62599 z"
         style="color:#000000;font-style:normal;font-variant:normal;font-weight:normal;font-stretch:normal;font-size:medium;line-height:normal;font-family:sans-serif;text-indent:0;text-align:start;text-decoration:none;text-decoration-line:none;text-decoration-style:solid;text-decoration-color:#000000;letter-spacing:normal;word-spacing:normal;text-transform:none;direction:ltr;block-progression:tb;writing-mode:lr-tb;baseline-shift:baseline;text-anchor:start;white-space:normal;clip-rule:nonzero;display:inline;overflow:visible;visibility:visible;opacity:1;isolation:auto;mix-blend-mode:normal;color-interpolation:sRGB;color-interpolation-filters:linearRGB;solid-color:#000000;solid-opacity:1;fill:#f44336;fill-opacity:1;fill-rule:evenodd;stroke:none;stroke-width:4;stroke-linecap:butt;stroke-linejoin:miter;stroke-miterlimit:4;stroke-dasharray:none;stroke-dashoffset:0;stroke-opacity:1;color-rendering:auto;image-rendering:auto;shape-rendering:auto;text-rendering:auto;enable-background:accumulate"
         inkscape:connector-curvature="0" />
      <path
         id="path4144-1"
         d="m 408.16878,310.5729 c 0,0 -61.71013,0.20668 -123.73119,0.30995 -31.01051,0.0516 -62.09877,0.0768 -85.58822,0.0381 -11.74472,-0.0193 -21.59022,-0.0537 -28.57426,-0.11011 -3.49202,-0.0282 -6.26864,-0.0627 -8.2066,-0.10195 -0.96899,-0.0196 -1.72928,-0.039 -2.25794,-0.0612 -0.26434,-0.0115 -0.47144,-0.0232 -0.61037,-0.034 -0.13892,-0.0104 -0.32107,-0.0732 -0.0856,0.006 l -0.54647,4.5349 c 0.31311,0.1041 0.32798,0.0681 0.50161,0.0816 0.17365,0.0134 0.39456,0.0252 0.67018,0.0367 0.55124,0.0231 1.31913,0.0427 2.29464,0.0625 1.95102,0.0395 4.73146,0.0737 8.22699,0.10195 6.9911,0.0566 16.83859,0.0922 28.58515,0.11147 19.71154,0.0325 45.03437,0.0137 70.90822,-0.0217 l 0,111.27923 4.87203,0 0,-111.28602 c 3.32794,-0.005 6.47771,-0.006 9.8134,-0.0109 62.02293,-0.10329 123.73527,-0.30858 123.73527,-0.30858 l -0.007,-4.62735 z"
         style="color:#000000;font-style:normal;font-variant:normal;font-weight:normal;font-stretch:normal;font-size:medium;line-height:normal;font-family:sans-serif;text-indent:0;text-align:start;text-decoration:none;text-decoration-line:none;text-decoration-style:solid;text-decoration-color:#000000;letter-spacing:normal;word-spacing:normal;text-transform:none;direction:ltr;block-progression:tb;writing-mode:lr-tb;baseline-shift:baseline;text-anchor:start;white-space:normal;clip-rule:nonzero;display:inline;overflow:visible;visibility:visible;opacity:1;isolation:auto;mix-blend-mode:normal;color-interpolation:sRGB;color-interpolation-filters:linearRGB;solid-color:#000000;solid-opacity:1;fill:#2196f3;fill-opacity:1;fill-rule:evenodd;stroke:none;stroke-width:4;stroke-linecap:butt;stroke-linejoin:miter;stroke-miterlimit:4;stroke-dasharray:none;stroke-dashoffset:0;stroke-opacity:1;color-rendering:auto;image-rendering:auto;shape-rendering:auto;text-rendering:auto;enable-background:accumulate"
         inkscape:connector-curvature="0" />
      <path
         id="path4144-1-2"
         d="m 487.28633,310.5729 c 0,0 -15.22649,0.20671 -30.76152,0.30995 -7.7675,0.0516 -15.61278,0.0767 -21.66587,0.0381 -3.02654,-0.0193 -5.60561,-0.054 -7.49701,-0.11011 -0.94569,-0.0281 -1.72087,-0.0626 -2.28512,-0.10059 -0.56424,-0.0381 -1.02759,-0.13348 -0.90399,-0.0924 l -0.54647,4.53626 c 0.43431,0.14436 0.73651,0.13751 1.33763,0.17808 0.60112,0.0406 1.3899,0.0764 2.34766,0.10468 1.91553,0.0568 4.50288,0.0907 7.53643,0.11011 5.05507,0.0323 11.40333,0.0145 17.85687,-0.0204 l 0,176.90216 4.87204,0 0,-176.92935 c 15.13741,-0.1055 29.7311,-0.30042 29.7311,-0.30042 l -0.0217,-4.62599 z"
         style="color:#000000;font-style:normal;font-variant:normal;font-weight:normal;font-stretch:normal;font-size:medium;line-height:normal;font-family:sans-serif;text-indent:0;text-align:start;text-decoration:none;text-decoration-line:none;text-decoration-style:solid;text-decoration-color:#000000;letter-spacing:normal;word-spacing:normal;text-transform:none;direction:ltr;block-progression:tb;writing-mode:lr-tb;baseline-shift:baseline;text-anchor:start;white-space:normal;clip-rule:nonzero;display:inline;overflow:visible;visibility:visible;opacity:1;isolation:auto;mix-blend-mode:normal;color-interpolation:sRGB;color-interpolation-filters:linearRGB;solid-color:#000000;solid-opacity:1;fill:#8bc34a;fill-opacity:1;fill-rule:evenodd;stroke:none;stroke-width:4;stroke-linecap:butt;stroke-linejoin:miter;stroke-miterlimit:4;stroke-dasharray:none;stroke-dashoffset:0;stroke-opacity:1;color-rendering:auto;image-rendering:auto;shape-rendering:auto;text-rendering:auto;enable-background:accumulate"
         inkscape:connector-curvature="0" />
      <path
         id="path4144-1-2-3"
         d="m 661.29437,310.5729 c 0,0 -39.09052,0.20668 -78.49087,0.30995 -19.70018,0.0516 -39.47828,0.0768 -54.48414,0.0381 -7.50293,-0.0193 -13.81369,-0.0537 -18.32179,-0.11011 -2.25405,-0.0282 -4.05792,-0.0629 -5.33014,-0.10195 -0.63612,-0.0196 -1.14062,-0.0394 -1.49397,-0.0612 -0.35335,-0.0217 -0.72447,-0.12024 -0.45268,-0.0299 l -0.54511,4.53627 c 0.42716,0.14197 0.51168,0.0919 0.89584,0.11555 0.38416,0.0236 0.89858,0.0454 1.54426,0.0652 1.29136,0.0397 3.10198,0.0737 5.36141,0.10196 4.51886,0.0566 10.83231,0.0908 18.3381,0.11011 13.76384,0.0356 31.62537,0.0131 49.67055,-0.0299 l 0,242.53597 4.87204,0 0,-242.54413 c 39.38466,-0.10333 78.44465,-0.30994 78.44466,-0.30994 l -0.008,-4.62599 z"
         style="color:#000000;font-style:normal;font-variant:normal;font-weight:normal;font-stretch:normal;font-size:medium;line-height:normal;font-family:sans-serif;text-indent:0;text-align:start;text-decoration:none;text-decoration-line:none;text-decoration-style:solid;text-decoration-color:#000000;letter-spacing:normal;word-spacing:normal;text-transform:none;direction:ltr;block-progression:tb;writing-mode:lr-tb;baseline-shift:baseline;text-anchor:start;white-space:normal;clip-rule:nonzero;display:inline;overflow:visible;visibility:visible;opacity:1;isolation:auto;mix-blend-mode:normal;color-interpolation:sRGB;color-interpolation-filters:linearRGB;solid-color:#000000;solid-opacity:1;fill:#ffeb3b;fill-opacity:1;fill-rule:evenodd;stroke:none;stroke-width:4;stroke-linecap:butt;stroke-linejoin:miter;stroke-miterlimit:4;stroke-dasharray:none;stroke-dashoffset:0;stroke-opacity:1;color-rendering:auto;image-rendering:auto;shape-rendering:auto;text-rendering:auto;enable-background:accumulate"
         inkscape:connector-curvature="0" />
      <g
         id="flowRoot4136-9"
         style="font-style:normal;font-weight:normal;font-size:40px;line-height:125%;font-family:sans-serif;letter-spacing:0px;word-spacing:0px;fill:#4d4d4d;fill-opacity:1;stroke:none;stroke-width:1px;stroke-linecap:butt;stroke-linejoin:miter;stroke-opacity:1"
         transform="matrix(0.69600495,0,0,0.69600495,22.951213,183.66429)">
        <path
           id="path5249"
           style="letter-spacing:2px;fill:#4d4d4d;fill-opacity:1"
           d="m 69.875,307.09262 0,11.60157 -3.613281,0 0,-30.19532 3.613281,0 0,3.32032 q 1.132812,-1.95313 2.851562,-2.89063 1.738282,-0.95703 4.140625,-0.95703 3.984375,0 6.464844,3.16406 2.5,3.16406 2.5,8.32031 0,5.15625 -2.5,8.32032 -2.480469,3.16406 -6.464844,3.16406 -2.402343,0 -4.140625,-0.9375 -1.71875,-0.95703 -2.851562,-2.91016 z m 12.226562,-7.63672 q 0,-3.96484 -1.640625,-6.21093 -1.621093,-2.26563 -4.472656,-2.26563 -2.851562,0 -4.492187,2.26563 -1.621094,2.24609 -1.621094,6.21093 0,3.96485 1.621094,6.23047 1.640625,2.2461 4.492187,2.2461 2.851563,0 4.472656,-2.2461 1.640625,-2.26562 1.640625,-6.23047 z"
           inkscape:connector-curvature="0" />
        <path
           id="path5251"
           style="letter-spacing:2px;fill:#4d4d4d;fill-opacity:1"
           d="m 106.46484,291.85825 q -0.60546,-0.35156 -1.32812,-0.50781 -0.70313,-0.17579 -1.5625,-0.17579 -3.04688,0 -4.687501,1.99219 -1.621094,1.97266 -1.621094,5.6836 l 0,11.52343 -3.613281,0 0,-21.875 3.613281,0 0,3.39844 q 1.132812,-1.99219 2.949215,-2.94922 1.81641,-0.97656 4.41407,-0.97656 0.37109,0 0.82031,0.0586 0.44922,0.0391 0.99609,0.13672 l 0.0195,3.69141 z"
           inkscape:connector-curvature="0" />
        <path
           id="path5253"
           style="letter-spacing:2px;fill:#4d4d4d;fill-opacity:1"
           d="m 119.89063,291.0184 q -2.89063,0 -4.57032,2.26563 -1.67968,2.24609 -1.67968,6.17187 0,3.92579 1.66015,6.19141 1.67969,2.24609 4.58985,2.24609 2.87109,0 4.55078,-2.26562 1.67968,-2.26563 1.67968,-6.17188 0,-3.88671 -1.67968,-6.15234 -1.67969,-2.28516 -4.55078,-2.28516 z m 0,-3.04687 q 4.6875,0 7.36328,3.04687 2.67578,3.04688 2.67578,8.4375 0,5.3711 -2.67578,8.4375 -2.67578,3.04688 -7.36328,3.04688 -4.70704,0 -7.38282,-3.04688 -2.65625,-3.0664 -2.65625,-8.4375 0,-5.39062 2.65625,-8.4375 2.67578,-3.04687 7.38282,-3.04687 z"
           inkscape:connector-curvature="0" />
        <path
           id="path5255"
           style="letter-spacing:2px;fill:#4d4d4d;fill-opacity:1"
           d="m 141.42187,282.28794 0,6.21093 7.40235,0 0,2.79297 -7.40235,0 0,11.875 q 0,2.67578 0.72266,3.4375 0.74219,0.76172 2.98828,0.76172 l 3.69141,0 0,3.00781 -3.69141,0 q -4.16015,0 -5.74219,-1.54297 -1.58203,-1.5625 -1.58203,-5.66406 l 0,-11.875 -2.63672,0 0,-2.79297 2.63672,0 0,-6.21093 3.61328,0 z"
           inkscape:connector-curvature="0" />
        <path
           id="path5257"
           style="letter-spacing:2px;fill:#4d4d4d;fill-opacity:1"
           d="m 164.04687,291.0184 q -2.89062,0 -4.57031,2.26563 -1.67969,2.24609 -1.67969,6.17187 0,3.92579 1.66016,6.19141 1.67969,2.24609 4.58984,2.24609 2.8711,0 4.55079,-2.26562 1.67968,-2.26563 1.67968,-6.17188 0,-3.88671 -1.67968,-6.15234 -1.67969,-2.28516 -4.55079,-2.28516 z m 0,-3.04687 q 4.6875,0 7.36329,3.04687 2.67578,3.04688 2.67578,8.4375 0,5.3711 -2.67578,8.4375 -2.67579,3.04688 -7.36329,3.04688 -4.70703,0 -7.38281,-3.04688 -2.65625,-3.0664 -2.65625,-8.4375 0,-5.39062 2.65625,-8.4375 2.67578,-3.04687 7.38281,-3.04687 z"
           inkscape:connector-curvature="0" />
        <path
           id="path5259"
           style="letter-spacing:2px;fill:#4d4d4d;fill-opacity:1"
           d="m 197.76562,289.33872 0,3.35937 q -1.52343,-0.83984 -3.0664,-1.25 -1.52344,-0.42969 -3.08594,-0.42969 -3.49609,0 -5.42969,2.22657 -1.93359,2.20703 -1.93359,6.21093 0,4.00391 1.93359,6.23047 1.9336,2.20703 5.42969,2.20703 1.5625,0 3.08594,-0.41015 1.54297,-0.42969 3.0664,-1.26953 l 0,3.32031 q -1.5039,0.70312 -3.125,1.05469 -1.60156,0.35156 -3.41796,0.35156 -4.94141,0 -7.85157,-3.10547 -2.91015,-3.10547 -2.91015,-8.37891 0,-5.35156 2.92968,-8.41796 2.94922,-3.06641 8.06641,-3.06641 1.66016,0 3.24219,0.35156 1.58203,0.33203 3.0664,1.01563 z"
           inkscape:connector-curvature="0" />
        <path
           id="path5261"
           style="letter-spacing:2px;fill:#4d4d4d;fill-opacity:1"
           d="m 214.53125,291.0184 q -2.89063,0 -4.57031,2.26563 -1.67969,2.24609 -1.67969,6.17187 0,3.92579 1.66016,6.19141 1.67968,2.24609 4.58984,2.24609 2.87109,0 4.55078,-2.26562 1.67969,-2.26563 1.67969,-6.17188 0,-3.88671 -1.67969,-6.15234 -1.67969,-2.28516 -4.55078,-2.28516 z m 0,-3.04687 q 4.6875,0 7.36328,3.04687 2.67578,3.04688 2.67578,8.4375 0,5.3711 -2.67578,8.4375 -2.67578,3.04688 -7.36328,3.04688 -4.70703,0 -7.38281,-3.04688 -2.65625,-3.0664 -2.65625,-8.4375 0,-5.39062 2.65625,-8.4375 2.67578,-3.04687 7.38281,-3.04687 z"
           inkscape:connector-curvature="0" />
        <path
           id="path5263"
           style="letter-spacing:2px;fill:#4d4d4d;fill-opacity:1"
           d="m 232.50781,279.98325 3.59375,0 0,30.39062 -3.59375,0 0,-30.39062 z"
           inkscape:connector-curvature="0" />
      </g>
      <g
         id="flowRoot4136-9-1"
         style="font-style:normal;font-weight:normal;font-size:40px;line-height:125%;font-family:sans-serif;letter-spacing:0px;word-spacing:0px;fill:#4d4d4d;fill-opacity:1;stroke:none;stroke-width:1px;stroke-linecap:butt;stroke-linejoin:miter;stroke-opacity:1"
         transform="matrix(0.69600495,0,0,0.69600495,120.23578,245.31043)">
        <path
           id="path5228"
           style="letter-spacing:2px;fill:#4d4d4d;fill-opacity:1"
           d="m 80.792969,291.81919 0,-11.83594 3.59375,0 0,30.39062 -3.59375,0 0,-3.28125 q -1.132813,1.95313 -2.871094,2.91016 -1.71875,0.9375 -4.140625,0.9375 -3.964844,0 -6.464844,-3.16406 -2.480469,-3.16407 -2.480469,-8.32032 0,-5.15625 2.480469,-8.32031 2.5,-3.16406 6.464844,-3.16406 2.421875,0 4.140625,0.95703 1.738281,0.9375 2.871094,2.89063 z m -12.246094,7.63671 q 0,3.96485 1.621094,6.23047 1.640625,2.2461 4.492187,2.2461 2.851563,0 4.492188,-2.2461 1.640625,-2.26562 1.640625,-6.23047 0,-3.96484 -1.640625,-6.21093 -1.640625,-2.26563 -4.492188,-2.26563 -2.851562,0 -4.492187,2.26563 -1.621094,2.24609 -1.621094,6.21093 z"
           inkscape:connector-curvature="0" />
        <path
           id="path5230"
           style="letter-spacing:2px;fill:#4d4d4d;fill-opacity:1"
           d="m 102.26563,291.0184 q -2.89063,0 -4.570318,2.26563 -1.679687,2.24609 -1.679687,6.17187 0,3.92579 1.660156,6.19141 1.679688,2.24609 4.589849,2.24609 2.87109,0 4.55078,-2.26562 1.67968,-2.26563 1.67968,-6.17188 0,-3.88671 -1.67968,-6.15234 -1.67969,-2.28516 -4.55078,-2.28516 z m 0,-3.04687 q 4.6875,0 7.36328,3.04687 2.67578,3.04688 2.67578,8.4375 0,5.3711 -2.67578,8.4375 -2.67578,3.04688 -7.36328,3.04688 -4.707036,0 -7.382818,-3.04688 -2.65625,-3.0664 -2.65625,-8.4375 0,-5.39062 2.65625,-8.4375 2.675782,-3.04687 7.382818,-3.04687 z"
           inkscape:connector-curvature="0" />
        <path
           id="path5232"
           style="letter-spacing:2px;fill:#4d4d4d;fill-opacity:1"
           d="m 137.27344,292.69809 q 1.34765,-2.42187 3.22265,-3.57422 1.875,-1.15234 4.41407,-1.15234 3.41796,0 5.27343,2.40234 1.85547,2.38282 1.85547,6.79688 l 0,13.20312 -3.61328,0 0,-13.08593 q 0,-3.14454 -1.11328,-4.66797 -1.11328,-1.52344 -3.39844,-1.52344 -2.79297,0 -4.41406,1.85547 -1.62109,1.85547 -1.62109,5.05859 l 0,12.36328 -3.61329,0 0,-13.08593 q 0,-3.16407 -1.11328,-4.66797 -1.11328,-1.52344 -3.4375,-1.52344 -2.7539,0 -4.375,1.875 -1.62109,1.85547 -1.62109,5.03906 l 0,12.36328 -3.61328,0 0,-21.875 3.61328,0 0,3.39844 q 1.23047,-2.01172 2.94922,-2.96875 1.71875,-0.95703 4.08203,-0.95703 2.38281,0 4.04297,1.21094 1.67969,1.21093 2.48047,3.51562 z"
           inkscape:connector-curvature="0" />
        <path
           id="path5234"
           style="letter-spacing:2px;fill:#4d4d4d;fill-opacity:1"
           d="m 171.16797,299.37778 q -4.35547,0 -6.03516,0.99609 -1.67969,0.9961 -1.67969,3.39844 0,1.91406 1.25,3.04688 1.26954,1.11328 3.4375,1.11328 2.98829,0 4.78516,-2.10938 1.81641,-2.1289 1.81641,-5.64453 l 0,-0.80078 -3.57422,0 z m 7.16797,-1.48438 0,12.48047 -3.59375,0 0,-3.32031 q -1.23047,1.99219 -3.06641,2.94922 -1.83594,0.9375 -4.49219,0.9375 -3.35937,0 -5.35156,-1.875 -1.97266,-1.89453 -1.97266,-5.05859 0,-3.69141 2.46094,-5.56641 2.48047,-1.875 7.38281,-1.875 l 5.03907,0 0,-0.35156 q 0,-2.48047 -1.64063,-3.82813 -1.62109,-1.36719 -4.57031,-1.36719 -1.875,0 -3.65234,0.44922 -1.77735,0.44922 -3.41797,1.34766 l 0,-3.32031 q 1.97265,-0.76172 3.82812,-1.13282 1.85547,-0.39062 3.61328,-0.39062 4.7461,0 7.08985,2.46094 2.34375,2.46093 2.34375,7.46093 z"
           inkscape:connector-curvature="0" />
        <path
           id="path5236"
           style="letter-spacing:2px;fill:#4d4d4d;fill-opacity:1"
           d="m 187.75781,288.49887 3.59375,0 0,21.875 -3.59375,0 0,-21.875 z m 0,-8.51562 3.59375,0 0,4.55078 -3.59375,0 0,-4.55078 z"
           inkscape:connector-curvature="0" />
        <path
           id="path5238"
           style="letter-spacing:2px;fill:#4d4d4d;fill-opacity:1"
           d="m 219.03516,297.17075 0,13.20312 -3.59375,0 0,-13.08593 q 0,-3.10547 -1.21094,-4.64844 -1.21094,-1.54297 -3.63281,-1.54297 -2.91016,0 -4.58985,1.85547 -1.67969,1.85547 -1.67969,5.05859 l 0,12.36328 -3.61328,0 0,-21.875 3.61328,0 0,3.39844 q 1.28907,-1.97266 3.02735,-2.94922 1.75781,-0.97656 4.04297,-0.97656 3.76953,0 5.70312,2.34375 1.9336,2.32422 1.9336,6.85547 z"
           inkscape:connector-curvature="0" />
        <path
           id="path5240"
           style="letter-spacing:2px;fill:#4d4d4d;fill-opacity:1"
           d="m 261.16016,297.17075 0,13.20312 -3.59375,0 0,-13.08593 q 0,-3.10547 -1.21094,-4.64844 -1.21094,-1.54297 -3.63281,-1.54297 -2.91016,0 -4.58985,1.85547 -1.67969,1.85547 -1.67969,5.05859 l 0,12.36328 -3.61328,0 0,-21.875 3.61328,0 0,3.39844 q 1.28907,-1.97266 3.02735,-2.94922 1.75781,-0.97656 4.04297,-0.97656 3.76953,0 5.70312,2.34375 1.9336,2.32422 1.9336,6.85547 z"
           inkscape:connector-curvature="0" />
        <path
           id="path5242"
           style="letter-spacing:2px;fill:#4d4d4d;fill-opacity:1"
           d="m 280.30859,299.37778 q -4.35547,0 -6.03515,0.99609 -1.67969,0.9961 -1.67969,3.39844 0,1.91406 1.25,3.04688 1.26953,1.11328 3.4375,1.11328 2.98828,0 4.78516,-2.10938 1.8164,-2.1289 1.8164,-5.64453 l 0,-0.80078 -3.57422,0 z m 7.16797,-1.48438 0,12.48047 -3.59375,0 0,-3.32031 q -1.23047,1.99219 -3.0664,2.94922 -1.83594,0.9375 -4.49219,0.9375 -3.35938,0 -5.35156,-1.875 Q 269,307.17075 269,304.00669 q 0,-3.69141 2.46094,-5.56641 2.48047,-1.875 7.38281,-1.875 l 5.03906,0 0,-0.35156 q 0,-2.48047 -1.64062,-3.82813 -1.6211,-1.36719 -4.57032,-1.36719 -1.875,0 -3.65234,0.44922 -1.77734,0.44922 -3.41797,1.34766 l 0,-3.32031 q 1.97266,-0.76172 3.82813,-1.13282 1.85547,-0.39062 3.61328,-0.39062 4.74609,0 7.08984,2.46094 2.34375,2.46093 2.34375,7.46093 z"
           inkscape:connector-curvature="0" />
        <path
           id="path5244"
           style="letter-spacing:2px;fill:#4d4d4d;fill-opacity:1"
           d="m 313.92969,292.69809 q 1.34765,-2.42187 3.22265,-3.57422 1.875,-1.15234 4.41407,-1.15234 3.41796,0 5.27343,2.40234 1.85547,2.38282 1.85547,6.79688 l 0,13.20312 -3.61328,0 0,-13.08593 q 0,-3.14454 -1.11328,-4.66797 -1.11328,-1.52344 -3.39844,-1.52344 -2.79297,0 -4.41406,1.85547 -1.62109,1.85547 -1.62109,5.05859 l 0,12.36328 -3.61329,0 0,-13.08593 q 0,-3.16407 -1.11328,-4.66797 -1.11328,-1.52344 -3.4375,-1.52344 -2.7539,0 -4.375,1.875 -1.62109,1.85547 -1.62109,5.03906 l 0,12.36328 -3.61328,0 0,-21.875 3.61328,0 0,3.39844 q 1.23047,-2.01172 2.94922,-2.96875 1.71875,-0.95703 4.08203,-0.95703 2.38281,0 4.04297,1.21094 1.67969,1.21093 2.48047,3.51562 z"
           inkscape:connector-curvature="0" />
        <path
           id="path5246"
           style="letter-spacing:2px;fill:#4d4d4d;fill-opacity:1"
           d="m 356.59375,298.53794 0,1.75781 -16.52344,0 q 0.23438,3.71094 2.22656,5.66406 2.01172,1.93359 5.58594,1.93359 2.07031,0 4.00391,-0.50781 1.95312,-0.50781 3.86719,-1.52344 l 0,3.39844 q -1.9336,0.82031 -3.96485,1.25 -2.03125,0.42969 -4.12109,0.42969 -5.23438,0 -8.30078,-3.04688 -3.04688,-3.04687 -3.04688,-8.24218 0,-5.3711 2.89063,-8.51563 2.91015,-3.16406 7.83203,-3.16406 4.41406,0 6.97265,2.85156 2.57813,2.83203 2.57813,7.71485 z M 353,297.48325 q -0.0391,-2.94922 -1.66016,-4.70703 -1.60156,-1.75782 -4.25781,-1.75782 -3.00781,0 -4.82422,1.69922 -1.79687,1.69922 -2.07031,4.78516 L 353,297.48325 Z"
           inkscape:connector-curvature="0" />
      </g>
      <g
         id="flowRoot4136-9-1-6"
         style="font-style:normal;font-weight:normal;font-size:40px;line-height:125%;font-family:sans-serif;letter-spacing:0px;word-spacing:0px;fill:#4d4d4d;fill-opacity:1;stroke:none;stroke-width:1px;stroke-linecap:butt;stroke-linejoin:miter;stroke-opacity:1"
         transform="matrix(0.69600495,0,0,0.69600495,355.35844,310.64926)">
        <path
           id="path5215"
           style="letter-spacing:2px;fill:#4d4d4d;fill-opacity:1"
           d="m 77.472656,279.98325 0,2.98828 -3.4375,0 q -1.933594,0 -2.695312,0.78125 -0.742188,0.78125 -0.742188,2.8125 l 0,1.93359 5.917969,0 0,2.79297 -5.917969,0 0,19.08203 -3.613281,0 0,-19.08203 -3.4375,0 0,-2.79297 3.4375,0 0,-1.52343 q 0,-3.65235 1.699219,-5.3125 1.699218,-1.67969 5.390625,-1.67969 l 3.398437,0 z"
           inkscape:connector-curvature="0" />
        <path
           id="path5217"
           style="letter-spacing:2px;fill:#4d4d4d;fill-opacity:1"
           d="m 90.9375,291.0184 q -2.890625,0 -4.570313,2.26563 -1.679687,2.24609 -1.679687,6.17187 0,3.92579 1.660156,6.19141 1.679688,2.24609 4.589844,2.24609 2.871094,0 4.550781,-2.26562 1.679688,-2.26563 1.679688,-6.17188 0,-3.88671 -1.679688,-6.15234 -1.679687,-2.28516 -4.550781,-2.28516 z m 0,-3.04687 q 4.6875,0 7.363281,3.04687 2.675779,3.04688 2.675779,8.4375 0,5.3711 -2.675779,8.4375 -2.675781,3.04688 -7.363281,3.04688 -4.707031,0 -7.382813,-3.04688 -2.65625,-3.0664 -2.65625,-8.4375 0,-5.39062 2.65625,-8.4375 2.675782,-3.04687 7.382813,-3.04687 z"
           inkscape:connector-curvature="0" />
        <path
           id="path5219"
           style="letter-spacing:2px;fill:#4d4d4d;fill-opacity:1"
           d="m 108.91406,279.98325 3.59375,0 0,30.39062 -3.59375,0 0,-30.39062 z"
           inkscape:connector-curvature="0" />
        <path
           id="path5221"
           style="letter-spacing:2px;fill:#4d4d4d;fill-opacity:1"
           d="m 136.40234,291.81919 0,-11.83594 3.59375,0 0,30.39062 -3.59375,0 0,-3.28125 q -1.13281,1.95313 -2.87109,2.91016 -1.71875,0.9375 -4.14063,0.9375 -3.96484,0 -6.46484,-3.16406 -2.48047,-3.16407 -2.48047,-8.32032 0,-5.15625 2.48047,-8.32031 2.5,-3.16406 6.46484,-3.16406 2.42188,0 4.14063,0.95703 1.73828,0.9375 2.87109,2.89063 z m -12.24609,7.63671 q 0,3.96485 1.62109,6.23047 1.64063,2.2461 4.49219,2.2461 2.85156,0 4.49219,-2.2461 1.64062,-2.26562 1.64062,-6.23047 0,-3.96484 -1.64062,-6.21093 -1.64063,-2.26563 -4.49219,-2.26563 -2.85156,0 -4.49219,2.26563 -1.62109,2.24609 -1.62109,6.21093 z"
           inkscape:connector-curvature="0" />
        <path
           id="path5223"
           style="letter-spacing:2px;fill:#4d4d4d;fill-opacity:1"
           d="m 168.10937,298.53794 0,1.75781 -16.52343,0 q 0.23437,3.71094 2.22656,5.66406 2.01172,1.93359 5.58594,1.93359 2.07031,0 4.0039,-0.50781 1.95313,-0.50781 3.86719,-1.52344 l 0,3.39844 q -1.93359,0.82031 -3.96484,1.25 -2.03125,0.42969 -4.1211,0.42969 -5.23437,0 -8.30078,-3.04688 -3.04687,-3.04687 -3.04687,-8.24218 0,-5.3711 2.89062,-8.51563 2.91016,-3.16406 7.83203,-3.16406 4.41407,0 6.97266,2.85156 2.57812,2.83203 2.57812,7.71485 z m -3.59375,-1.05469 q -0.0391,-2.94922 -1.66015,-4.70703 -1.60156,-1.75782 -4.25781,-1.75782 -3.00782,0 -4.82422,1.69922 -1.79688,1.69922 -2.07032,4.78516 l 12.8125,-0.0195 z"
           inkscape:connector-curvature="0" />
        <path
           id="path5225"
           style="letter-spacing:2px;fill:#4d4d4d;fill-opacity:1"
           d="m 188.68359,291.85825 q -0.60547,-0.35156 -1.32812,-0.50781 -0.70313,-0.17579 -1.5625,-0.17579 -3.04688,0 -4.6875,1.99219 -1.6211,1.97266 -1.6211,5.6836 l 0,11.52343 -3.61328,0 0,-21.875 3.61328,0 0,3.39844 q 1.13282,-1.99219 2.94922,-2.94922 1.81641,-0.97656 4.41407,-0.97656 0.37109,0 0.82031,0.0586 0.44922,0.0391 0.99609,0.13672 l 0.0195,3.69141 z"
           inkscape:connector-curvature="0" />
      </g>
      <g
         id="flowRoot4136-9-1-6-5"
         style="font-style:normal;font-weight:normal;font-size:40px;line-height:125%;font-family:sans-serif;letter-spacing:0px;word-spacing:0px;fill:#4d4d4d;fill-opacity:1;stroke:none;stroke-width:1px;stroke-linecap:butt;stroke-linejoin:miter;stroke-opacity:1"
         transform="matrix(0.69600495,0,0,0.69600495,465.79873,371.30112)">
        <path
           id="path5200"
           style="letter-spacing:2px;fill:#4d4d4d;fill-opacity:1"
           d="m 84.074219,288.49887 0,21.875 -3.613282,0 0,-19.08203 -9.863281,0 0,19.08203 -3.613281,0 0,-19.08203 -3.4375,0 0,-2.79297 3.4375,0 0,-1.52343 q 0,-3.57422 1.679687,-5.27344 1.699219,-1.71875 5.195313,-1.71875 l 3.613281,0 0,2.98828 -3.4375,0 q -1.933594,0 -2.695312,0.78125 -0.742188,0.78125 -0.742188,2.8125 l 0,1.93359 13.476563,0 z m -3.613282,-8.47656 3.613282,0 0,4.55078 -3.613282,0 0,-4.55078 z"
           inkscape:connector-curvature="0" />
        <path
           id="path5202"
           style="letter-spacing:2px;fill:#4d4d4d;fill-opacity:1"
           d="m 95.632812,279.98325 3.59375,0 0,30.39062 -3.59375,0 0,-30.39062 z"
           inkscape:connector-curvature="0" />
        <path
           id="path5204"
           style="letter-spacing:2px;fill:#4d4d4d;fill-opacity:1"
           d="m 127.4375,298.53794 0,1.75781 -16.52344,0 q 0.23438,3.71094 2.22657,5.66406 2.01171,1.93359 5.58593,1.93359 2.07032,0 4.00391,-0.50781 1.95312,-0.50781 3.86719,-1.52344 l 0,3.39844 q -1.9336,0.82031 -3.96485,1.25 -2.03125,0.42969 -4.12109,0.42969 -5.23438,0 -8.30078,-3.04688 -3.04688,-3.04687 -3.04688,-8.24218 0,-5.3711 2.89063,-8.51563 2.91015,-3.16406 7.83203,-3.16406 4.41406,0 6.97266,2.85156 2.57812,2.83203 2.57812,7.71485 z m -3.59375,-1.05469 q -0.0391,-2.94922 -1.66016,-4.70703 -1.60156,-1.75782 -4.25781,-1.75782 -3.00781,0 -4.82422,1.69922 -1.79687,1.69922 -2.07031,4.78516 l 12.8125,-0.0195 z"
           inkscape:connector-curvature="0" />
        <path
           id="path5206"
           style="letter-spacing:2px;fill:#4d4d4d;fill-opacity:1"
           d="m 153.51953,297.17075 0,13.20312 -3.59375,0 0,-13.08593 q 0,-3.10547 -1.21094,-4.64844 -1.21093,-1.54297 -3.63281,-1.54297 -2.91016,0 -4.58984,1.85547 -1.67969,1.85547 -1.67969,5.05859 l 0,12.36328 -3.61328,0 0,-21.875 3.61328,0 0,3.39844 q 1.28906,-1.97266 3.02734,-2.94922 1.75782,-0.97656 4.04297,-0.97656 3.76953,0 5.70313,2.34375 1.93359,2.32422 1.93359,6.85547 z"
           inkscape:connector-curvature="0" />
        <path
           id="path5208"
           style="letter-spacing:2px;fill:#4d4d4d;fill-opacity:1"
           d="m 172.66797,299.37778 q -4.35547,0 -6.03516,0.99609 -1.67969,0.9961 -1.67969,3.39844 0,1.91406 1.25,3.04688 1.26954,1.11328 3.4375,1.11328 2.98829,0 4.78516,-2.10938 1.81641,-2.1289 1.81641,-5.64453 l 0,-0.80078 -3.57422,0 z m 7.16797,-1.48438 0,12.48047 -3.59375,0 0,-3.32031 q -1.23047,1.99219 -3.06641,2.94922 -1.83594,0.9375 -4.49219,0.9375 -3.35937,0 -5.35156,-1.875 -1.97266,-1.89453 -1.97266,-5.05859 0,-3.69141 2.46094,-5.56641 2.48047,-1.875 7.38281,-1.875 l 5.03907,0 0,-0.35156 q 0,-2.48047 -1.64063,-3.82813 -1.62109,-1.36719 -4.57031,-1.36719 -1.875,0 -3.65234,0.44922 -1.77735,0.44922 -3.41797,1.34766 l 0,-3.32031 q 1.97265,-0.76172 3.82812,-1.13282 1.85547,-0.39062 3.61328,-0.39062 4.7461,0 7.08985,2.46094 2.34375,2.46093 2.34375,7.46093 z"
           inkscape:connector-curvature="0" />
        <path
           id="path5210"
           style="letter-spacing:2px;fill:#4d4d4d;fill-opacity:1"
           d="m 206.28906,292.69809 q 1.34766,-2.42187 3.22266,-3.57422 1.875,-1.15234 4.41406,-1.15234 3.41797,0 5.27344,2.40234 1.85547,2.38282 1.85547,6.79688 l 0,13.20312 -3.61328,0 0,-13.08593 q 0,-3.14454 -1.11329,-4.66797 -1.11328,-1.52344 -3.39843,-1.52344 -2.79297,0 -4.41407,1.85547 -1.62109,1.85547 -1.62109,5.05859 l 0,12.36328 -3.61328,0 0,-13.08593 q 0,-3.16407 -1.11328,-4.66797 -1.11328,-1.52344 -3.4375,-1.52344 -2.75391,0 -4.375,1.875 -1.6211,1.85547 -1.6211,5.03906 l 0,12.36328 -3.61328,0 0,-21.875 3.61328,0 0,3.39844 q 1.23047,-2.01172 2.94922,-2.96875 1.71875,-0.95703 4.08203,-0.95703 2.38282,0 4.04297,1.21094 1.67969,1.21093 2.48047,3.51562 z"
           inkscape:connector-curvature="0" />
        <path
           id="path5212"
           style="letter-spacing:2px;fill:#4d4d4d;fill-opacity:1"
           d="m 248.95312,298.53794 0,1.75781 -16.52343,0 q 0.23437,3.71094 2.22656,5.66406 2.01172,1.93359 5.58594,1.93359 2.07031,0 4.0039,-0.50781 1.95313,-0.50781 3.86719,-1.52344 l 0,3.39844 q -1.93359,0.82031 -3.96484,1.25 -2.03125,0.42969 -4.1211,0.42969 -5.23437,0 -8.30078,-3.04688 -3.04687,-3.04687 -3.04687,-8.24218 0,-5.3711 2.89062,-8.51563 2.91016,-3.16406 7.83203,-3.16406 4.41407,0 6.97266,2.85156 2.57812,2.83203 2.57812,7.71485 z m -3.59375,-1.05469 q -0.0391,-2.94922 -1.66015,-4.70703 -1.60156,-1.75782 -4.25781,-1.75782 -3.00782,0 -4.82422,1.69922 -1.79688,1.69922 -2.07032,4.78516 l 12.8125,-0.0195 z"
           inkscape:connector-curvature="0" />
      </g>
    </g>
  </g>
</svg>
